<svg width="1912" height="2640" viewBox="0 0 1912 2640" fill="none" xmlns="http://www.w3.org/2000/svg">
<path d="M67.2738 1965.21C63.8363 1964.36 61.0238 1963.37 61.0238 1963.03C61.0238 1961.93 697.319 1343.49 698.187 1343.75C698.65 1343.89 751.262 1386.34 815.102 1438.09C878.943 1489.84 933.288 1533.49 935.868 1535.09C946.172 1541.5 961.623 1542.15 973.297 1536.67C976.605 1535.12 1021.8 1499.12 1096.43 1438.6L1214.33 1342.99L1224.43 1352.76C1323.59 1448.79 1851.02 1962.38 1851.02 1962.92C1851.02 1963.33 1847.92 1964.42 1844.13 1965.34C1837.73 1966.88 1774.63 1966.99 955.381 1966.89C159.556 1966.79 72.9141 1966.62 67.2738 1965.21V1965.21ZM3.16372 1905.86C-0.0814023 1897.28 -0.0830228 1896.97 0.221617 1343.5C0.518057 804.925 0.560351 794.381 2.44882 788.21C3.79375 783.816 4.78134 782.077 5.72608 782.439C7.54275 783.136 635.899 1292.32 635.969 1293.15C636.013 1293.67 53.4063 1860.88 14.2898 1898.4C4.50086 1907.79 4.01705 1908.11 3.16372 1905.86V1905.86ZM1592.13 1601.04C1418.7 1432.29 1276.74 1293.87 1276.66 1293.43C1276.52 1292.6 1905.87 782 1907.05 782C1907.43 782 1908.6 784.588 1909.63 787.75C1911.48 793.355 1911.53 807.33 1911.8 1343.5C1912.05 1849.7 1911.94 1894.04 1910.44 1900.26C1909.54 1903.98 1908.5 1907.2 1908.13 1907.43C1907.76 1907.66 1765.56 1769.78 1592.13 1601.04ZM510.651 1090.75C266.159 892.613 66.0983 730.253 66.0718 729.95C65.8193 727.06 83.8022 727 956.167 727C1612.07 727 1836.14 727.29 1840.39 728.145C1843.53 728.775 1845.97 729.628 1845.81 730.04C1845.37 731.196 957.038 1451 956.051 1451C955.573 1451 755.142 1288.89 510.651 1090.75V1090.75Z" fill="black"/>
</svg>
