<?xml version="1.0" encoding="UTF-8" standalone="no"?>
<!-- Created with Inkscape (http://www.inkscape.org/) -->

<svg
   version="1.1"
   id="svg9"
   width="1058.6667"
   height="846.66669"
   viewBox="0 0 1058.6667 846.66669"
   sodipodi:docname="calculator_adv.svg"
   inkscape:version="1.1.1 (3bf5ae0d25, 2021-09-20)"
   xmlns:inkscape="http://www.inkscape.org/namespaces/inkscape"
   xmlns:sodipodi="http://sodipodi.sourceforge.net/DTD/sodipodi-0.dtd"
   xmlns="http://www.w3.org/2000/svg"
   xmlns:svg="http://www.w3.org/2000/svg">
  <defs
     id="defs13" />
  <sodipodi:namedview
     id="namedview11"
     pagecolor="#ffffff"
     bordercolor="#666666"
     borderopacity="1.0"
     inkscape:pageshadow="2"
     inkscape:pageopacity="0.0"
     inkscape:pagecheckerboard="0"
     showgrid="false"
     inkscape:zoom="0.66896754"
     inkscape:cx="265.33425"
     inkscape:cy="404.35445"
     inkscape:window-width="1920"
     inkscape:window-height="1009"
     inkscape:window-x="-8"
     inkscape:window-y="-8"
     inkscape:window-maximized="1"
     inkscape:current-layer="g15" />
  <g
     inkscape:groupmode="layer"
     inkscape:label="Image"
     id="g15">
    <path
       style="fill:#000000;stroke-width:1.33333"
       d="m 380.5568,821.55793 c -62.3333,-0.38526 -113.3837,-0.84198 -113.4453,-1.01495 -0.6213,-1.74531 -1.6551,-751.812905 -1.0403,-754.886544 0.7545,-3.772807 6.0405,-10.510226 20.7348,-26.428366 l 5.231,-5.66667 h 289.8797 c 285.2309,0 289.9018,0.0414 291.2599,2.57901 1.5178,2.83601 2.0145,746.24927 0.5024,751.89795 -0.5921,2.21196 -7.9179,7.84126 -24.726,19.00001 l -23.8846,15.85677 -165.5891,-0.31837 c -91.074,-0.17512 -216.5891,-0.63359 -278.9225,-1.01884 z m 455.737,-18.61387 c 7.8447,-5.10641 14.2631,-9.60642 14.2631,-10 0,-0.39358 -124.4869,-0.7156 -276.6374,-0.7156 H 297.2822 l -7.425,9 -7.4249,9.00001 41.0623,0.69569 c 22.5842,0.38264 143.9939,0.83264 269.7992,1 l 228.7369,0.30431 z M 289.2762,782.89512 c 1.0136,-3.29148 1.2725,-75.98008 0.8784,-246.6668 -0.3072,-133.10007 -0.604,-296.30015 -0.6594,-362.66685 l -0.1008,-120.66673 -4.8659,4.66667 c -2.6762,2.566668 -5.7147,6.286874 -6.7521,8.267125 -1.613,3.078816 -1.8823,56.588345 -1.8588,369.333525 l 0.027,365.73307 5.9471,-6.66667 c 3.2709,-3.66667 6.5937,-8.76667 7.3841,-11.33334 z M 863.5605,542.56166 863.2235,303.56154 H 582.0921 300.9607 l -0.2019,239.00015 -0.202,239.00016 281.6703,-4e-5 281.6704,-2e-5 z M 717.8838,757.56177 c -2.89,-0.50374 -4.0722,-1.6442 -4.8375,-4.66667 -0.557,-2.2 -0.5951,-43.00002 -0.084,-90.66671 l 0.9284,-86.66671 57.8461,-0.34763 c 41.598,-0.24999 58.3575,0.0768 59.6667,1.16325 1.5052,1.24926 1.817,16.77912 1.8001,89.68101 -0.011,48.49357 -0.4884,88.90683 -1.0605,89.80726 -0.788,1.24058 -14.289,1.72502 -55.7371,2 -30.0833,0.19958 -56.4181,0.0629 -58.5217,-0.3038 z m 104.673,-91.36525 v -80.63484 h -50 -50 v 80.44448 c 0,44.24448 0.2496,80.6945 0.5545,81.00005 0.305,0.30556 22.805,0.39121 50,0.19036 l 49.4455,-0.36522 z m -495.3949,89.68557 c -0.3545,-0.92381 -0.4857,-20.27382 -0.2915,-43.00002 l 0.3531,-41.32034 41.1732,-0.35286 c 29.2695,-0.25084 41.7013,0.0855 43,1.16327 2.4949,2.07062 2.7094,81.10704 0.2268,83.58963 -2.365,2.36502 -83.5529,2.28843 -84.4616,-0.0797 z m 75.3949,-41.65367 v -32.66669 h -32.6666 -32.6667 v 32.66669 32.66668 h 32.6667 32.6666 z m 20.314,42.23305 c -1.3129,-0.84179 -1.6079,-10.35398 -1.3333,-42.99036 l 0.3527,-41.90938 41.4878,-0.35208 c 34.0279,-0.28878 41.7633,-0.0203 43.0195,1.49347 1.0978,1.32277 1.4318,13.50862 1.1789,43.01876 l -0.3529,41.17323 -41.3333,0.32366 c -22.7334,0.17802 -42.0921,-0.16277 -43.0194,-0.7573 z m 74.3527,-42.23305 v -32.66669 h -32.6667 -32.6666 v 32.66669 32.66668 h 32.6666 32.6667 z m 19.0787,41.66669 c -1.6629,-2.56933 -2.1378,-77.12753 -0.5184,-81.38689 l 1.3737,-3.61316 h 41.0997 c 30.1886,0 41.5244,0.42476 42.6996,1.6 2.2863,2.28628 2.2863,81.18043 0,83.46671 -2.3497,2.34971 -83.1319,2.2861 -84.6546,-0.0667 z m 75.588,-41.66669 v -32.66669 h -33.3334 -33.3333 v 32.66669 32.66668 h 33.3333 33.3334 z m 19.2717,41.65367 c -0.3545,-0.92381 -0.4856,-20.27382 -0.2915,-43.00002 l 0.3531,-41.32034 41.1732,-0.35286 c 29.2695,-0.25084 41.7014,0.0855 43,1.16327 2.4949,2.07062 2.7094,81.10704 0.2268,83.58963 -2.365,2.36502 -83.5528,2.28843 -84.4616,-0.0797 z m 75.3949,-41.65367 v -32.66669 h -33.3333 -33.3333 v 31.77779 c 0,17.4778 0.4,32.17781 0.8889,32.66669 0.4888,0.48889 15.4888,0.88889 33.3333,0.88889 h 32.4444 z M 327.4457,660.67283 c -0.4889,-0.48888 -0.8889,-19.6247 -0.8889,-42.52404 0,-36.73582 0.2482,-41.73038 2.1091,-42.44446 1.16,-0.44513 19.94,-0.80932 41.7333,-0.80932 29.0411,0 40.0516,0.42735 41.2243,1.6 2.2863,2.28628 2.2863,81.18043 0,83.46671 -1.1748,1.1748 -12.4543,1.6 -42.4444,1.6 -22.4645,0 -41.2445,-0.4 -41.7334,-0.88889 z m 75.1111,-42.44446 v -32.66669 h -32.6666 -32.6667 v 32.66669 32.66668 h 32.6667 32.6666 z m 19.574,42.46287 c -0.499,-0.49901 -0.9073,-19.64311 -0.9073,-42.54245 0,-36.73582 0.2482,-41.73038 2.1091,-42.44446 1.1599,-0.44513 19.9865,-0.80932 41.8367,-0.80932 32.0129,0 40.0221,0.35475 41.2438,1.8268 1.0778,1.29866 1.4141,13.73048 1.1633,43.00002 l -0.3529,41.17323 -42.0927,0.35173 c -23.151,0.19345 -42.501,-0.0565 -43,-0.55555 z m 75.0927,-42.46287 v -32.66669 h -32.6667 -32.6666 v 32.66669 32.66668 h 32.6666 32.6667 z m 19.0787,41.66668 c -1.6629,-2.56932 -2.1378,-77.12752 -0.5184,-81.38688 l 1.3737,-3.61316 h 41.0997 c 30.1886,0 41.5244,0.42476 42.6996,1.6 2.2863,2.28628 2.2863,81.18043 0,83.46671 -2.3497,2.34971 -83.1319,2.2861 -84.6546,-0.0667 z m 75.588,-41.66668 v -32.66669 h -33.3334 -33.3333 v 32.66669 32.66668 h 33.3333 33.3334 z m 19.2717,41.65367 c -0.3545,-0.92381 -0.4856,-20.27382 -0.2915,-43.00002 l 0.3531,-41.32034 41.1732,-0.35286 c 29.2695,-0.25084 41.7014,0.0855 43,1.16327 2.4949,2.07062 2.7094,81.10704 0.2268,83.58963 -2.365,2.36502 -83.5528,2.28843 -84.4616,-0.0797 z m 75.3949,-41.65367 v -32.66669 h -33.3333 -33.3333 v 32.66669 32.66668 h 33.3333 33.3333 z M 328.0339,565.06821 c -1.0778,-1.29866 -1.4141,-13.73048 -1.1633,-43.00003 l 0.3529,-41.17322 41.1732,-0.35285 c 29.2695,-0.25084 41.7013,0.0855 43,1.16327 2.4949,2.07061 2.7094,81.10704 0.2268,83.58963 -2.4826,2.48258 -81.519,2.26813 -83.5896,-0.2268 z m 74.5229,-41.50656 v -32.66668 h -32.6666 -32.6667 v 32.66668 32.66668 h 32.6667 32.6666 z m 20.314,42.2223 c -1.3131,-0.83353 -1.608,-10.33883 -1.3333,-42.97961 l 0.3527,-41.90938 40,-0.37333 c 22,-0.20534 41.35,-0.0439 43,0.35873 l 3,0.73207 v 41.04129 c 0,30.14323 -0.4249,41.46615 -1.6,42.64129 -1.8543,1.85425 -80.5419,2.31546 -83.4194,0.48894 z m 74.3527,-42.2223 v -32.66668 h -32.6667 -32.6666 v 32.66668 32.66668 h 32.6666 32.6667 z m 18.5323,39.66669 c -1.6444,-4.30144 -1.1444,-78.72088 0.5464,-81.33338 1.5227,-2.35276 82.3049,-2.41637 84.6546,-0.0667 2.2863,2.28628 2.2863,81.18042 0,83.46671 -1.1752,1.17524 -12.511,1.6 -42.6996,1.6 h -41.0997 z m 76.1344,-39.66669 v -32.66668 h -33.3334 -33.3333 v 32.66668 32.66668 h 33.3333 33.3334 z m 19.2717,41.65368 c -0.3545,-0.92382 -0.4856,-20.27383 -0.2915,-43.00003 l 0.3531,-41.32034 41.1732,-0.35285 c 29.2695,-0.25084 41.7014,0.0855 43,1.16327 2.4949,2.07061 2.7094,81.10704 0.2268,83.58963 -2.365,2.36501 -83.5528,2.28842 -84.4616,-0.0797 z m 75.3949,-41.67697 v -32.68998 l -33,0.35663 -33,0.35662 -0.2723,32.33335 -0.2723,32.33335 h 33.2723 33.2723 z m 27.5693,42.48146 c -0.4964,-0.49643 -0.9026,-19.63841 -0.9026,-42.53774 0,-36.73582 0.2482,-41.73038 2.1091,-42.44447 1.1599,-0.44513 27.4865,-0.80932 58.5034,-0.80932 46.1254,0 56.6704,0.33264 57.9104,1.82681 1.0778,1.29865 1.4141,13.73047 1.1633,43.00002 l -0.3529,41.17322 -58.764,0.34704 c -32.3203,0.19087 -59.1703,-0.0592 -59.6667,-0.55556 z m 108.4307,-42.45817 v -32.66668 h -49.3333 -49.3333 v 32.66668 32.66668 h 49.3333 49.3333 z M 715.3596,472.84057 c -1.8638,-1.86384 -2.1361,-7.20996 -2.1361,-41.94563 0,-34.41272 0.2841,-40.0936 2.0953,-41.90479 1.8388,-1.83881 9.0072,-2.09524 58.5714,-2.09524 49.5642,0 56.7326,0.25643 58.5714,2.09524 1.8116,1.8116 2.0925,7.45219 2.0748,41.66669 -0.012,22.58863 -0.5627,40.42978 -1.2839,41.57145 -1.085,1.71737 -9.3532,2.05288 -58.5102,2.37419 -51.0499,0.33366 -57.4778,0.14294 -59.3827,-1.76191 z m 108.2205,-42.27897 0.3567,-33.00002 h -50.0233 -50.0233 v 33.34958 33.34958 l 49.6666,-0.34956 49.6667,-0.34956 z m -496.2068,40.9095 c -0.4491,-1.17017 -0.8165,-20.00505 -0.8165,-41.85529 0,-32.01291 0.3548,-40.02212 1.8268,-41.24382 1.2987,-1.07778 13.7305,-1.4141 43,-1.16326 l 41.1732,0.35285 v 42.66669 42.66669 l -42.1835,0.35185 c -37.5975,0.31361 -42.2724,0.12053 -43,-1.77571 z m 76.2068,-40.9095 0.3567,-33.00002 h -33.3567 -33.3566 v 32.44446 c 0,17.84446 0.4104,32.85489 0.912,33.3565 0.5017,0.50163 15.3517,0.75163 33,0.55556 l 32.088,-0.35648 z m 18.4527,40.89097 c -1.4373,-3.74558 -0.9117,-79.20822 0.5709,-81.97864 1.3183,-2.46315 3.1901,-2.5781 41.6667,-2.5586 23.0256,0.012 41.1433,0.56154 42.2864,1.28338 1.6892,1.06667 2.0607,7.38083 2.3902,40.62778 0.2608,26.3135 -0.086,40.25508 -1.0469,42.04997 -1.3935,2.60368 -2.7057,2.68516 -43.2475,2.68516 -36.8957,0 -41.9056,-0.24792 -42.6198,-2.10905 z m 76.214,-40.89097 0.3566,-33.00002 h -33.3566 -33.3566 v 32.44446 c 0,17.84446 0.4104,32.85489 0.912,33.3565 0.5016,0.50163 15.3516,0.75163 33,0.55556 l 32.088,-0.35648 z m 18.5507,42.12954 c -0.499,-0.49901 -0.9073,-19.2873 -0.9073,-41.75176 0,-29.99014 0.4252,-41.26967 1.6,-42.44447 2.4826,-2.48259 81.5189,-2.26813 83.5896,0.2268 1.0777,1.29866 1.4141,13.73048 1.1632,43.00003 l -0.3528,41.17322 -42.0927,0.35173 c -23.151,0.19345 -42.501,-0.0565 -43,-0.55555 z m 75.0927,-41.7962 v -33.33336 h -32.6667 -32.6667 v 33.33336 33.33335 h 32.6667 32.6667 z m 19.5739,41.7962 c -0.499,-0.49901 -0.9073,-19.2873 -0.9073,-41.75176 0,-29.99014 0.4252,-41.26967 1.6,-42.44447 1.8543,-1.85425 80.5419,-2.31547 83.4194,-0.48894 1.3131,0.83353 1.608,10.33883 1.3333,42.97961 l -0.3527,41.90938 -42.0927,0.35173 c -23.151,0.19345 -42.501,-0.0565 -43,-0.55555 z m 75.1856,-10.75831 c 0.9512,-24.28921 1.1616,-47.03604 0.506,-54.70457 l -0.8264,-9.66668 h -32.5529 -32.5529 v 32.44446 c 0,17.84446 0.3616,32.80609 0.8036,33.24806 0.442,0.44199 15.142,0.85903 32.6667,0.92677 29.6641,0.11467 31.8695,-0.0404 31.9559,-2.24804 z M 330.2235,378.78811 c -2.0707,-1.2061 -2.3333,-3.79743 -2.3333,-23.02613 0,-15.07441 0.4868,-22.15394 1.6,-23.2671 2.2862,-2.28628 81.1804,-2.28628 83.4666,0 1.112,1.11194 1.6,8.14815 1.6,23.06668 0,14.91853 -0.488,21.95475 -1.6,23.06668 -2.0661,2.06615 -79.2045,2.2152 -82.7333,0.15987 z m 73.6667,-23.22655 v -14.00001 h -32.6667 -32.6667 v 14.00001 14.00001 h 32.6667 32.6667 z m 20.0469,22.08767 c -0.7711,-1.4407 -1.3803,-11.18965 -1.3803,-22.08767 0,-10.89802 0.6092,-20.64697 1.3803,-22.08766 1.3179,-2.46259 3.202,-2.57902 41.7333,-2.57902 29.608,0 40.7791,0.42604 41.9531,1.6 2.2429,2.24288 2.2429,43.89048 0,46.13336 -1.174,1.17396 -12.3451,1.6 -41.9531,1.6 -38.5313,0 -40.4154,-0.1164 -41.7333,-2.57901 z m 75.6664,-22.421 0.38,-13.66668 h -33.38 -33.38 v 14.02331 14.0233 l 33,-0.35663 33,-0.35663 z m 19.22,23.40001 c -2.2429,-2.24288 -2.2429,-43.89048 0,-46.13336 2.2863,-2.28628 81.1804,-2.28628 83.4667,0 1.1133,1.11328 1.6,8.19699 1.6,23.28644 0,20.07613 -0.1915,21.78892 -2.579,23.06668 -3.8671,2.06959 -80.4023,1.86568 -82.4877,-0.21976 z m 74.4,-23.06668 v -14.00001 h -32.6667 -32.6666 v 14.00001 14.00001 h 32.6666 32.6667 z m 20.2667,23.06668 c -2.2429,-2.24288 -2.2429,-43.89048 0,-46.13336 2.2863,-2.28628 81.1804,-2.28628 83.4666,0 2.2429,2.24288 2.2429,43.89048 0,46.13336 -2.2862,2.28628 -81.1803,2.28628 -83.4666,0 z m 74.4,-23.06668 v -14.00001 h -32.6667 -32.6667 v 14.00001 14.00001 h 32.6667 32.6667 z m 27.6666,23.22655 c -2.0707,-1.2061 -2.3333,-3.79743 -2.3333,-23.02613 0,-15.07441 0.4869,-22.15394 1.6,-23.2671 1.1945,-1.19452 16.0381,-1.6 58.5714,-1.6 50.0145,0 57.2273,0.25586 59.0667,2.09524 3.0937,3.09367 3.0937,42.04921 0,45.14288 -1.8398,1.83986 -8.9499,2.0903 -58.3333,2.0547 -35.7112,-0.0257 -57.0898,-0.53661 -58.5715,-1.39959 z m 108.3334,-23.22655 v -14.00001 h -50 -50 v 14.00001 14.00001 h 50 50 z m 40,-187.33343 V 44.22807 H 582.5568 301.2235 l -0.1633,23.000012 c -0.1373,19.326522 -0.033,223.658338 0.1145,224.666778 0.027,0.18334 126.6488,0.33334 281.3821,0.33334 H 863.8902 Z M 328.6521,248.7996 c -1.8375,-1.83744 -2.0953,-8.90263 -2.0953,-57.42102 0,-35.58766 0.4924,-56.24587 1.3803,-57.90479 1.3572,-2.53603 5.6416,-2.57901 257.0666,-2.57901 197.0895,0 256.0532,0.36668 257.2865,1.6 1.1945,1.19456 1.6,16.04885 1.6,58.61979 0,55.00917 -0.091,57.06844 -2.579,58.40003 -1.7519,0.93757 -84.0379,1.38024 -256.5715,1.38024 -229.1244,0 -254.1975,-0.20515 -256.0876,-2.09524 z m 504.5714,-57.90479 v -49.33336 h -248 -248 v 49.33336 49.33336 h 248 248 z m -201.9827,-78.4327 c -2.9238,-0.23796 -5.7646,-1.13796 -6.3129,-2 -1.745,-2.74353 -1.2352,-46.836547 0.5623,-48.634031 2.3172,-2.317246 214.4827,-2.317246 216.8,0 2.3158,2.315832 2.2542,48.485871 -0.067,49.988001 -1.5474,1.0015 -199.1797,1.60665 -210.9827,0.64603 z M 833.2235,86.894759 V 70.894751 h -99.3333 -99.3334 v 16.000008 16.000011 h 99.3334 99.3333 z"
       id="path117" />
  </g>
</svg>
