<svg width="102" height="115" viewBox="0 0 102 115" fill="none" xmlns="http://www.w3.org/2000/svg">
<path d="M7.45237 96.2948C7.28393 96.2527 7.14612 96.2047 7.14612 96.188C7.14612 96.134 38.3246 65.8304 38.3671 65.8431C38.3898 65.8499 40.9678 67.93 44.096 70.4657C47.2241 73.0014 49.887 75.1403 50.0135 75.2189C50.5184 75.5328 51.2755 75.5647 51.8475 75.2963C52.0096 75.2202 54.2242 73.4563 57.8809 70.4909L63.6581 65.8057L64.1529 66.2848C69.0121 70.9898 94.8561 96.1557 94.8561 96.1824C94.8561 96.2027 94.7041 96.256 94.5183 96.3008C94.2046 96.3765 91.1128 96.3819 50.9696 96.3768C11.9742 96.3719 7.72874 96.3639 7.45237 96.2948ZM4.31098 93.3863C4.15197 92.9662 4.15189 92.951 4.16681 65.8308C4.18134 39.4406 4.18341 38.924 4.27595 38.6216C4.34185 38.4063 4.39024 38.3211 4.43653 38.3388C4.52555 38.373 35.315 63.3231 35.3184 63.3638C35.3206 63.3892 6.77286 91.1823 4.85616 93.0208C4.3765 93.4809 4.35279 93.4968 4.31098 93.3863ZM82.1704 78.4501C73.6723 70.1815 66.7163 63.3989 66.7125 63.3776C66.7052 63.3365 97.5436 38.3173 97.6015 38.3173C97.6202 38.3173 97.6771 38.4441 97.728 38.5991C97.8183 38.8737 97.8209 39.5585 97.8341 65.8308C97.8465 90.6345 97.8412 92.8072 97.7674 93.112C97.7234 93.2942 97.6725 93.4524 97.6544 93.4636C97.6362 93.4748 90.6685 86.7187 82.1704 78.4501ZM29.1778 53.4461C17.1977 43.7373 7.39477 35.7817 7.39347 35.7669C7.3811 35.6252 8.26226 35.6223 51.0081 35.6223C83.1472 35.6223 94.1265 35.6365 94.3351 35.6784C94.4888 35.7093 94.6082 35.7511 94.6006 35.7713C94.579 35.8279 51.0508 71.0983 51.0024 71.0983C50.979 71.0983 41.1579 63.1548 29.1778 53.4461Z" fill="black"/>
<path d="M51 0.500244L7.26572 35.7502L94.7343 35.7502L51 0.500244Z" fill="black"/>
</svg>
