<?xml version="1.0" encoding="UTF-8" standalone="no"?>
<!-- Created with Inkscape (http://www.inkscape.org/) -->

<svg
   version="1.1"
   id="svg9"
   width="2000"
   height="2000"
   viewBox="0 0 2000 2000"
   sodipodi:docname="email1.svg"
   inkscape:version="1.1.1 (3bf5ae0d25, 2021-09-20)"
   xmlns:inkscape="http://www.inkscape.org/namespaces/inkscape"
   xmlns:sodipodi="http://sodipodi.sourceforge.net/DTD/sodipodi-0.dtd"
   xmlns="http://www.w3.org/2000/svg"
   xmlns:svg="http://www.w3.org/2000/svg">
  <defs
     id="defs13" />
  <sodipodi:namedview
     id="namedview11"
     pagecolor="#ffffff"
     bordercolor="#666666"
     borderopacity="1.0"
     inkscape:pageshadow="2"
     inkscape:pageopacity="0.0"
     inkscape:pagecheckerboard="0"
     showgrid="false"
     inkscape:zoom="0.4005"
     inkscape:cx="998.75156"
     inkscape:cy="1000"
     inkscape:window-width="1920"
     inkscape:window-height="1009"
     inkscape:window-x="-8"
     inkscape:window-y="-8"
     inkscape:window-maximized="1"
     inkscape:current-layer="g15" />
  <g
     inkscape:groupmode="layer"
     inkscape:label="Image"
     id="g15">
    <path
       style="fill:#000000"
       d="m 111.27366,1618.2558 c -3.4375,-0.859 -6.25,-1.8398 -6.25,-2.1795 0,-1.1023 636.29547,-619.54256 637.16345,-619.28376 0.46267,0.1379 53.07443,42.59026 116.91502,94.33856 63.8406,51.7483 118.18533,95.4005 120.76608,97.0047 10.30386,6.4053 25.75509,7.0568 37.42889,1.5782 3.3081,-1.5525 48.5038,-37.5494 123.1295,-98.0686 l 117.9029,-95.61576 10.0971,9.77666 c 99.168,96.0216 626.5971,609.6108 626.5971,610.1551 0,0.414 -3.1019,1.5015 -6.8931,2.4166 -6.4037,1.5456 -69.5012,1.6557 -888.75002,1.5517 -795.82467,-0.1011 -882.46666,-0.2644 -888.10692,-1.6739 z m -64.110077,-59.3569 c -3.24512,-8.5745 -3.24674,-8.8835 -2.9421,-562.35716 0.29644,-538.57499 0.33873,-549.11943 2.2272,-555.28982 1.34493,-4.3944 2.33252,-6.13345 3.27726,-5.77092 1.81667,0.69712 630.173267,509.88214 630.242977,510.71364 0.0435,0.5187 -582.562797,567.72346 -621.679237,605.24486 -9.78896,9.3898 -10.27277,9.7142 -11.1261,7.4594 z M 1636.1318,1254.0787 C 1462.702,1085.332 1320.7417,946.91044 1320.6643,946.47524 c -0.149,-0.8384 629.2059,-511.43349 630.3883,-511.43349 0.3808,0 1.5426,2.5875 2.5818,5.75 1.8418,5.60542 1.8962,19.57974 2.1642,555.74999 0.2529,506.19836 0.1446,550.53826 -1.3599,556.75886 -0.8992,3.7174 -1.9375,6.946 -2.3075,7.1746 -0.3699,0.2287 -142.5697,-137.6497 -315.9994,-306.3965 z M 554.6504,743.79174 C 310.15855,545.65425 110.09814,383.29428 110.07171,382.99183 c -0.25256,-2.89048 17.73042,-2.95008 890.09539,-2.95008 655.8992,0 879.9679,0.29017 884.2248,1.14508 3.136,0.62979 5.5735,1.48246 5.4168,1.89483 -0.4394,1.15608 -888.7705,720.96004 -889.7579,720.96004 -0.47836,0 -200.90854,-162.11246 -445.4004,-360.24996 z"
       id="path99" />
  </g>
</svg>
