<?xml version="1.0" encoding="UTF-8" standalone="no"?>
<!-- Created with Inkscape (http://www.inkscape.org/) -->

<svg
   version="1.1"
   id="svg9"
   width="546.1333"
   height="546.1333"
   viewBox="0 0 546.1333 546.1333"
   sodipodi:docname="link.svg"
   inkscape:version="1.1.1 (3bf5ae0d25, 2021-09-20)"
   xmlns:inkscape="http://www.inkscape.org/namespaces/inkscape"
   xmlns:sodipodi="http://sodipodi.sourceforge.net/DTD/sodipodi-0.dtd"
   xmlns="http://www.w3.org/2000/svg"
   xmlns:svg="http://www.w3.org/2000/svg">
  <defs
     id="defs13" />
  <sodipodi:namedview
     id="namedview11"
     pagecolor="#ffffff"
     bordercolor="#666666"
     borderopacity="1.0"
     inkscape:pageshadow="2"
     inkscape:pageopacity="0.0"
     inkscape:pagecheckerboard="0"
     showgrid="false"
     inkscape:zoom="0.51854788"
     inkscape:cx="-92.566187"
     inkscape:cy="413.65515"
     inkscape:window-width="1920"
     inkscape:window-height="1009"
     inkscape:window-x="-8"
     inkscape:window-y="-8"
     inkscape:window-maximized="1"
     inkscape:current-layer="g15" />
  <g
     inkscape:groupmode="layer"
     inkscape:label="Image"
     id="g15">
    <path
       style="fill:#000000;stroke-width:1.06667"
       d="M 16.736148,544.73408 C 10.746958,542.585 6.466448,539.0467 3.2628475,533.59698 l -2.93745,-4.99696 V 322.73337 116.86671 l 2.8659,-4.87486 c 3.2266405,-5.4885 8.9330405,-9.83249 15.2674405,-11.62233 3.09401,-0.874244 39.59296,-1.118174 132.799982,-0.887534 l 128.53332,0.31806 4.26667,2.296194 c 5.48226,2.95039 8.40327,6.1326 11.11037,12.10381 6.57577,14.50464 -2.26124,31.14024 -18.14187,34.15194 -3.39628,0.6441 -48.22838,1.04805 -116.31408,1.04805 H 49.925398 V 322.73337 496.06669 H 223.25871 396.59204 V 385.27895 c 0,-68.0857 0.40395,-112.9178 1.04805,-116.31408 3.0117,-15.88063 19.6473,-24.71764 34.15194,-18.14187 5.97121,2.7071 9.15342,5.62811 12.10381,11.11037 l 2.29619,4.26667 0.31806,128.53332 c 0.23064,93.20703 -0.0133,129.70599 -0.88753,132.79999 -1.78983,6.3344 -6.13382,12.04079 -11.62233,15.26745 l -4.87486,2.86589 -204.26666,0.2255 C 59.733538,546.07448 19.853198,545.85259 16.736148,544.73408 Z M 217.38515,346.86285 c -7.54561,-2.46305 -13.02228,-7.07327 -16.62662,-13.99615 -2.77002,-5.32039 -2.60513,-15.2831 0.34425,-20.8 1.36755,-2.55804 53.78273,-55.73902 130.88767,-132.79999 L 460.59712,50.733376 388.86124,50.200046 c -70.3011,-0.52267 -71.83187,-0.57856 -76.53587,-2.794665 -9.11717,-4.295203 -14.15621,-12.389221 -14.19775,-22.805333 -0.0277,-6.968273 2.20659,-12.186611 7.47301,-17.4530274 7.46563,-7.46563703 2.06354,-7.15367903 118.34603,-6.83420403 l 104.54697,0.287232 5.221,3.22819803 c 3.23522,2.000369 6.44883,5.21398 8.44919,8.4492014 l 3.22821,5.221003 0.28723,104.546969 c 0.31948,116.28249 0.63143,110.8804 -6.83421,118.34603 -5.26641,5.26642 -10.48474,7.5008 -17.45302,7.47301 -10.41612,-0.0415 -18.51013,-5.08058 -22.80533,-14.19775 -2.21611,-4.704 -2.272,-6.23477 -2.79467,-76.53587 L 495.2587,85.394956 366.72537,214.00163 c -75.53598,75.57909 -130.2127,129.48138 -132.60627,130.7281 -4.60724,2.39971 -12.74093,3.43653 -16.73395,2.13312 z"
       id="path117" />
  </g>
</svg>
