<?xml version="1.0" encoding="UTF-8" standalone="no"?>
<!-- Created with Inkscape (http://www.inkscape.org/) -->

<svg
   version="1.1"
   id="svg459"
   width="813"
   height="758"
   viewBox="0 0 813 758"
   sodipodi:docname="logo.svg"
   inkscape:version="1.1.1 (3bf5ae0d25, 2021-09-20)"
   xmlns:inkscape="http://www.inkscape.org/namespaces/inkscape"
   xmlns:sodipodi="http://sodipodi.sourceforge.net/DTD/sodipodi-0.dtd"
   xmlns="http://www.w3.org/2000/svg"
   xmlns:svg="http://www.w3.org/2000/svg">
  <defs
     id="defs463" />
  <sodipodi:namedview
     id="namedview461"
     pagecolor="#ffffff"
     bordercolor="#666666"
     borderopacity="1.0"
     inkscape:pageshadow="2"
     inkscape:pageopacity="0.0"
     inkscape:pagecheckerboard="0"
     showgrid="false"
     inkscape:zoom="0.38433772"
     inkscape:cx="725.92406"
     inkscape:cy="654.3724"
     inkscape:window-width="1920"
     inkscape:window-height="1009"
     inkscape:window-x="-8"
     inkscape:window-y="-8"
     inkscape:window-maximized="1"
     inkscape:current-layer="g465" />
  <g
     inkscape:groupmode="layer"
     inkscape:label="Image"
     id="g465">
    <path
       style="fill:#000000"
       d="M 22.25,379.00001 V 37.49999 h 341 341 v 111 111 h -14.5 -14.5 v -96.5 -96.5 h -312 -312 v 312.50002 312.5 h 312 312 v -83.5 -83.5 h 14.5 14.5 v 98 98 h -341 -341 z m 260.4588,97.25 c -0.2631,-0.6875 -0.3615,-25.775 -0.2186,-55.75 l 0.2598,-54.5 11.6992,-0.2813 11.6991,-0.2813 0.3009,5.4912 0.3008,5.4912 5.0237,-3.3731 c 7.9146,-5.314 16.336,-7.7159 28.9763,-8.2645 19.246,-0.8353 32.3063,3.3488 41.3541,13.2485 6.5932,7.2141 9.1867,14.8213 9.2218,27.0499 0.056,19.3884 -8.9192,32.164 -26.4746,37.6858 -5.8833,1.8505 -9.4168,2.2336 -20.6013,2.2336 -11.5101,0 -14.5688,-0.3502 -20.7506,-2.3756 -3.9879,-1.3066 -9.3879,-3.8955 -12,-5.7531 l -4.7494,-3.3776 -0.2691,22.0032 -0.2692,22.0031 h -11.5122 c -8.288,0 -11.6463,-0.3501 -11.9907,-1.25 z m 71.2836,-52.3421 c 11.1255,-3.0971 16.5181,-13.7253 13.1392,-25.8962 -2.5979,-9.358 -12.3309,-13.8784 -29.8816,-13.8784 -17.9361,0 -27.3439,4.5117 -30.0085,14.3911 -2.7085,10.042 1.1934,19.9503 9.4255,23.9354 8.2972,4.0166 25.6765,4.6908 37.3254,1.4481 z m 45.7266,19.3719 c -0.2714,-0.7074 -0.3755,-18.3847 -0.2313,-39.283 l 0.2623,-37.9968 h 11.5 11.5 l 0.5,5.6893 0.5,5.6893 5.7791,-3.8082 c 8.9056,-5.8684 17.2298,-8.2308 30.7209,-8.7189 7.1665,-0.2592 13.7609,0.067 17.5,0.8663 l 6,1.2822 v 9.5 c 0,8.9068 -0.1249,9.4862 -2,9.2795 -1.1,-0.1213 -5.8919,-0.7115 -10.6487,-1.3116 -14.8661,-1.8753 -30.2314,1.362 -42.6071,8.9769 l -5.2084,3.2047 -0.2679,23.6752 -0.2679,23.6753 -11.2687,0.2829 c -8.471,0.2127 -11.3913,-0.036 -11.7623,-1.0031 z m 92.531,-38.2798 v -39.5635 l 11.75,0.2817 11.75,0.2818 0.2986,5.7065 0.2986,5.7065 5.2524,-3.36 c 10.7874,-6.9005 23.0289,-10.036 36.4816,-9.344 10.6739,0.5491 17.5444,3.3051 23.0038,9.2277 l 3.8808,4.2103 6.371,-3.8523 c 9.2668,-5.6033 20.4113,-8.8729 32.4506,-9.5204 16.2684,-0.875 26.2443,3.0353 32.4616,12.724 5.0319,7.8417 6.0762,15.5843 5.7691,42.7743 l -0.2681,23.7274 -11.6704,0.281 -11.6703,0.2811 -0.3297,-23.7811 c -0.2968,-21.4118 -0.5288,-24.1731 -2.3296,-27.7165 -2.821,-5.551 -6.1475,-7.6315 -13.2285,-8.2736 -9.2746,-0.841 -20.5013,2.5429 -29.5038,8.8929 l -2.7324,1.9272 -0.2676,24.1945 -0.2677,24.1945 -11.6574,0.2809 -11.6574,0.281 -0.3426,-23.781 c -0.3082,-21.3959 -0.5432,-24.1756 -2.3426,-27.7164 -1.1,-2.1645 -3.1686,-4.7884 -4.5969,-5.8309 -3.3272,-2.4285 -12.9115,-3.3265 -19.7808,-1.8533 -6.4201,1.3769 -16.6651,6.337 -20.3543,9.8545 l -2.732,2.6049 -0.268,23.0801 -0.268,23.0802 -11.75,0.2817 -11.75,0.2818 z m 180,-14 v -53.50002 h 11.486 11.4859 l 0.2641,31.35742 0.264,31.3573 28.1409,-17.3793 28.1408,-17.3794 19.3592,0.272 19.3591,0.272 -25.2648,15.9574 c -23.7494,15.0002 -25.159,16.0559 -23.5,17.6 0.9706,0.9035 11.9836,10.948 24.4733,22.321 12.4897,11.373 22.9787,21.1155 23.309,21.6499 0.3793,0.6138 -5.2222,0.9587 -15.2085,0.9364 l -15.809,-0.035 -10.0751,-9.2146 c -5.5413,-5.0681 -13.9581,-12.7387 -18.7039,-17.0457 l -8.6287,-7.831 -13.0462,7.8248 -13.0461,7.8248 v 9.2562 9.2562 h -11.5 -11.5 z"
       id="path626" />
  </g>
</svg>
