<?xml version="1.0" encoding="UTF-8" standalone="no"?>
<!-- Created with Inkscape (http://www.inkscape.org/) -->

<svg
   version="1.1"
   id="svg9"
   width="399"
   height="399"
   viewBox="0 0 399 399"
   sodipodi:docname="logo12.svg"
   inkscape:version="1.1.1 (3bf5ae0d25, 2021-09-20)"
   xmlns:inkscape="http://www.inkscape.org/namespaces/inkscape"
   xmlns:sodipodi="http://sodipodi.sourceforge.net/DTD/sodipodi-0.dtd"
   xmlns="http://www.w3.org/2000/svg"
   xmlns:svg="http://www.w3.org/2000/svg">
  <defs
     id="defs13" />
  <sodipodi:namedview
     id="namedview11"
     pagecolor="#ffffff"
     bordercolor="#666666"
     borderopacity="1.0"
     inkscape:pageshadow="2"
     inkscape:pageopacity="0.0"
     inkscape:pagecheckerboard="0"
     showgrid="false"
     inkscape:zoom="2.0075188"
     inkscape:cx="199.25094"
     inkscape:cy="199.5"
     inkscape:window-width="1920"
     inkscape:window-height="1009"
     inkscape:window-x="-8"
     inkscape:window-y="-8"
     inkscape:window-maximized="1"
     inkscape:current-layer="g15" />
  <g
     inkscape:groupmode="layer"
     inkscape:label="Image"
     id="g15">
    <path
       style="fill:#000000"
       d="M 2.25,199.5 V 2.9975 h 196.5 196.5 v 63.5 63.5 h -5 -5 v -58.5 -58.5 H 198.75 12.25 v 186.50263 186.50263 l 186.25,-0.25263 186.25,-0.25263 0.25908,-51.25 0.25908,-51.25 h 4.99925 4.99924 l -0.25832,56.25 -0.25833,56.25 L 198.5,395.75 2.25,396.0025 Z m 171,13.9975 v -24.5 h 4.5 c 3.83333,0 4.5,0.2963 4.5,2 0,2.49259 0.14655,2.48711 5.28984,-0.19779 3.27869,-1.71155 5.98011,-2.20851 12.21016,-2.24625 13.62246,-0.0825 19.59788,4.61742 20.32164,15.9839 0.51701,8.11955 -2.10541,13.52051 -8.0851,16.65149 -6.01627,3.15015 -18.44403,3.15699 -24.4467,0.0135 -2.31559,-1.21268 -4.45309,-2.20485 -4.75,-2.20485 -0.29691,0 -0.53984,4.275 -0.53984,9.5 v 9.5 h -4.5 -4.5 z m 32.28822,0.27978 c 3.29622,-1.24613 4.71178,-3.53909 4.71178,-7.63225 0,-4.29962 -0.89534,-6.04602 -3.87118,-7.55087 -6.48379,-3.27878 -18.09187,-2.50494 -21.66592,1.44434 -2.41635,2.67004 -2.30457,9.56178 0.19565,12.06199 3.43823,3.43823 13.75272,4.2766 20.62967,1.67679 z M 224.25,205.9975 v -17 h 5 c 4.66667,0 5,0.16667 5,2.5 0,1.375 0.17907,2.5 0.39793,2.5 0.21886,0 2.35636,-1.11347 4.75,-2.47439 5.16949,-2.93913 11.17442,-4.00428 17.35207,-3.07788 4.42708,0.66388 4.5,0.7365 4.5,4.48157 v 3.80676 l -7.76268,-0.05 c -6.32642,-0.0407 -8.82422,0.436 -13.5,2.57664 l -5.73732,2.62665 v 10.55533 10.55532 h -5 -5 z m 41,0 v -17 h 5 c 4.66667,0 5,0.16667 5,2.5 0,1.375 0.16832,2.5 0.37405,2.5 0.20572,0 2.34322,-1.09104 4.75,-2.42453 8.19765,-4.54198 18.34559,-4.57551 23.69025,-0.0783 l 2.82381,2.37608 5.15145,-2.54943 c 6.89955,-3.41455 16.39149,-4.14999 21.12563,-1.63683 5.77091,3.06356 7.08481,6.96686 7.08481,21.04741 v 12.2656 h -4.91395 -4.91394 l -0.33606,-11.58254 c -0.29254,-10.08299 -0.58736,-11.76606 -2.27718,-13 -2.87763,-2.10131 -9.53156,-1.7218 -14.59698,0.83254 l -4.46189,2.25 -0.28383,10.75 -0.28383,10.75 H 303.21617 298.25 v -11 c 0,-9.66667 -0.24242,-11.24242 -2,-13 -2.45353,-2.45353 -8.4931,-2.65646 -13.74552,-0.46186 -6.85055,2.86234 -7.25448,3.67621 -7.25448,14.61685 v 9.84501 h -5 -5 z m 80,-6.5 v -23.5 h 4.97254 4.97255 l 0.27745,14.01329 0.27746,14.0133 12.1573,-7.55524 12.1573,-7.55523 8.09398,0.29194 8.09398,0.29194 -10.50692,6.5 -10.50692,6.5 10.75564,10.2176 10.75564,10.21761 -6.84326,0.0324 -6.84326,0.0324 -7.98006,-7.41363 -7.98006,-7.41363 -5.92668,3.53051 c -5.61193,3.343 -5.92668,3.73671 -5.92668,7.41362 v 3.88312 h -5 -5 z"
       id="path99" />
  </g>
</svg>
