<?xml version="1.0" encoding="UTF-8" standalone="no"?>
<!-- Created with Inkscape (http://www.inkscape.org/) -->

<svg
   width="210mm"
   height="297mm"
   viewBox="0 0 210 297"
   version="1.1"
   id="svg5"
   sodipodi:docname="todo3.svg"
   inkscape:version="1.1.1 (3bf5ae0d25, 2021-09-20)"
   xmlns:inkscape="http://www.inkscape.org/namespaces/inkscape"
   xmlns:sodipodi="http://sodipodi.sourceforge.net/DTD/sodipodi-0.dtd"
   xmlns="http://www.w3.org/2000/svg"
   xmlns:svg="http://www.w3.org/2000/svg">
  <sodipodi:namedview
     id="namedview7"
     pagecolor="#ffffff"
     bordercolor="#666666"
     borderopacity="1.0"
     inkscape:pageshadow="2"
     inkscape:pageopacity="0.0"
     inkscape:pagecheckerboard="0"
     inkscape:document-units="mm"
     showgrid="false"
     inkscape:zoom="0.73406285"
     inkscape:cx="397.10496"
     inkscape:cy="561.94098"
     inkscape:window-width="1920"
     inkscape:window-height="1009"
     inkscape:window-x="-8"
     inkscape:window-y="-8"
     inkscape:window-maximized="1"
     inkscape:current-layer="layer1" />
  <defs
     id="defs2" />
  <g
     inkscape:label="Layer 1"
     inkscape:groupmode="layer"
     id="layer1">
    <path
       style="fill:#000000;stroke-width:0.352778"
       d="m 65.74552,183.56261 c -0.29755,-0.29755 -0.423334,-2.28914 -0.423334,-6.70278 v -6.27944 h -7.514167 c -5.373981,0 -7.63474,-0.12058 -7.9375,-0.42334 -0.616006,-0.616 -0.616006,-138.237317 0,-138.853317 0.615397,-0.6154 106.135161,-0.6154 106.750551,0 0.27931,0.2793 0.42334,1.77956 0.42334,4.40972 v 3.98639 h 5.75028 c 4.00206,0 5.87898,0.1287 6.17361,0.42333 0.32609,0.32609 0.42032,14.40613 0.41024,61.295137 l -0.0131,60.8718 -10.73746,10.84791 -10.73748,10.84792 h -40.86082 c -31.310272,0 -40.959774,-0.099 -41.28416,-0.42333 z m 80.71555,-4.9915 c 0,-1.42593 -0.10266,-3.80718 -0.22815,-5.29166 l -0.22815,-2.69906 H 107.07458 68.144408 v 5.29166 5.29167 h 39.158332 39.15833 z m 17.53677,-15.26599 c -0.11903,-0.11903 -3.55787,-0.0998 -7.64187,0.0427 l -7.42545,0.25914 v 3.60821 c 0,1.98451 0.10475,5.32029 0.23279,7.41285 l 0.23279,3.80464 7.40908,-7.45558 c 4.07499,-4.10057 7.31169,-7.55297 7.19266,-7.67199 z m -17.88954,1.3486 c 0,-1.9442 0.15821,-3.26266 0.42333,-3.52778 0.27447,-0.27447 1.70139,-0.42333 4.0579,-0.42333 h 3.63457 l -0.0892,-63.588187 -0.0891,-63.58819 h -50.8 -50.800003 l -0.0891,67.115957 -0.0891,67.11597 H 99.187943 146.1083 Z M 61.460196,144.56303 c -1.826169,-2.47361 -2.073713,-3.1836 -1.359121,-3.8982 0.801395,-0.80139 1.636425,-0.419 2.928428,1.34107 0.812552,1.10691 1.448173,1.66561 1.70574,1.4993 0.225805,-0.1458 2.605425,-1.73353 5.288045,-3.52828 2.682621,-1.79476 5.012844,-3.2632 5.178274,-3.2632 0.368831,0 1.409513,1.01068 1.409513,1.36888 0,0.612 -1.190885,1.55523 -6.444199,5.1041 -3.05924,2.06667 -5.874203,3.75758 -6.255473,3.75758 -0.447012,0 -1.317594,-0.84574 -2.451207,-2.38125 z m 20.867901,1.95993 c -0.576894,-0.57689 -0.53455,-1.18298 0.12901,-1.84654 0.494814,-0.49481 3.614043,-0.55437 29.036733,-0.55437 30.63828,0 29.8791,-0.0457 29.62088,1.78366 l -0.1217,0.86218 -29.11979,0.0902 c -22.356192,0.0693 -29.218571,-0.009 -29.545133,-0.33514 z m -0.002,-7.41035 c -0.574943,-0.57494 -0.531844,-1.18165 0.131032,-1.84452 0.488192,-0.4882 2.527477,-0.55437 17.084524,-0.55437 14.557047,0 16.596327,0.0662 17.084517,0.55437 0.65585,0.65584 0.66148,0.70299 0.18918,1.58549 -0.35323,0.66001 -0.91715,0.68236 -17.215552,0.68236 -12.63547,0 -16.956257,-0.10589 -17.273701,-0.42333 z M 61.452532,124.27955 c -1.99611,-2.83322 -2.163375,-3.90489 -0.63692,-4.08078 0.796211,-0.0918 1.15656,0.16596 2.096382,1.4993 0.624195,0.88555 1.265558,1.6101 1.425251,1.6101 0.159693,0 2.549221,-1.50813 5.310063,-3.35139 2.760842,-1.84327 5.29279,-3.35139 5.62655,-3.35139 0.704987,0 1.422414,1.14616 1.143294,1.82653 -0.255576,0.62297 -11.949397,8.40402 -12.63007,8.40402 -0.293412,0 -1.343959,-1.15037 -2.33455,-2.55639 z m 21.067571,2.17652 c -0.735894,-0.43001 -0.807357,-1.49272 -0.137746,-2.04845 0.349469,-0.29003 8.30858,-0.37355 29.330323,-0.30778 27.0364,0.0846 28.87521,0.12909 29.24011,0.70763 0.28401,0.45028 0.28401,0.78445 0,1.23472 -0.36498,0.57865 -2.1898,0.6223 -29.10236,0.69599 -19.068099,0.0522 -28.920343,-0.0426 -29.330327,-0.28211 z m -0.194028,-7.45179 c -0.541835,-0.54184 -0.541835,-1.43372 0,-1.97556 0.317444,-0.31744 4.638231,-0.42333 17.273701,-0.42333 16.298404,0 16.862324,0.0224 17.215554,0.68236 0.4723,0.8825 0.46667,0.92965 -0.18918,1.5855 -0.48832,0.48831 -2.53939,0.55436 -17.215551,0.55436 -12.488334,0 -16.767214,-0.10602 -17.084524,-0.42333 z m -19.284108,-12.8434 c -0.975187,-0.97518 -3.364225,-4.66186 -3.364225,-5.19155 0,-0.74134 0.928453,-1.386327 1.658765,-1.152327 0.34886,0.11178 1.11054,0.916057 1.692624,1.787297 0.582083,0.87123 1.249149,1.51518 1.482369,1.43098 0.23322,-0.0842 2.57059,-1.58974 5.194155,-3.345647 2.623566,-1.75592 5.086227,-3.19257 5.47258,-3.19257 1.08569,0 1.55754,1.19125 0.810359,2.04586 -0.669824,0.76613 -11.631985,8.184687 -12.094253,8.184687 -0.157106,0 -0.540674,-0.25503 -0.852374,-0.56673 z m 19.847491,0.32674 c -0.792946,-0.20872 -1.155661,-1.42442 -0.618204,-2.07202 0.368702,-0.44426 4.394708,-0.50199 29.574286,-0.42404 l 29.14748,0.0902 0.1217,0.86218 c 0.25851,1.83142 1.01131,1.78677 -29.38149,1.74273 -15.533643,-0.0225 -28.513343,-0.11209 -28.843772,-0.19907 z m 0.176491,-7.431777 c -0.934138,-0.16113 -1.38805,-1.33363 -0.793591,-2.04991 0.366455,-0.44155 2.860287,-0.50245 17.365073,-0.42404 15.918879,0.0861 16.960679,0.13 17.328319,0.73102 0.31924,0.52189 0.23456,0.76793 -0.4606,1.33824 -0.8244,0.67633 -1.36247,0.6962 -16.756939,0.61875 -8.747856,-0.044 -16.254872,-0.14033 -16.682262,-0.21406 z M 61.469935,83.802463 c -1.874266,-2.57688 -2.067839,-3.11642 -1.36886,-3.8154 0.80042,-0.80042 1.635857,-0.41977 2.920941,1.33086 l 1.287699,1.7542 5.287118,-3.53603 c 3.672237,-2.45599 5.487052,-3.47256 5.941701,-3.32826 0.751252,0.23843 1.136787,1.0141 0.861114,1.73249 -0.252347,0.65761 -11.819111,8.32618 -12.558651,8.32618 -0.318378,0 -1.385356,-1.10882 -2.371062,-2.46404 z m 20.85614,2.04071 c -0.574943,-0.57495 -0.531844,-1.18165 0.131032,-1.84453 0.494785,-0.49478 3.606247,-0.55436 28.950963,-0.55436 18.89987,0 28.62482,0.12213 29.07897,0.36519 0.82267,0.44027 0.90598,1.94296 0.12435,2.2429 -0.30691,0.11777 -13.45141,0.21413 -29.21001,0.21413 -21.814492,0 -28.752996,-0.10102 -29.075305,-0.42333 z m 0,-7.40834 c -0.574943,-0.57494 -0.531844,-1.18165 0.131032,-1.84452 0.488192,-0.48819 2.527477,-0.55436 17.084524,-0.55436 14.557049,0 16.596329,0.0662 17.084519,0.55436 0.65585,0.65585 0.66148,0.703 0.18918,1.58549 -0.35323,0.66002 -0.91715,0.68237 -17.215554,0.68237 -12.63547,0 -16.956257,-0.10589 -17.273701,-0.42334 z m -20.860401,-14.8144 c -1.959471,-2.78122 -2.162576,-3.58693 -1.053776,-4.18035 0.640272,-0.34266 0.910952,-0.2014 2.116667,1.10462 0.76038,0.82364 1.38251,1.62987 1.38251,1.79161 0,0.64816 0.923062,0.15618 5.736233,-3.05731 2.760842,-1.84326 5.29279,-3.35139 5.62655,-3.35139 0.704987,0 1.422414,1.14616 1.143294,1.82653 -0.255576,0.62298 -11.949397,8.40403 -12.63007,8.40403 -0.293412,0 -1.338045,-1.14198 -2.321408,-2.53774 z m 20.99349,1.98543 c -0.68326,-0.68326 -0.710561,-1.35004 -0.07681,-1.87601 0.349469,-0.29004 8.30858,-0.37356 29.330326,-0.30778 27.0364,0.0846 28.87521,0.12909 29.24011,0.70763 0.28401,0.45027 0.28401,0.78444 0,1.23472 -0.36489,0.57851 -2.20004,0.62304 -29.16331,0.70761 -25.810355,0.081 -28.831205,0.0329 -29.330319,-0.46617 z m 0.06094,-7.23706 c -0.713013,-0.41529 -0.808066,-1.40382 -0.194028,-2.01785 0.609741,-0.60975 33.821364,-0.60975 34.431114,0 0.63565,0.63565 0.51001,1.62212 -0.25904,2.0337 -0.92761,0.49644 -33.124281,0.48142 -33.978046,-0.0159 z M 166.56941,101.43594 V 42.522063 h -4.7625 -4.7625 v 58.913877 58.91389 h 4.7625 4.7625 z"
       id="path1732" />
  </g>
</svg>
