<?xml version="1.0" encoding="UTF-8" standalone="no"?>
<!-- Created with Inkscape (http://www.inkscape.org/) -->

<svg
   version="1.1"
   id="svg9"
   width="1333.3333"
   height="1333.3333"
   viewBox="0 0 1333.3333 1333.3333"
   sodipodi:docname="wavy_lines_square.svg"
   inkscape:version="1.1.1 (3bf5ae0d25, 2021-09-20)"
   xmlns:inkscape="http://www.inkscape.org/namespaces/inkscape"
   xmlns:sodipodi="http://sodipodi.sourceforge.net/DTD/sodipodi-0.dtd"
   xmlns="http://www.w3.org/2000/svg"
   xmlns:svg="http://www.w3.org/2000/svg">
  <defs
     id="defs13" />
  <sodipodi:namedview
     id="namedview11"
     pagecolor="#ffffff"
     bordercolor="#666666"
     borderopacity="1.0"
     inkscape:pageshadow="2"
     inkscape:pageopacity="0.0"
     inkscape:pagecheckerboard="0"
     showgrid="false"
     inkscape:zoom="0.42479442"
     inkscape:cx="620.30004"
     inkscape:cy="577.92661"
     inkscape:window-width="1920"
     inkscape:window-height="1009"
     inkscape:window-x="-8"
     inkscape:window-y="-8"
     inkscape:window-maximized="1"
     inkscape:current-layer="g15" />
  <g
     inkscape:groupmode="layer"
     inkscape:label="Image"
     id="g15">
    <path
       style="fill:#ffffff;stroke-width:1.33333"
       d="m 4.7081751,1336.5458 c 0,-3.154 1.6266,-5.149 8.9999999,-11.0382 38.0077,-30.3568 76.2874,-51.6265 142.333305,-79.0857 49.2399,-20.4719 75.9131,-32.8147 101.3333,-46.8909 45.0181,-24.9283 94.1303,-64.9849 138,-112.5546 20.5222,-22.253 32.1959,-36.4588 56.5333,-68.7954 21.234,-28.21302 25.2068,-33.79446 45.285,-63.61989 20.9112,-31.06293 59.1018,-90.93814 62.6136,-98.16556 0.5345,-1.1 3.6257,-6.2 6.8694,-11.33333 3.2437,-5.13333 7.8294,-12.63333 10.1904,-16.66667 2.3609,-4.03333 8.5987,-14.53333 13.8615,-23.33333 25.0052,-41.81072 50.8584,-86.09194 65.0013,-111.33333 1.4381,-2.56667 5.9407,-10.36667 10.0058,-17.33333 6.562,-11.24572 20.0034,-34.58855 23.033,-40 5.3957,-9.6378 21.3636,-36.99025 25.4728,-43.63399 2.8237,-4.56536 5.1339,-8.55709 5.1339,-8.87053 0,-0.31344 4.8,-8.52348 10.6667,-18.24453 5.8667,-9.72107 10.6667,-17.85698 10.6667,-18.07982 0,-0.22284 6.0703,-10.4775 13.4897,-22.78814 7.4193,-12.31064 16.4977,-27.48299 20.1742,-33.71632 3.6766,-6.23334 8.2562,-13.83284 10.177,-16.88779 1.9208,-3.05494 6.1924,-9.90774 9.4924,-15.22844 3.3,-5.32069 9.45,-14.98802 13.6667,-21.48296 4.2166,-6.49493 7.6666,-12.11786 7.6666,-12.49542 0,-0.37756 2.4,-3.86526 5.3334,-7.75043 2.9333,-3.88516 5.3333,-7.39585 5.3333,-7.80152 0,-0.92395 21.6945,-33.04348 36.9768,-54.74553 4.6992,-6.6732 36.6924,-50.15804 39.931,-54.27373 6.2476,-7.93978 31.4258,-37.64302 35.7589,-42.18558 2.9333,-3.07514 11.0333,-11.71633 18,-19.20264 6.9666,-7.48629 20.7666,-20.56653 30.6666,-29.06718 9.9,-8.50067 18.30002,-15.78931 18.66672,-16.197 0.8161,-0.9074 17.513,-14.81925 21.6216,-18.01511 29.4987,-22.94541 74.0958,-47.84183 125.7117,-70.17883 11.7334,-5.07764 22.5334,-9.78852 24,-10.468619 1.4667,-0.6801 10.4667,-4.640741 20,-8.801426 18.9103,-8.253114 54.7349,-25.862309 65.3334,-32.113873 3.6666,-2.162808 7.5666,-4.355697 8.6666,-4.873085 7.5062,-3.530546 38.4064,-25.284644 54.6372,-38.465153 2.6554,-2.1564016 6.2528,-3.7656746 8.4178,-3.7656746 3.4616,0 3.7454,0.365378 3.3628,4.3298456 -0.3495,3.622159 -2.2122,5.766299 -11.3968,13.118504 -29.6774,23.756509 -69.7929,46.786186 -117.1986,67.28184 -7.969,3.445345 -17.0061,7.390512 -20.0825,8.767041 -3.0765,1.37652 -5.8831,2.50277 -6.237,2.50277 -0.9119,0 -34.4465,14.39823 -53.7947,23.09694 -29.565,13.29206 -66.2799,34.18435 -86.7279,49.35178 -76.37162,56.64906 -132.14102,119.72494 -208.85522,236.21794 -8.6926,13.2 -16.8225,25.5 -18.0665,27.33333 -1.2439,1.83333 -6.3371,9.93333 -11.3181,18 -4.981,8.06667 -11.6853,18.70948 -14.8985,23.65068 -3.2131,4.94121 -5.842,9.30045 -5.842,9.68718 0,0.38674 -2.022,3.84394 -4.4934,7.68264 -2.4714,3.83872 -8.9214,14.40251 -14.3333,23.47507 -5.412,9.07257 -11.1757,18.67257 -12.8082,21.33333 -1.6326,2.66078 -4.2639,7.23776 -5.8475,10.1711 -1.5836,2.93333 -7.277,12.60056 -12.6519,21.48272 -5.375,8.88217 -14.2036,23.88217 -19.6191,33.33333 -10.7394,18.74262 -22.2091,38.59022 -30.7342,53.18394 -2.9987,5.13334 -6.5944,11.43334 -7.9904,14 -2.4923,4.58231 -9.7078,17.10258 -34.0359,59.05919 -6.7161,11.58256 -13.2584,22.98256 -14.5386,25.33333 -3.5031,6.43292 -33.6195,57.11517 -36.2121,60.94081 -1.2425,1.83334 -4.0117,6.63334 -6.1537,10.66667 -2.1421,4.03333 -4.258,7.63333 -4.7022,8 -0.4442,0.36667 -5.2937,8.16667 -10.7768,17.33333 -13.2451,22.14315 -34.4458,56.16436 -36.5606,58.66964 -0.9299,1.10164 -2.4823,3.51349 -3.4497,5.35968 -2.088,3.98443 -44.1403,66.75107 -51.7921,77.30401 -2.9245,4.03332 -7.6816,10.63332 -10.5713,14.66662 -14.2199,19.8479 -36.7273,48.1458 -57.2666,72.0001 -13.1366,15.2567 -45.5527,46.9553 -64.7957,63.3616 -10.2667,8.7532 -18.9667,16.262 -19.3333,16.6863 -4.3148,4.9925 -40.9582,29.8861 -61.3334,41.6666 -10.3297,5.9724 -58.9555,30.2855 -60.5706,30.2855 -0.376,0 -3.8514,1.4349 -7.7232,3.1887 -3.8717,1.7537 -15.4395,6.7965 -25.7062,11.2061 -74.892905,32.1669 -115.527705,55.1399 -152.008805,85.9385 -2.7094,2.2874 -5.907,3.6667 -8.5004999,3.6667 -3.6943,0 -4.1573,-0.4288 -4.1573,-3.8498 z m 48.6665999,0.4738 c 4.1432,-3.3975 29.0244,-18.9394 45.3334,-28.3172 17.267305,-9.9288 54.208805,-27.7386 109.333305,-52.7104 19.5923,-8.8755 57.9858,-28.8665 73.3333,-38.1838 43.2419,-26.2516 72.1374,-49.7412 117.1013,-95.1934 17.0892,-17.2748 44.9091,-49.0632 55.5654,-63.492 1.8333,-2.4823 5.1333,-6.7244 7.3333,-9.4269 2.2,-2.7024 5.8,-7.4194 8,-10.4822 2.2,-3.0628 6.6223,-8.9998 9.8272,-13.1934 5.4705,-7.1582 12.2448,-16.7242 24.8723,-35.12239 2.9513,-4.30013 6.1202,-8.87231 7.042,-10.16039 0.9217,-1.28809 5.9821,-8.94197 11.2452,-17.00864 5.2632,-8.06666 9.9167,-14.96666 10.3412,-15.33333 0.4244,-0.36667 6.3894,-9.66667 13.2554,-20.66667 6.866,-11 14.9876,-23.9 18.0482,-28.66666 3.0605,-4.76667 5.9863,-9.56667 6.5017,-10.66667 0.5154,-1.1 3.4713,-6.03505 6.5687,-10.96679 6.7957,-10.82054 35.8979,-59.17447 46.7643,-77.69987 10.7212,-18.27803 11.8274,-20.19811 16.899,-29.33334 2.4428,-4.4 5.4434,-9.5 6.668,-11.33333 1.2246,-1.83333 4.0457,-6.63333 6.269,-10.66667 2.2233,-4.03333 9.6187,-16.93333 16.4341,-28.66666 6.8155,-11.73333 13.7195,-23.73333 15.3422,-26.66667 1.6228,-2.93333 9.4103,-16.43333 17.3057,-30 7.8954,-13.56666 15.3741,-26.46666 16.6193,-28.66666 1.2452,-2.2 5.2788,-9.1 8.9635,-15.33334 7.9163,-13.39198 21.6733,-36.88018 23.8184,-40.66666 4.0758,-7.19467 11.4334,-19.67088 16.9056,-28.66667 3.3458,-5.5 10.1712,-16.89812 15.1677,-25.32917 32.2405,-54.40242 87.6901,-138.35241 117.5731,-178.00416 6.0298,-8.00093 20.2957,-26.07618 21.5728,-27.33333 0.3725,-0.36666 2.3148,-2.86473 4.3162,-5.55125 2.0014,-2.68652 4.4148,-5.68652 5.3633,-6.66667 0.9484,-0.98014 6.2012,-7.18208 11.673,-13.78208 13.3148,-16.0604 49.1646,-51.89582 67.30962,-67.2828 8.0667,-6.84053 15.2689,-13.1003 16.005,-13.9106 5.4072,-5.95251 49.012,-36.21941 59.4539,-41.26814 1.031,-0.49845 4.5744,-2.45695 7.8744,-4.3522 9.4517,-5.42831 36.5247,-18.9056 43.5865,-21.69796 3.5274,-1.3948 9.7135,-4.04744 13.7469,-5.89474 7.8531,-3.5968 9.1064,-4.1036 42.6666,-17.25413 63.3114,-24.808422 110.4517,-47.817223 136.6667,-66.705879 l 5.3333,-3.842818 0.4018,7.502152 c 0.3468,6.473622 -0.019,7.852862 -2.6666,10.060277 -1.6877,1.40697 -3.5068,2.57809 -4.0426,2.602488 -0.5358,0.0244 -4.33,2.191069 -8.4316,4.814829 -18.6315,11.918449 -56.8112,29.345661 -102.1722,46.636791 -56.5402,21.55251 -76.6915,29.84455 -100.4891,41.35002 -10.2298,4.94584 -23.2972,11.89874 -29.0386,15.4509 -5.7414,3.55216 -10.7538,6.45848 -11.1386,6.45848 -1.2875,0 -30.2457,20.27756 -39.7244,27.81655 -39.7098,31.58333 -78.50882,70.42696 -110.72292,110.85012 -4.383,5.5 -8.328,10.3 -8.7665,10.66666 -0.4386,0.36667 -7.2357,9.36667 -15.1047,20 -7.869,10.63333 -15.5781,21.01832 -17.1313,23.07775 -3.5248,4.67364 -6.567,9.12676 -29.1222,42.62993 -20.9791,31.16196 -31.7844,47.75503 -44.4717,68.29232 -4.9834,8.06666 -11.4807,18.45962 -14.4385,23.09548 -5.4385,8.52373 -7.5272,12.04002 -13.6059,22.90452 -1.8463,3.3 -7.8728,13.2 -13.3921,22 -5.5194,8.8 -10.4252,16.9 -10.9019,18 -0.4767,1.1 -5.1663,9.2 -10.4214,18 -8.8728,14.85807 -26.9288,45.87345 -32.9893,56.66666 -1.4412,2.56667 -9.9474,17.26667 -18.9028,32.66667 -8.9553,15.4 -22.4614,38.8 -30.0135,52 -11.7201,20.48509 -20.4503,35.48819 -26.0467,44.76222 -0.7333,1.21523 -2.7666,4.84087 -4.5184,8.05697 -1.7518,3.21611 -8.5644,14.84747 -15.1392,25.84747 -6.5748,11 -14.401,24.2 -17.3915,29.33333 -2.9905,5.13334 -6.1405,10.23334 -7,11.33334 -0.8595,1.1 -3.2852,5.3 -5.3903,9.33333 -2.1051,4.03333 -5.1154,9.13333 -6.6896,11.33333 -1.5741,2.2 -7.5325,11.8 -13.2409,21.33333 -5.7083,9.53334 -16.2854,26.53643 -23.5045,37.78466 -7.2191,11.24822 -13.1256,20.94822 -13.1256,21.55554 0,0.60734 -0.5074,1.30424 -1.1277,1.5487 -0.9295,0.36634 -16.088,22.64365 -20.8723,30.67454 -7.4549,12.51363 -58.4967,80.86598 -74.0607,99.17788 -18.8853,22.2195 -19.8154,23.2223 -42.5974,45.9254 -33.8817,33.7643 -51.8075,49.9098 -69.8538,62.9164 -29.3999,21.1893 -64.2525,42.1469 -95.4881,57.4186 -20.0008,9.7789 -49.4876,23.665 -50.2519,23.665 -0.33,0 -15.4084,7.2279 -33.5074,16.0621 -34.7265,16.95 -50.900305,25.6735 -73.217705,39.4907 -12.3144,7.6242 -14.328,8.4425 -20.6667,8.3993 l -7.0229,-0.048 3.9999,-3.2802 z m 50.538905,1.1724 c 2.1296,-1.1533 6.9296,-3.8477 10.6666,-5.9875 7.5052,-4.2976 68.4479,-34.4756 69.6213,-34.4756 0.4052,0 18.535,-8.763 40.2883,-19.4733 61.5604,-30.3094 88.1864,-46.5387 129.5516,-78.9655 26.5825,-20.8385 59.7024,-52.9245 93.1542,-90.2461 13.7434,-15.3334 50.7466,-63.17 63.9162,-82.629 4.2881,-6.336 17.1683,-24.7952 18.6207,-26.68612 2.0754,-2.70217 19.9056,-30.01641 34.8889,-53.4466 8.481,-13.26229 16.1624,-25.26229 17.0697,-26.66666 0.9073,-1.40438 2.6361,-4.3534 3.8418,-6.5534 1.2056,-2.2 4.7273,-7.9 7.826,-12.66667 4.8041,-7.39004 12.9049,-20.75847 28.6825,-47.33318 1.8333,-3.08795 6.9333,-11.81016 11.3333,-19.3827 4.4,-7.57253 9.3225,-15.9093 10.9389,-18.52617 1.6163,-2.61688 4.9725,-8.35795 7.458,-12.75795 2.4856,-4.4 7.6957,-13.4 11.578,-20 3.8824,-6.6 8.1033,-13.83836 9.3799,-16.08524 2.3675,-4.1671 17.8022,-30.82687 29.67,-51.24809 3.6226,-6.23333 13.5078,-23.33333 21.9672,-38 29.2325,-50.68237 51.9943,-89.53913 62.4797,-106.65926 3.5906,-5.8626 7.1283,-11.66227 7.8617,-12.88813 7.0176,-11.73107 16.795,-27.91392 20.2634,-33.53862 2.3448,-3.80269 5.2771,-8.71398 6.5161,-10.91398 1.239,-2.2 5.1704,-8.36158 8.7366,-13.69239 3.5661,-5.33083 6.4839,-9.8998 6.4839,-10.15328 0,-0.71033 29.2195,-44.97078 40.9126,-61.97276 5.7314,-8.33346 11.0207,-16.1007 11.754,-17.26056 2.1652,-3.42442 2.4891,-3.86653 21.676,-29.58768 17.7061,-23.73608 32.1389,-42.60346 33.6582,-43.99999 0.3989,-0.36667 3.7119,-4.26215 7.3622,-8.65662 21.9152,-26.38277 50.69852,-55.4405 76.63702,-77.36752 8.4333,-7.12909 16.8333,-14.2401 18.6666,-15.80226 1.8334,-1.56215 4.8992,-3.84894 6.813,-5.08176 1.9137,-1.23282 4.3137,-3.0731 5.3333,-4.08951 2.0688,-2.0624 18.024,-12.9436 27.6152,-18.83316 36.1524,-22.19966 77.9033,-40.06364 148.2385,-63.42693 26.247,-8.71847 68.8049,-25.23015 86.1082,-33.40837 l 16.5585,-7.82619 v 7.87859 c 0,9.41351 1.5613,8.3205 -28.2566,19.78019 -23.9223,9.19389 -31.2406,11.70043 -84.4101,28.91093 -36.4247,11.79037 -59.3926,20.1097 -79.3333,28.73577 -55.1583,23.86072 -100.0128,55.58937 -151.38232,107.08297 -25.0478,25.10827 -42.7005,45.51301 -66.4165,76.77053 -8.6242,11.36667 -16.4075,21.56667 -17.2963,22.66667 -0.8888,1.1 -3.706,5 -6.2604,8.66666 -2.5545,3.66667 -5.0131,6.96667 -5.4635,7.33334 -0.9941,0.8092 -3.1501,4.01724 -34.9887,52.06198 -32.2018,48.59271 -29.8131,44.91697 -40.0572,61.64013 -4.841,7.90283 -8.8018,14.90283 -8.8018,15.55556 0,0.65272 -0.5096,1.38676 -1.1324,1.63122 -0.6228,0.24444 -5.1988,7.34444 -10.1689,15.77777 -4.97,8.43333 -10.3663,17.43333 -11.9918,20 -6.2506,9.86991 -15.997,26.21355 -29.6067,49.64713 -7.7789,13.39408 -19.5636,33.65287 -26.1882,45.01953 -6.6245,11.36667 -13.5898,23.412 -15.4783,26.7674 -1.8885,3.3554 -7.0337,12.21014 -11.4337,19.67716 -4.4,7.46704 -8.9099,15.22171 -10.022,17.2326 -5.3544,9.68185 -11.7812,20.89724 -19.2861,33.65617 -4.5292,7.7 -12.0367,20.6 -16.6835,28.66667 -4.6468,8.06667 -13.1496,22.57715 -18.8952,32.24552 -5.7456,9.66837 -10.4465,17.94267 -10.4465,18.38733 0,0.44466 -1.1225,2.43416 -2.4945,4.42114 -3.473,5.02964 -24.6539,39.93363 -27.6827,45.61826 -1.3692,2.56975 -3.7571,6.46975 -5.3064,8.66667 -1.5494,2.19693 -5.6739,8.79441 -9.1657,14.66108 -3.4918,5.86666 -9.063,14.86666 -12.3806,20 -3.3176,5.13333 -7.9586,12.33333 -10.3134,16 -8.9837,13.98854 -39.1732,59.11288 -46.0905,68.89148 -3.9781,5.6237 -11.1329,15.7332 -15.8995,22.4657 -4.7667,6.7324 -9.4813,13.103 -10.4769,14.1568 -0.9956,1.0538 -4.5393,5.6442 -7.8748,10.201 -3.3356,4.5568 -6.4365,8.5851 -6.891,8.9517 -0.4544,0.3667 -2.9107,3.3647 -5.4584,6.6623 -4.4519,5.7621 -8.4754,10.6938 -11.2989,13.8492 -0.7334,0.8195 -3.3729,3.8897 -5.8657,6.8226 -21.2354,24.9849 -65.323,69.7802 -84.1343,85.4851 -29.3283,24.4849 -67.5722,50.498 -96.6657,65.7509 -2.1994,1.1531 -4.2994,2.4623 -4.6666,2.9094 -0.9147,1.1134 -63.4629,32.1993 -76.6677,38.1032 -5.8667,2.6229 -26.335,12.4899 -45.485,21.9265 -31.7996,15.6699 -35.4411,17.1529 -42,17.1041 l -7.1817,-0.053 3.8722,-2.0969 z m 59.4611,-3.277 c 6.2334,-2.9877 20.5354,-9.6043 31.7823,-14.7034 11.2469,-5.0991 21.4469,-9.8313 22.6666,-10.5161 1.2198,-0.6848 10.0178,-4.9158 19.5511,-9.4023 15.3603,-7.2287 53.233,-27.2656 66,-34.9179 55.8564,-33.479 98.1968,-68.1417 142.0197,-116.2672 7.3225,-8.0414 14.6125,-15.9675 16.1999,-17.6134 11.7698,-12.204 48.6576,-59.0661 68.0765,-86.4842 14.8707,-20.9963 37.2204,-54.23975 52.0181,-77.37279 12.9477,-20.24101 23.1626,-36.44583 26.5798,-42.166 2.325,-3.89189 5.689,-9.47616 7.4756,-12.40949 1.7866,-2.93334 8.3635,-13.73334 14.6155,-24 6.252,-10.26667 16.6285,-27.66667 23.0589,-38.66667 6.4304,-11 16.3026,-27.8 21.9381,-37.33333 5.6356,-9.53333 15.2452,-26.03333 21.3547,-36.66667 6.1095,-10.63333 13.0271,-22.63333 15.3724,-26.66666 2.3453,-4.03334 7.3625,-12.73333 11.1493,-19.33333 3.7867,-6.6 7.4614,-12.9 8.166,-14 0.7045,-1.1 2.566,-4.4 4.1366,-7.33334 3.0056,-5.61332 12.8673,-22.32281 21.4242,-36.30065 2.7948,-4.56536 5.0814,-8.59124 5.0814,-8.9464 0,-0.35517 2.3943,-4.41988 5.3207,-9.03269 2.9263,-4.6128 5.3263,-9.13692 5.3333,-10.05359 0.01,-0.91667 0.6127,-1.66667 1.346,-1.66667 0.7333,0 1.3333,-0.51901 1.3333,-1.15336 0,-1.48821 19.1254,-33.70657 43.8376,-73.84809 10.7227,-17.41746 21.8958,-35.57017 24.8291,-40.33933 2.9333,-4.76917 9.2333,-14.71605 14,-22.10417 4.7667,-7.38812 9.5667,-14.83066 10.6667,-16.53896 29.4698,-45.76676 70.7525,-101.89828 103.3333,-140.50088 23.3393,-27.65308 72.53582,-74.01512 95.33332,-89.84077 3.3,-2.2908 6.3,-4.52544 6.6667,-4.96587 1.5304,-1.83828 27.0538,-17.8719 39.1081,-24.56753 39.6439,-22.02028 73.0043,-33.8451 167.5586,-59.39224 13.5666,-3.6655 31.5666,-8.77728 40,-11.3595 8.4333,-2.58222 15.7833,-4.70116 16.3333,-4.70878 0.55,-0.008 1,3.58616 1,7.98616 0,4.4 -0.3525,8 -0.7833,8 -0.4307,0 -11.0807,2.64204 -23.6666,5.87119 -12.5859,3.22916 -35.7834,8.97235 -51.5501,12.76264 -67.9426,16.33333 -99.1182,27.04053 -139.2731,47.83301 -29.4401,15.24427 -48.1507,28.05164 -78.0602,53.43187 -16.3972,13.9141 -44.4593,41.01633 -58.08832,56.10129 -7.3955,8.18556 -28.4847,33.07013 -32.5784,38.44138 -1.8333,2.4055 -4.4345,5.69026 -5.7805,7.29946 -2.7627,3.30325 -3.9142,4.79892 -16.6939,21.68492 -28.7205,37.94865 -71.0594,101.68659 -112.4208,169.2409 -8.6912,14.19512 -47.1781,79.20153 -54.6024,92.22642 -1.743,3.05788 -5.9326,10.25788 -9.3103,16 -3.3777,5.74214 -14.9952,25.74024 -25.8168,44.44024 -10.8216,18.7 -21.6429,37.3 -24.0474,41.33333 -2.4045,4.03334 -5.6998,9.73334 -7.3228,12.66667 -6.4204,11.60308 -47.971,81.88615 -67.7898,114.66666 -8.424,13.93334 -15.9924,26.53334 -16.8188,28 -0.8263,1.46667 -4.0024,6.56667 -7.058,11.33334 -3.0555,4.76666 -10.5317,16.43357 -16.6137,25.92646 -13.7143,21.40558 -40.6102,61.67462 -51.1534,76.58802 -4.3476,6.1496 -9.5453,13.507 -11.5504,16.3498 -4.9569,7.0276 -25.8556,34.3399 -29.4498,38.4876 -1.5975,1.8436 -4.6626,5.6952 -6.8113,8.5593 -4.0936,5.4562 -9.185,11.3466 -25.9645,30.039 -60.2393,67.1069 -99.1642,98.7883 -176.1287,143.3536 -10.8186,6.2644 -81.4056,40.6963 -83.4293,40.6963 -0.2704,0 -3.6595,1.4474 -7.5312,3.2164 -26.7348,12.2154 -31.964,14.1164 -38.766,14.0928 l -6.940ÐcäV  ÐcäV                  °¬äV          €ªäV  8däV          ðcäV   @      ðcäV          8463 136.7491,-68.5084 194.6667,-119.1766 36.4388,-31.8779 98.0229,-102.3263 129.6789,-148.3448 1.2612,-1.8333 5.9402,-8.4334 10.3978,-14.6668 4.4576,-6.2333 14.8575,-21.5333 23.1109,-34 14.5301,-21.9475 19.8872,-30.21425 33.2653,-51.33325 3.4841,-5.5 9.3075,-14.66856 12.9409,-20.37457 3.6334,-5.70602 6.6062,-10.68134 6.6062,-11.05627 0,-0.37495 0.6234,-1.40639 1.3853,-2.29211 2.011,-2.33766 30.6913,-50.18013 53.3195,-88.94371 4.9229,-8.43334 12.1109,-20.73334 15.9732,-27.33334 3.8623,-6.6 8.2248,-14.1 9.6944,-16.66666 1.4697,-2.56667 3.6371,-6.25748 4.8165,-8.2018 1.1794,-1.94432 4.4932,-7.64432 7.3639,-12.66667 2.8708,-5.02235 10.3208,-17.83153 16.5557,-28.46487 6.2348,-10.63333 15.34,-26.23333 20.2338,-34.66666 23.7741,-40.96973 27.9828,-48.11748 34.4095,-58.43895 3.8032,-6.10808 6.9149,-11.34536 6.9149,-11.6384 0,-0.66918 18.6212,-31.6569 25.9936,-43.25598 3.0296,-4.76667 5.9245,-9.56667 6.433,-10.66667 0.5085,-1.1 3.1705,-5.45216 5.9156,-9.67145 2.7451,-4.21929 9.7568,-15.31929 15.5816,-24.66667 9.7608,-15.66385 42.6449,-65.88645 45.1698,-68.98601 0.6015,-0.73839 6.0015,-8.34065 12,-16.8939 55.8595,-79.64976 98.01732,-126.38951 155.41602,-172.30737 32.0704,-25.65574 72.5374,-47.2208 113.4904,-60.47967 26.8103,-8.68008 36.9386,-11.29423 68.6666,-17.72315 13.7988,-2.79598 81.2622,-14.6051 83.4364,-14.6051 0.6767,0 1.2303,3.51801 1.2303,7.81781 v 7.8178 l -7.6667,1.45508 c -4.2166,0.80029 -16.0666,2.43517 -26.3333,3.63308 -99.736,11.63708 -164.1984,34.02175 -222.8809,77.39557 -38.892,28.7462 -80.2229,69.90411 -116.36762,115.88065 -5.1886,6.6 -11.1097,14.1 -13.158,16.66667 -13.7099,17.17925 -69.8635,97.3799 -72.3904,103.39056 -0.295,0.70185 -5.1516,8.26376 -10.7923,16.80422 -5.6407,8.54047 -15.1474,23.54047 -21.1261,33.33334 -5.9786,9.79286 -12.2494,19.90521 -13.9351,22.47187 -1.6857,2.56667 -4.479,7.17518 -6.2073,10.24114 -1.7282,3.06594 -8.9033,15.06594 -15.9446,26.66666 -7.0412,11.60071 -14.3251,23.7922 -16.1864,27.0922 -1.8614,3.3 -9.2378,15.9 -16.3921,28 -14.9979,25.36591 -34.0525,57.94465 -38.9917,66.66667 -1.8688,3.3 -7.1995,12.41272 -11.846,20.2505 -4.6465,7.83778 -8.4482,14.57612 -8.4482,14.97411 0,0.39799 -2.0142,3.88525 -4.4761,7.74949 -2.4619,3.86424 -8.8461,14.5259 -14.1871,23.69256 -22.0128,37.77976 -28.554,48.82089 -47.3949,80 -10.8569,17.96667 -20.2353,32.86667 -20.8409,33.11111 -0.6055,0.24445 -1.101,1.03634 -1.101,1.75977 0,0.72343 -1.699,3.82343 -3.7755,6.88888 -2.0765,3.06547 -4.1748,6.47357 -4.6627,7.57357 -0.488,1.1 -3.739,6.32916 -7.2245,11.62036 -3.4855,5.29122 -10.4954,16.09122 -15.5776,23.99996 -5.0822,7.9088 -16.4455,24.8796 -25.2518,37.713 -13.7148,19.9864 -20.9717,30.1235 -38.6019,53.9228 -10.2159,13.7906 -38.2592,47.9033 -57.5559,70.0128 -8.1817,9.3743 -48.3677,49.1967 -58.6834,58.1525 -29.3651,25.4937 -66.0137,51.6519 -97.3333,69.4724 -14.4545,8.2244 -51.338,27.0799 -62,31.6955 -34.1883,14.8 -43.2753,18.0755 -49.9004,17.9872 -5.059,-0.067 -6.0934,-0.3844 -4.0996,-1.2561 z m 50,0.4263 c 11.1825,-3.967 41.978,-17.7948 59.3333,-26.6419 55.5038,-28.2937 102.5716,-63.16 150.6667,-111.6088 25.2508,-25.4366 33.8374,-34.8969 54.6063,-60.1626 7.8366,-9.5334 15.2677,-18.5334 16.5136,-20 1.2459,-1.4667 8.7559,-11.3667 16.6888,-22 7.9329,-10.6334 15.6878,-21.0183 17.2331,-23.0778 8.963,-11.9453 55.8498,-82.44018 70.2282,-105.58895 6.8325,-11 13.7458,-22.1 15.3628,-24.66667 6.882,-10.92346 8.0855,-12.86665 10.3218,-16.66666 1.2947,-2.2 3.8646,-6.7 5.711,-10 1.8463,-3.3 7.8728,-13.2 13.3921,-22 5.5194,-8.8 10.4252,-16.9 10.9019,-18 0.4767,-1.1 5.1658,-9.2 10.4203,-18 9.1035,-15.24629 16.9568,-28.61319 21.9339,-37.33333 1.2556,-2.2 4.1737,-7.06636 6.4846,-10.81414 2.3108,-3.74777 4.2016,-7.44777 4.2016,-8.22222 0,-0.77444 0.4634,-1.60808 1.0298,-1.85254 0.8145,-0.35153 31.1558,-51.62038 40.288,-68.07623 4.4747,-8.06312 12.6111,-21.90022 14.721,-25.03487 1.2339,-1.83333 12.6176,-20.73333 25.2971,-42 12.6794,-21.26667 25.2159,-42.0902 27.8588,-46.27452 2.6429,-4.18432 6.9053,-11.04299 9.4719,-15.24148 2.5667,-4.19849 8.1167,-12.94178 12.3334,-19.42954 4.2166,-6.48776 7.6666,-12.14276 7.6666,-12.56666 0,-0.42389 1.8074,-3.05276 4.0165,-5.84192 2.209,-2.78916 4.7698,-6.4755 5.6906,-8.19188 0.9208,-1.71636 5.8634,-9.31056 10.9835,-16.87598 5.1202,-7.56542 9.9094,-14.76542 10.6428,-16 0.7333,-1.23458 1.6389,-2.54468 2.0124,-2.91135 0.3736,-0.36667 2.2981,-3.06667 4.2769,-6 1.9787,-2.93333 6.173,-8.98213 9.3208,-13.44179 3.1478,-4.45964 8.3782,-11.95964 11.6231,-16.66666 3.245,-4.70702 6.2474,-8.85822 6.672,-9.22488 0.4247,-0.36667 5.9532,-7.56667 12.2857,-16 44.49802,-59.26067 84.68882,-100.70947 131.77482,-135.8995 37.3179,-27.88979 78.0035,-46.64586 126.0343,-58.10182 29.2618,-6.97932 54.9407,-10.13421 109,-13.39162 l 14.3333,-0.86367 v 8.59367 8.59368 l -35,0.81529 c -19.25,0.44841 -38.9,1.40244 -43.6667,2.12007 -4.7666,0.71761 -13.7666,2.00336 -20,2.85721 -21.3337,2.92231 -48.5769,10.16503 -72.7919,19.35211 -24.8208,9.41688 -49.0773,22.92528 -77.8747,43.36823 -23.3844,16.60036 -65.828,56.8182 -90.86682,86.10172 -21.1591,24.74619 -63.3979,80.35177 -76.4666,100.66505 -0.7333,1.13986 -9.243,13.80528 -18.9105,28.14539 -18.8555,27.96931 -46.1679,71.01265 -64.9193,102.31085 -6.3707,10.63333 -12.1398,20.23333 -12.8202,21.33333 -3.6006,5.82116 -22.051,36.80967 -33.739,56.66667 -7.338,12.46666 -16.8524,28.53022 -21.143,35.69678 -4.2907,7.16658 -7.8013,13.25831 -7.8013,13.5372 0,0.2789 -4.8,8.46068 -10.6667,18.18174 -5.8666,9.72106 -10.6666,17.89201 -10.6666,18.15768 0,0.49437 -23.3845,40.00736 -28.6597,48.4266 -1.6082,2.56666 -5.5113,9.16666 -8.6737,14.66666 -3.1623,5.5 -7.0919,12.1 -8.7325,14.66667 -1.6405,2.56666 -4.531,7.36666 -6.4233,10.66666 -5.6659,9.88114 -8.7463,15.07783 -11.8759,20.03488 -1.6325,2.58586 -4.9658,7.98586 -7.4072,12 -35.8022,58.86504 -81.0798,126.84794 -107.4274,161.29854 -35.8211,46.8377 -54.0589,68.046 -86.069,100.088 -12.8689,12.8817 -28.798,28.1154 -35.398,33.8527 -6.6,5.7372 -13.8,12.0019 -16,13.9215 -2.2,1.9197 -8.8,7.0855 -14.6667,11.4798 -38.96,29.1816 -78.8684,52.3261 -120.5236,69.8967 -16.1342,6.8055 -20.3808,8.0778 -26.6666,7.9893 -4.112,-0.058 -6.5764,-0.4245 -5.4764,-0.8147 z m 53.3333,-0.7291 c 59.7967,-26.3449 91.7738,-46.1664 141.2769,-87.5727 14.8423,-12.4147 47.1704,-43.8239 63.3898,-61.588 23.7267,-25.9866 60.5072,-72.3021 85.6523,-107.8569 11.6068,-16.4119 56.0219,-83.48275 67.7949,-102.37638 2.8707,-4.60701 7.2342,-11.50701 9.6967,-15.33333 2.4625,-3.82633 5.7796,-9.35697 7.3713,-12.29031 1.5917,-2.93333 5.0488,-8.63333 7.6825,-12.66666 2.6337,-4.03334 10.6396,-17.23334 17.7909,-29.33334 7.1513,-12.1 14.3416,-24.1 15.9783,-26.66666 1.6367,-2.56667 6.4467,-10.66667 10.6889,-18 4.2422,-7.33333 12.3335,-21.13333 17.9806,-30.66667 5.6472,-9.53333 16.4507,-27.83333 24.0078,-40.66666 7.557,-12.83334 23.3996,-39.53334 35.2056,-59.33333 11.806,-19.8 22.1115,-37.21044 22.9012,-38.68986 0.7896,-1.47942 5.3552,-8.97942 10.1458,-16.66666 4.7905,-7.68726 11.5939,-18.77682 15.1186,-24.64348 7.0186,-11.68196 8.8653,-14.58084 28.0305,-44 36.2982,-55.71904 65.9222,-97.99328 87.8281,-125.33333 6.4616,-8.06444 25.38442,-30.90448 32.58752,-39.33333 10.8587,-12.70666 46.975,-48.94655 56.4734,-56.66667 37.024,-30.09257 53.1488,-40.97409 79.9028,-53.92094 50.589,-24.48114 102.2087,-33.58444 170.8289,-30.12628 l 19.6667,0.99112 v 8.68356 c 0,8.36054 -0.1116,8.65289 -3,7.85917 -1.65,-0.45341 -15.1345,-1.54315 -29.9655,-2.42164 -60.8181,-3.60244 -108.936,5.28764 -157.6121,29.11982 -27.0629,13.25015 -43.85,24.51978 -74.0891,49.73782 -12.2117,10.18406 -43.3299,40.58322 -54.0761,52.82665 -15.287,17.417 -21.05362,24.27496 -32.14542,38.22926 -6.567,8.2618 -12.9132,16.20632 -14.1028,17.65451 -1.1895,1.44817 -3.4032,4.45047 -4.9192,6.67175 -2.5896,3.79424 -9.4367,13.06438 -11.8381,16.02733 -6.0628,7.48067 -37.5762,53.10764 -52.9184,76.61847 -5.6821,8.70751 -30.7326,47.77041 -33.3785,52.04939 -1.5833,2.56063 -21.3562,34.97567 -25.6195,42 -1.7804,2.93334 -7.1412,11.63334 -11.913,19.33334 -4.7718,7.7 -11.195,18.5 -14.2739,23.99999 -3.0789,5.5 -8.0355,13.9 -11.0147,18.66667 -5.5947,8.95129 -29.536,49.40301 -35.511,60 -1.8607,3.3 -9.495,16.2 -16.9653,28.66667 -7.4703,12.46666 -18.394,30.76666 -24.2749,40.66666 -36.3594,61.20729 -96.4176,156.87305 -108.3825,172.64085 -1.8333,2.416 -6.9333,9.617 -11.3333,16.0022 -7.3781,10.7069 -34.7034,47.3908 -43.0778,57.8314 -1.9739,2.4609 -5.3889,6.7052 -7.5889,9.4317 -2.2,2.7265 -6.1,7.5927 -8.6667,10.8137 -17.8779,22.4358 -62.3989,69.5311 -82,86.7413 -39.7145,34.8705 -72.9484,57.7976 -113.7157,78.4492 -23.695,12.0032 -34.5114,16.0948 -42.2843,15.9949 -6.0144,-0.077 -6.3405,-0.2294 -3.3333,-1.5543 z m 50,0.3158 c 0.4532,-0.7334 1.4004,-1.3334 2.1047,-1.3334 1.9132,0 25.5518,-11.9486 39.2286,-19.8289 15.633,-9.0075 16.1723,-9.3411 24,-14.8514 3.6667,-2.5811 9.0667,-6.3154 12,-8.2986 9.1684,-6.1986 35.3928,-27.3285 47.9632,-38.6457 22.644,-20.3865 50.6923,-49.5194 76.3113,-79.2622 16.663,-19.3452 72.3922,-93.5113 72.3922,-96.3418 0,-0.6687 0.45,-1.4158 1,-1.6603 0.55,-0.2444 2.3357,-2.3508 3.9683,-4.6809 2.9903,-4.2679 35.6323,-53.6622 38.658,-58.4978 0.8945,-1.4295 8.0356,-12.7991 15.8691,-25.26575 7.8335,-12.46667 16.4017,-26.15269 19.0404,-30.41339 2.6386,-4.2607 6.3653,-10.2607 8.2815,-13.33333 1.9161,-3.07264 10.2473,-16.98661 18.5137,-30.91995 8.2664,-13.93333 16.7486,-27.84144 18.8494,-30.9069 2.1008,-3.06546 3.8196,-5.87516 3.8196,-6.24378 0,-0.67233 23.1228,-40.09635 28.6508,-48.84931 5.9303,-9.38979 24.6825,-41.37342 24.6825,-42.09823 0,-0.41051 1.5,-2.71296 3.3334,-5.11659 1.8333,-2.40362 3.3333,-4.79241 3.3333,-5.30842 0,-0.516 2.1934,-4.35938 4.8741,-8.54082 6.6608,-10.38932 20.4592,-33.52099 20.4592,-34.29769 0,-0.34764 2.0209,-3.48346 4.4909,-6.9685 2.47,-3.48503 5.9767,-9.03642 7.7926,-12.33642 1.816,-3.3 9.8451,-16.38036 17.8425,-29.06748 7.9974,-12.6871 15.1407,-24.09956 15.874,-25.36098 0.7334,-1.26144 2.6834,-4.1737 4.3334,-6.4717 1.65,-2.29798 3,-4.56128 3,-5.02954 0,-0.46826 2.4,-4.03016 5.3333,-7.91534 2.9333,-3.88516 5.3333,-7.39585 5.3333,-7.80152 0,-0.40566 3.2151,-5.45114 7.1446,-11.21217 3.9295,-5.76103 11.2298,-16.4746 16.2228,-23.80793 60.0148,-88.14505 111.55022,-146.83901 164.63262,-187.50088 43.5749,-33.37898 88.585,-52.52534 137.6737,-58.56354 16.6521,-2.04831 63.5702,-0.94924 81.6597,1.91289 21.051,3.33071 19.3333,2.29256 19.3333,11.68472 v 8.14905 l -4.3333,-0.80869 c -48.835,-9.11365 -82.399,-9.88047 -118.3334,-2.70347 -69.91,13.96283 -132.1401,57.20683 -204.0995,141.82992 -17.96102,21.1218 -47.01782,59.46323 -64.90792,85.64813 -3.876,5.67314 -10.4365,15.27313 -14.5789,21.33333 -11.2403,16.44444 -28.8471,42.96302 -31.747,47.8161 -0.7333,1.22724 -6.1333,9.78318 -12,19.0132 -11.3174,17.80569 -23.0265,36.74458 -33.3495,53.94116 -0.7422,1.23643 -2.3176,3.74807 -3.5008,5.58141 -4.7263,7.32312 -49.4034,81.52829 -62.2145,103.33333 -4.7394,8.06667 -11.6157,19.76667 -15.2806,26 -3.665,6.23333 -7.716,13.13333 -9.0024,15.33333 -2.1927,3.75019 -33.2045,54.97676 -35.9195,59.33333 -0.6855,1.1 -4.8995,8 -9.3643,15.33334 -4.4649,7.33333 -11.2493,18.27604 -15.0765,24.31712 -3.8272,6.04109 -9.3297,14.74106 -12.2278,19.33326 -16.8477,26.6964 -49.9663,75.8424 -66.5758,98.7944 -5.2186,7.2113 -10.6883,14.7968 -12.155,16.8567 -5.3238,7.4773 -22.6968,30.0655 -24.1236,31.3652 -0.805,0.7334 -4.1797,4.9334 -7.4994,9.3334 -18.5689,24.6115 -55.8138,64.6206 -84.5292,90.8025 -20.0022,18.2375 -24.7737,22.2405 -40.5795,34.0441 -24.656,18.4128 -45.3582,31.1699 -70.1677,43.2387 -11.4895,5.5892 -16.3135,7.248 -21.0786,7.248 -3.7801,0 -5.8594,-0.5177 -5.3553,-1.3333 z m 60.0269,-5.0421 c 28.9464,-15.1419 65.3016,-41.0692 92.558,-66.0093 14.9299,-13.661 49.0686,-48.664 60.7484,-62.2863 6.6,-7.6976 12.6,-14.6395 13.3334,-15.4265 0.7333,-0.7869 3.1333,-3.7279 5.3333,-6.5354 2.2,-2.8075 8.4281,-10.5636 13.8403,-17.2358 8.9171,-10.9932 14.9235,-18.8897 29.5111,-38.798 5.4908,-7.4934 26.2933,-36.8805 29.7309,-42 37.6301,-56.0401 103.1147,-159.52391 107.998,-170.66668 0.482,-1.1 6.069,-10.4 12.4155,-20.66667 6.3465,-10.26667 13.0213,-21.36666 14.833,-24.66666 3.2972,-6.00592 7.9327,-13.49851 12.5465,-20.27935 1.3519,-1.98697 2.458,-3.84164 2.458,-4.12148 0,-0.27984 4.8,-8.46239 10.6667,-18.18345 5.8667,-9.72106 10.6667,-17.95643 10.6667,-18.30082 0,-0.34438 1.5,-2.59276 3.3333,-4.99638 1.8333,-2.40363 3.3333,-4.7879 3.3333,-5.29836 0,-0.51048 1.1304,-2.55384 2.512,-4.54082 1.3815,-1.98697 6.8555,-10.81268 12.1643,-19.61268 5.3088,-8.8 12.2785,-20.04281 15.4881,-24.98401 3.2096,-4.94121 5.8356,-9.259 5.8356,-9.59508 0,-1.72058 51.8593,-81.22028 71.3334,-109.35314 54.64222,-78.93809 103.11542,-134.30216 151.48252,-173.01709 26.095,-20.88753 57.934,-38.73743 85.0131,-47.66097 25.981,-8.56168 40.1033,-11.01014 67.5893,-11.71834 26.8545,-0.69193 43.9011,1.11528 68.9151,7.3061 l 14.3333,3.54742 v 8.27814 8.27813 l -11.6667,-3.23081 c -59.6274,-16.51248 -112.8253,-11.96666 -166.3333,14.21337 -51.6895,25.29029 -99.213,67.49028 -155.07,137.69932 -16.19652,20.35812 -22.01582,28.06441 -36.93002,48.90498 -13.2742,18.54892 -35.3333,50.95941 -35.3333,51.91364 0,0.65787 -0.489,1.39612 -1.0865,1.64057 -0.5976,0.24444 -5.1718,6.74444 -10.1649,14.44444 -4.9931,7.7 -11.6311,17.9 -14.7511,22.66667 -8.434,12.88537 -24.628,38.66874 -27.6355,44 -1.448,2.56666 -3.3218,5.56666 -4.164,6.66666 -0.8423,1.1 -2.3998,3.5 -3.4612,5.33334 -1.0613,1.83333 -5.7899,9.63333 -10.5079,17.33333 -4.7179,7.7 -11.1071,18.2 -14.1981,23.33333 -3.091,5.13334 -12.2008,20.13334 -20.244,33.33334 -8.0432,13.2 -15.032,24.9 -15.5307,26 -0.4987,1.1 -3.3681,5.89999 -6.3765,10.66666 -3.0084,4.76667 -11.212,18.26667 -18.2304,30 -12.5519,20.98425 -32.1044,53.01284 -44.3608,72.66667 -26.9482,43.21258 -42.4766,67.65018 -46.6218,73.36998 -1.8333,2.5298 -6.9333,10.0926 -11.3333,16.8061 -11.7523,17.9318 -43.1587,62.3281 -52.2237,73.824 -0.8674,1.1 -8.3171,10.7 -16.5548,21.3333 -8.2378,10.6333 -15.3437,19.6333 -15.7909,20 -0.4472,0.3667 -4.0183,4.5667 -7.9357,9.3333 -24.5919,29.9229 -62.5736,67.8863 -93.4949,93.4501 -17.7955,14.7122 -45.4141,33.4069 -64.4357,43.6158 -8.809,4.7277 -11.6149,5.5942 -18,5.5587 l -7.5643,-0.042 z m 53.9731,-2.0134 c 20.5649,-12.302 37.3405,-24.3611 54,-38.8175 12.6078,-10.9405 48.7283,-47.1102 59.3775,-59.4585 4.7424,-5.4989 9.4073,-10.8266 10.3666,-11.8393 5.8674,-6.1941 38.1314,-46.8527 51.9465,-65.4621 20.1484,-27.1405 17.5869,-23.5657 35.0309,-48.8882 8.0116,-11.6301 15.0438,-21.7456 15.627,-22.4789 1.3567,-1.7058 14.8593,-22.1334 32.6091,-49.3335 15.9963,-24.5127 37.0925,-58.013 39.0252,-61.97117 0.7239,-1.48248 1.7739,-2.69541 2.3334,-2.69541 0.5594,0 1.0171,-0.56032 1.0171,-1.24516 0,-0.68484 5.2061,-9.53484 11.569,-19.66667 15.0404,-23.94901 71.9623,-117.7979 79.1042,-130.4215 2.1618,-3.82111 18.4812,-30.39858 34.3858,-56 33.6654,-54.19088 87.3413,-130.68789 118.81672,-169.33333 30.6063,-37.57829 69.1442,-75.75308 101.2737,-100.31939 8.8047,-6.73205 32.2009,-20.80221 44.7697,-26.92387 53.8346,-26.22023 111.2671,-29.18454 167.0809,-8.62368 l 5.6667,2.0875 v 7.88972 c 0,4.33935 -0.15,7.88553 -0.3333,7.88043 -0.1834,-0.005 -4.8334,-1.545 -10.3334,-3.42197 -28.9528,-9.88063 -62.8147,-14.24186 -88.6095,-11.41239 -58.0637,6.36908 -109.5991,34.56238 -166.0558,90.84365 -34.5424,34.43507 -71.7286,80.15442 -108.00132,132.78448 -1.1,1.59605 -4.4491,6.42248 -7.4423,10.72538 -11.764,16.91123 -45.9799,68.79115 -53.085,80.49013 -2.0041,3.3 -5.325,8.7 -7.3796,12 -2.0547,3.3 -13.0246,21.3 -24.3778,40 -11.3531,18.7 -26.5336,43.6 -33.7345,55.33333 -7.201,11.73334 -15.4159,25.23334 -18.2556,30 -2.8396,4.76667 -5.7312,9.56667 -6.4258,10.66667 -0.6946,1.1 -4.7212,7.60341 -8.9478,14.45203 -4.2268,6.84862 -9.2411,14.94862 -11.143,18 -1.9018,3.05138 -9.6165,15.44797 -17.1436,27.54797 -54.808,88.10515 -121.2681,183.54745 -156.9081,225.33335 -1.5637,1.8334 -6.5678,7.8334 -11.1202,13.3334 -33.8345,40.8768 -78.897,82.5604 -112.7034,104.2526 -18.6599,11.9733 -21.099,13.0811 -28.7838,13.0737 l -7.2162,-0.01 14,-8.3748 z m 37.3333,7.8365 c 0,-0.3038 3.15,-2.4694 7,-4.8124 7.5064,-4.5684 23.7784,-16.7056 35.6182,-26.5674 22.6867,-18.8969 45.1887,-42.0275 78.5727,-80.768 13.9373,-16.1736 48.676,-61.7309 67.4758,-88.4898 3.6667,-5.219 8.7667,-12.4858 11.3333,-16.1485 31.0626,-44.3264 89.8838,-136.51642 149.7244,-234.66165 7.3775,-12.1 17.071,-28 21.541,-35.33333 4.4701,-7.33333 10.267,-ÐcäV  ÐcäV                  °¬äV          €ªäV  8däV          ðcäV   @      ðcäV          5.7251 58.9939,-90 1.5364,-1.92928 10.6336,-14.55618 12.982,-18.01901 1.1,-1.62203 3.5,-4.95663 5.3333,-7.41021 1.8333,-2.4536 4.8333,-6.61248 6.6667,-9.24198 33.97782,-48.73321 100.41192,-121.00094 129.33332,-140.69001 2.5667,-1.74733 4.9667,-3.54014 5.3333,-3.98402 3.3891,-4.10271 34.2701,-22.77927 47.5995,-28.78771 5.7203,-2.57853 11.6005,-5.24293 13.0672,-5.92088 5.4537,-2.52096 24.3819,-7.86731 36,-10.16837 16.5973,-3.28723 51.8204,-3.3183 66.6667,-0.0588 11.7271,2.57469 29.456,7.78528 40.3333,11.85412 l 7,2.61848 v 7.99405 c 0,7.67373 -0.1201,7.9572 -3,7.07435 -1.65,-0.50584 -3.6,-1.38743 -4.3333,-1.95908 -0.7334,-0.57167 -8.5642,-3.49502 -17.4019,-6.49634 -45.646,-15.50162 -89.1807,-11.75432 -137.3369,11.82147 -24.8942,12.18745 -39.8857,22.15388 -67.2486,44.70728 -11.0721,9.126 -42.9065,40.07352 -54.8618,53.33333 -15.5755,17.27509 -48.0494,57.53565 -57.15082,70.85456 -2.4437,3.57601 -22.0419,30.95628 -24.3435,34.0098 -1.6938,2.24713 -28.2397,42.88053 -42.1177,64.46897 -7.7341,12.03105 -60.1552,95.99072 -86.7083,138.87545 -7.7901,12.58149 -16.5639,26.66427 -19.4972,31.29504 -2.9333,4.63079 -6.5333,10.38793 -8,12.79368 -23.454,38.47111 -104.7075,162.23791 -108.7845,165.70251 -0.4315,0.3667 -2.8435,3.6667 -5.36,7.3334 -6.7329,9.8101 -35.1745,47.7841 -44.4392,59.3333 -28.2437,35.2081 -53.4335,62.6917 -79.6955,86.9527 -16.798,15.518 -19.4479,17.6992 -36.6862,30.1972 -14.4321,10.4635 -15.2279,10.8501 -22.3333,10.8501 -4.0524,0 -7.368,-0.2485 -7.368,-0.5523 z m 64.7167,-10.8517 c 7.855,-6.2722 15.0312,-12.1222 15.947,-13 43.565,-41.7557 68.4298,-69.9145 106.1944,-120.2627 27.5483,-36.7277 77.872,-110.5601 103.1478,-151.3334 4.3187,-6.9667 9.2341,-14.5233 10.9232,-16.7925 1.689,-2.2692 3.0709,-4.4526 3.0709,-4.8519 0,-0.3994 3.15,-5.564 7,-11.477 3.85,-5.913 10.9,-17.10434 15.6667,-24.86964 4.7667,-7.76531 10.1203,-16.34403 11.8969,-19.06383 3.5131,-5.37819 16.111,-25.61535 28.7698,-46.2154 4.4,-7.16029 10.4151,-16.70368 13.367,-21.20753 2.9518,-4.50386 8.2523,-12.98882 11.7787,-18.85548 3.5265,-5.86667 10.5272,-16.96667 15.5571,-24.66667 5.03,-7.7 14.977,-23.3 22.1046,-34.66666 7.1275,-11.36667 13.4616,-20.86667 14.0758,-21.11111 0.6142,-0.24445 1.1168,-0.98608 1.1168,-1.64808 0,-0.662 2.1151,-4.362 4.7003,-8.22223 2.5852,-3.86022 6.8854,-10.31858 9.5561,-14.35192 2.6707,-4.03333 5.3556,-7.53333 5.9664,-7.77777 0.6108,-0.24445 1.1105,-1.15775 1.1105,-2.02955 0,-0.8718 1.6846,-3.6718 3.7435,-6.22222 2.0589,-2.55042 7.2725,-9.73712 11.5856,-15.97046 25.39092,-36.69437 58.60372,-76.61947 89.32212,-107.37382 23.5516,-23.5792 30.9615,-30.1275 50.6821,-44.78892 27.0251,-20.09192 47.4961,-31.33626 72.4711,-39.80692 19.6574,-6.6671 35.2513,-9.36636 54.0369,-9.3536 18.3031,0.012 42.9878,3.65504 46.7587,6.89995 0.6967,0.59949 2.0695,1.08999 3.0507,1.08999 0.9812,0 7.7493,2.55 15.0402,5.66666 l 13.2563,5.66667 0.026,8.24344 0.026,8.24343 -11.6667,-5.78212 c -22.3368,-11.07038 -41.3422,-15.64212 -64.5627,-15.53058 -23.4276,0.11254 -38.4414,3.01819 -60.4373,11.69651 -36.8685,14.54621 -68.8845,37.64759 -111.3333,80.33349 -41.3558,41.58671 -73.4625,81.66588 -122.39812,152.79098 -35.118,51.0419 -52.7531,78.34681 -113.6738,176.00484 -27.448,43.99995 -50.3605,80.19995 -50.9168,80.44435 -0.5562,0.2445 -1.0113,1.0244 -1.0113,1.7332 0,0.709 -3.9905,7.409 -8.8677,14.889 -27.6577,42.4177 -33.4681,51.25 -44.7454,68.017 -13.3459,19.8426 -26.6017,38.8176 -29.759,42.5984 -1.0787,1.2917 -1.9613,2.6384 -1.9613,2.9926 0,0.9502 -31.1788,42.2818 -41.2323,54.6588 -29.3486,36.1314 -67.5532,74.203 -92.6558,92.3334 -5.0745,3.6651 -7.1571,4.3333 -13.505,4.3333 h -7.5053 l 14.2818,-11.404 z m 40.8128,7.7373 c 16.748,-13.4584 45.9206,-42.8608 66.4766,-67 14.381,-16.8877 45.0183,-56.7826 60.4511,-78.7174 19.9643,-28.3753 18.3434,-26.0248 25.5456,-37.0456 2.5506,-3.903 7.5399,-11.403 11.0872,-16.6667 11.0245,-16.3585 25.9981,-39.3998 39.1458,-60.2369 18.8214,-29.8294 38.4123,-61.0422 44.4309,-70.7887 12.3719,-20.03516 22.5599,-36.30588 26.6395,-42.54472 2.3977,-3.66666 8.7029,-13.56666 14.0115,-22 16.3666,-25.99978 28.6353,-44.64576 29.6823,-45.1111 0.55,-0.24446 1,-1.00984 1,-1.70088 0,-1.46004 24.4755,-38.2472 44.7021,-67.18801 7.6878,-11 15.6249,-22.4 17.6379,-25.33334 12.49682,-18.21005 42.83772,-57.27168 64.31232,-82.79734 14.5599,-17.30644 58.656,-61.06677 73.3477,-72.78923 52.1915,-41.64325 101.1133,-59.5347 145.4136,-53.18001 13.694,1.96435 35.7349,9.12274 48.1068,15.62399 l 9.1463,4.80625 v 7.83484 c 0,4.30916 -0.3133,7.83484 -0.6963,7.83484 -0.3829,0 -5.3515,-2.34064 -11.0413,-5.20143 -19.3682,-9.73812 -40.6361,-14.79968 -62.1739,-14.79674 -67.1785,0.009 -138.2577,48.96781 -221.6417,152.66483 -41.7214,51.88502 -95.74772,131.6172 -173.01312,255.33325 -6.6409,10.6334 -12.5303,19.5334 -13.0874,19.7778 -0.5571,0.2445 -1.013,0.994 -1.013,1.6657 0,1.1634 -24.9072,40.7203 -49.0439,77.89 -61.9218,95.3574 -104.7782,151.7227 -149.6055,196.7632 -24.4271,24.5432 -27.2245,26.5701 -36.6712,26.5701 h -7.7127 z m 61.161,-10.5932 c 7.6869,-7.843 14.8984,-15.193 16.0254,-16.3334 11.2236,-11.3558 54.1363,-64.9643 67.9508,-84.8872 1.1,-1.5864 4.7,-6.6536 8,-11.2603 14.2501,-19.893 45.2172,-65.713 60.7758,-89.9259 5.1834,-8.0666 14.8201,-23.0666 21.4149,-33.3333 6.5948,-10.2667 15.5498,-24.3667 19.8999,-31.3334 4.3502,-6.9667 8.3594,-12.8667 8.9094,-13.1111 0.55,-0.2445 1,-0.995 1,-1.6678 0,-1.1897 17.2693,-28.9392 33.9508,-54.55442 4.5369,-6.96666 11.804,-18.23945 16.149,-25.05062 12.695,-19.90016 52.6465,-79.99863 60.9033,-91.61604 4.1696,-5.86667 8.82332,-12.46667 10.34162,-14.66667 24.4772,-35.46716 63.1049,-84.10313 86.835,-109.33333 15.177,-16.13648 18.0373,-19.02125 29.1596,-29.40928 18.1833,-16.98294 47.3555,-40.59072 50.1581,-40.59072 0.5276,0 1.9065,-0.84992 3.0643,-1.8887 5.0457,-4.52731 29.6518,-16.99634 44.7716,-22.68786 17.5342,-6.60033 26.7416,-8.0901 50,-8.0901 20.3444,0 22.975,0.28868 34.955,3.83589 7.1253,2.10975 17.9253,6.30975 24,9.33333 l 11.045,5.49744 0.3999,7.66667 c 0.2199,4.21667 -0.147,7.66667 -0.8154,7.66667 -0.6684,0 -6.2484,-2.32411 -12.3999,-5.16468 -20.2938,-9.37104 -30.625,-11.46091 -56.5179,-11.43284 -21.3203,0.0231 -23.4982,0.26733 -36.6667,4.11164 -15.4743,4.51745 -28.6405,9.97814 -41.2699,17.11673 -4.5758,2.58636 -8.6574,4.70248 -9.0703,4.70248 -0.4129,0 -3.8053,2.26172 -7.5386,5.02605 -3.7333,2.76434 -9.1878,6.59046 -12.1212,8.5025 -23.5205,15.33144 -72.5669,63.90666 -101.5029,100.52774 -2.2933,2.90237 -6.799,8.57704 -10.0126,12.61037 -14.8966,18.69662 -35.3483,46.40848 -56.58082,76.66667 -7.8284,11.15629 -51.2859,76.69422 -62.4976,94.25222 -4.36,6.82794 -11.0104,17.21446 -14.7788,23.08106 -14.0906,21.9368 -22.6998,35.4832 -41.5212,65.3334 -10.635,16.8667 -21.3053,33.6667 -23.7118,37.3334 -2.4064,3.6666 -9.0329,13.8666 -14.7255,22.6666 -59.6112,92.1512 -104.4908,151.623 -147.5862,195.5725 l -8.9174,9.0942 h -7.7254 -7.7255 z m 40.8453,9.9266 c 2.2324,-2.3834 6.1001,-6.7068 8.5949,-9.6076 2.4948,-2.9009 6.9816,-8.0009 9.9707,-11.3334 29.527,-32.9194 75.7698,-97.9222 136.156,-191.3924 15.3672,-23.7864 19.3997,-30.0913 46.9033,-73.3334 36.6849,-57.67708 74.2999,-114.28223 94.80422,-142.66662 6.8867,-9.53333 13.7646,-19.13333 15.2843,-21.33333 7.1716,-10.38229 23.2843,-31.2213 38.6598,-50 43.3885,-52.99182 78.9922,-86.45873 116.7577,-109.75054 50.5485,-31.17564 98.9685,-35.83959 143.6667,-13.83832 l 8.3333,4.10181 v 7.74352 c 0,4.25895 -0.2326,7.74354 -0.517,7.74354 -0.2843,0 -4.3343,-1.77995 -9,-3.95543 -4.6656,-2.17549 -14.483,-5.57944 -21.8163,-7.56432 -17.0544,-4.61604 -43.0537,-5.21323 -60,-1.37816 -30.6209,6.92971 -60.1513,22.70701 -93.5477,49.97998 -15.3537,12.53852 -44.198,40.61542 -59.0598,57.48832 -21.9691,24.94212 -56.0126,69.05332 -84.0669,108.92796 -3.3046,4.69691 -55.66062,83.18479 -61.70402,92.50159 -3.0919,4.7667 -6.0716,8.8667 -6.6216,9.1111 -0.55,0.2445 -1,0.9567 -1,1.5828 0,1.1569 -6.541,11.7464 -23.3334,37.7759 -5.1333,7.957 -15.7291,24.4565 -23.5462,36.6655 -40.508,63.2668 -83.8444,127.9103 -93.752,139.8468 -0.7526,0.9067 -4.3684,5.8792 -8.0351,11.0501 -9.845,13.8835 -36.8461,48.0875 -49.7079,62.9679 l -11.2365,13 h -8.1227 -8.1227 z m 48.4642,3.6093 c 0,-0.3982 7.0844,-9.5482 15.7431,-20.3334 8.6587,-10.7851 17.2002,-21.7093 18.981,-24.2759 1.7809,-2.5667 3.9573,-5.5667 4.8366,-6.6667 4.7774,-5.977 28.7873,-39.5571 37.816,-52.8893 9.9509,-14.6941 31.7509,-47.4766 37.9779,-57.1107 4.2659,-6.6 13.2747,-20.4 20.0195,-30.6667 6.7448,-10.2666 18.1153,-27.9666 25.2678,-39.3333 20.056,-31.8725 89.61712,-137.38134 91.42192,-138.66672 0.5148,-0.36666 2.6611,-3.36894 4.7695,-6.67172 7.1936,-11.26881 41.4437,-56.73702 58.7516,-77.99494 31.0477,-38.13327 68.2967,-74.47041 98.4151,-96.00595 22.6208,-16.17446 54.2039,-30.29625 76.4026,-34.162 5.0036,-0.87134 16.1854,-1.22961 26.7626,-0.85749 19.2279,0.67645 32.3699,3.80453 47.1682,11.22703 l 6.3333,3.17666 v 7.90418 7.90416 l -7,-3.0579 c -15.9691,-6.97597 -28.3969,-9.36374 -49,-9.41445 -13.9879,-0.0344 -21.9797,0.59597 -28.9046,2.28001 -39.5199,9.61063 -75.9617,32.75351 -119.1572,75.67242 -22.9658,22.81872 -32.5003,33.52242 -54.7301,61.44165 -32.0321,40.2303 -48.9071,63.66194 -86.34352,119.89166 -10.0089,15.0333 -18.6479,27.5333 -19.1979,27.7777 -0.55,0.2445 -1,0.9668 -1,1.6052 0,0.6384 -6.2113,10.6385 -13.8028,22.2223 -7.5916,11.5838 -19.1623,29.4615 -25.7127,39.7282 -24.8964,39.0207 -74.9546,115.3598 -76.5024,116.6667 -0.4343,0.3666 -2.0696,2.7754 -3.634,5.3528 -4.1968,6.9142 -42.761,60.8216 -46.3481,64.7882 -0.7334,0.8109 -6.4334,8.1481 -12.6667,16.3049 l -11.3333,14.8305 -7.6667,0.028 c -4.2167,0.016 -7.6667,-0.2974 -7.6667,-0.6956 z m 51.5391,-0.9427 c 0.5664,-0.9166 9.1907,-13.0666 19.1651,-27 16.7457,-23.3922 27.9985,-39.5099 31.2928,-44.8214 0.735,-1.1852 5.7926,-8.6852 11.2391,-16.6667 5.4465,-7.9815 12.0905,-17.8119 14.7645,-21.8452 10.1251,-15.2722 15.3767,-23.3076 16.6661,-25.5007 0.7333,-1.2472 4.3333,-6.6856 8,-12.0852 3.6667,-5.3996 14.1667,-21.3811 23.3333,-35.5144 29.7949,-45.9383 43.2775,-66.2244 44.3153,-66.6775 0.5599,-0.2444 1.0181,-1.0374 1.0181,-1.7621 0,-1.0557 16.06832,-25.5309 20.40772,-31.0851 0.5909,-0.7563 7.5885,-10.9751 15.5502,-22.7084 7.9616,-11.7334 15.4506,-22.4059 16.6422,-23.7167 1.1916,-1.3108 3.1941,-4.0224 4.4499,-6.0257 5.1979,-8.29192 35.2486,-47.7134 51.5032,-67.56365 71.0601,-86.77905 131.8231,-128.79868 186.7801,-129.16474 16.1808,-0.10774 28.52,2.15904 42.6667,7.83825 l 10.6666,4.28215 0.4014,8.34396 c 0.3644,7.57726 0.1807,8.25764 -2,7.40457 -20.3408,-7.95709 -36.033,-10.71668 -54.4014,-9.56687 -42.6812,2.67171 -83.5469,26.06219 -134.0414,76.72189 -35.2538,35.36915 -71.4268,80.1327 -113.7633,140.78014 -9.6345,13.8016 -59.14022,87.8587 -70.85912,106.0001 -4.974,7.7 -11.2094,17.2774 -13.8565,21.2831 -2.6472,4.0057 -5.413,8.306 -6.1463,9.5562 -0.7334,1.2503 -4.0953,6.3729 -7.471,11.3836 -3.3757,5.0107 -17.859,26.8104 -32.1851,48.4438 -14.3261,21.6333 -30.3142,45.4906 -35.529,53.0163 -5.2149,7.5256 -9.4816,14.2756 -9.4816,15 0,0.7243 -0.5485,1.317 -1.219,1.317 -0.6704,0 -3.0596,2.85 -5.3094,6.3333 -4.1924,6.4913 -10.7487,15.8849 -15.4547,22.143 -2.333,3.1024 -3.5778,3.5237 -10.4121,3.5237 -5.8701,0 -7.5112,-0.4063 -6.7324,-1.6667 z m 55.415,-6.3107 c 3.1419,-4.3875 7.2126,-10.3552 9.0459,-13.2614 5.3463,-8.4751 59.7973,-89.9336 61.3003,-91.7049 0.7515,-0.8857 1.3664,-1.9512 1.3664,-2.3678 0,-1.4966 82.73642,-126.4155 99.36272,-150.0218 30.7001,-43.5889 69.2533,-93.94943 80.6373,-105.33342 0.3667,-0.36666 4.9346,-5.46666 10.151,-11.33333 5.2164,-5.86667 16.0164,-17.08152 24,-24.92191 63.2974,-62.16186 116.6595,-83.07485 168.849,-66.1731 l 9,2.91469 v 8.33041 8.33043 l -4.3333,-1.29375 c -21.5635,-6.43792 -36.3733,-7.71921 -53.7695,-4.65198 -39.5184,6.96772 -76.804,30.07746 -121.7524,75.4625 -37.3733,37.73647 -86.6522,101.46766 -135.5607,175.31776 -5.8212,8.7899 -11.0672,16.5899 -11.6577,17.3333 -3.4961,4.4015 -66.70182,101.6947 -67.45972,103.8412 -0.2933,0.8308 -0.9846,1.8105 -1.5363,2.1772 -0.5516,0.3666 -5.7117,7.9512 -11.4667,16.8545 -16.6963,25.8299 -28.5551,43.648 -36.797,55.2885 -4.2167,5.9554 -7.6667,11.3595 -7.6667,12.0091 0,0.6497 -3.9207,1.1812 -8.7126,1.1812 h -8.7126 z m 47.8782,4.9774 c 0.876,-1.65 8.901,-14.1 17.8333,-27.6667 8.9324,-13.5666 19.7137,-30.0666 23.9585,-36.6666 20.8983,-32.4931 33.3462,-51.446 63.75912,-97.0781 30.938,-46.4199 40.1083,-59.9584 44.0151,-64.9813 0.8809,-1.1327 3.6659,-5.0327 6.1888,-8.6667 7.9249,-11.4152 36.2418,-48.8899 43.7816,-57.9407 3.9708,-4.7667 9.7124,-11.6601 12.7589,-15.3187 24.5397,-29.47041 55.1292,-59.4846 77.442,-75.9857 40.5851,-30.01416 78.1126,-41.66159 111.6766,-34.66122 15.4053,3.21306 14.4205,2.42392 14.4205,11.55552 v 8.07682 l -4.3333,-0.91266 c -48.4572,-10.20568 -96.2279,9.3728 -151,61.8863 -20.5061,19.66044 -32.1987,32.58684 -56.2258,62.15874 -14.1938,17.4696 -15.5449,19.2119 -25.7439,33.201 -3.7426,5.1333 -7.788,10.5159 -8.9899,11.9612 -10.1947,12.2592 -80.3366,116.5917 -105.04042,156.2423 -1.4667,2.3541 -4.8489,7.4713 -7.5161,11.3716 -2.6671,3.9004 -11.5708,17.5916 -19.786,30.4249 -25.4691,39.7867 -22.1328,35.9257 -31.0782,35.9656 -7.5861,0.034 -7.6872,-0.015 -6.1208,-2.9656 z m 49.9946,1.3333 c 0.5413,-0.9166 3.5188,-5.5666 6.6166,-10.3333 3.0979,-4.7667 14.654,-22.7667 25.68032,-40 11.0263,-17.2333 20.6842,-32.058 21.462,-32.9437 0.7778,-0.8857 1.4142,-1.9104 1.4142,-2.2771 0,-0.7412 55.2179,-83.1248 64.8666,-96.7792 22.251,-31.4885 50.6776,-67.9229 69.6992,-89.3333 19.7169,-22.1933 50.7983,-51.9117 64.1009,-61.2901 22.2899,-15.71465 42.0721,-26.07641 58.6667,-30.72929 11.5503,-3.23855 31.5715,-4.7656 44.4289,-3.38869 l 8.9044,0.95358 v 8.2272 8.22722 l -18.3323,0.0195 c -23.6777,0.0252 -32.8494,2.2889 -56.9988,14.06818 -8.6189,4.2039 -8.3676,4.0551 -23.2954,13.7951 -28.5774,18.6461 -69.3449,59.7649 -103.8888,104.7839 -5.9083,7.7 -11.5089,14.8657 -12.4458,15.9237 -0.9368,1.058 -8.1303,10.958 -15.9854,22 -7.8552,11.042 -14.8151,20.7045 -15.4665,21.4723 -1.1132,1.3123 -33.1107,48.9884 -49.6224,73.9373 -4.1253,6.2334 -16.0861,24.8334 -26.5794,41.3334 -10.4934,16.5 -21.15562,33.15 -23.69392,37 l -4.6151,7 h -7.949 c -5.9953,0 -7.7071,-0.4097 -6.9648,-1.6667 z m 51.17312,0.8499 c 0,-2.3145 77.7908,-121.2078 89.8757,-137.3635 2.2684,-3.0325 5.0243,-6.8431 6.1243,-8.4679 15.2022,-22.4554 49.1416,-65.1434 67.7341,-85.194 28.3267,-30.5483 49.9124,-49.1641 73.2464,-63.1689 23.4093,-14.0499 40.2552,-19.5942 62.6862,-20.6311 l 15,-0.6935 v 8.0112 8.0111 l -10.3333,0.9117 c -40.536,3.5766 -79.8012,26.2269 -123,70.9527 -25.9836,26.902 -45.0037,49.8115 -68.5245,82.5369 -6.2901,8.7517 -12.3303,17.1121 -13.4227,18.5788 -13.4867,18.1076 -60.7035,89.2588 -78.085,117.6666 l -5.9147,9.6667 h -7.6932 c -4.2313,0 -7.6933,-0.3676 -7.6933,-0.8168 z m 53.42,-4.1157 c 1.6798,-2.7871 5.8559,-9.2927 9.2803,-14.4569 3.4243,-5.1642 6.4676,-9.9642 6.7629,-10.6667 0.977,-2.3244 42.3324,-63.7265 44.8868,-66.6452 0.6584,-0.7524 2.3475,-3.1524 3.7535,-5.3334 6.6962,-10.3872 37.8322,-51.0219 47.8965,-62.5084 24.2508,-27.6776 36.2182,-39.9891 53.5377,-55.0774 26.7398,-23.295 59.5946,-40.6738 82.5545,-43.6678 3.616,-0.4715 7.9245,-1.136 9.5745,-1.4766 2.8606,-0.5905 3,-0.2267 3,7.8282 v 8.4475 l -9,1.7747 c -66.8072,13.1741 -133.9587,81.465 -232.4625,236.4069 l -6.1291,9.6409 -8.3547,0.4009 -8.3547,0.4009 z m 51.8344,-0.7342 c 2.1263,-3.1166 7.5139,-11.2166 11.9725,-18 14.9992,-22.8201 23.8517,-35.5702 37.7238,-54.3333 56.2247,-76.0482 103.6364,-118.4903 147.6362,-132.1614 5.5439,-1.7226 10.5584,-3.1409 11.1434,-3.1519 0.585,-0.011 0.885,3.6514 0.6667,8.1387 l -0.397,8.1587 -11.3774,4.1746 c -26.0495,9.5582 -47.5022,24.5668 -77.4351,54.1746 -31.7345,31.39 -69.474,79.6885 -102.3136,130.9398 l -4.8739,7.6063 -8.3058,0.06 -8.3059,0.06 3.8661,-5.6667 z m 48.8991,4 c 7.6505,-13.0436 45.9314,-64.2468 60.5578,-81 16.9804,-19.4494 41.9135,-43.6242 56.0377,-54.3335 7.012,-5.3165 13.462,-9.6665 14.3334,-9.6665 0.8714,0 1.5843,-0.4964 1.5843,-1.1033 0,-1.2039 24.1931,-13.5633 26.5498,-13.5633 0.8778,0 1.4502,3.048 1.4502,7.7222 v 7.7223 l -7.179,3.5209 c -24.5556,12.0431 -56.6907,38.6954 -79.814,66.1962 -5.3205,6.3278 -10.3486,12.105 -11.1735,12.8384 -3.0672,2.7265 -22.908,28.5795 -35.0489,45.6694 l -12.5488,17.6639 h -7.8632 c -5.9231,0 -7.6221,-0.4112 -6.8858,-1.6667 z m 51.2064,0.6667 c 0.1118,-4.2079 36.4822,-47.741 56.5362,-67.6704 20.0027,-19.8783 33.761,ÐcäV  ÐcäV                  °¬äV          €ªäV  8däV          ðcäV   @      ðcäV          .1589,12.1226 -46.9993,39.0846 -70.1578,67.944 -7.3311,9.1359 -14.0008,17.6859 -14.8215,19 -1.1538,1.8476 -3.2333,2.3893 -9.1714,2.3893 -4.2236,0 -7.6673,-0.45 -7.6527,-1 z m 56.5199,-6.7092 c 7.7341,-9.8442 32.8508,-35.3583 43.7395,-44.4314 l 8.3807,-6.9832 0.3936,7.3495 0.3935,7.3496 -22.1273,22.2123 -22.1274,22.2124 h -7.3546 -7.3547 z m 46.1202,7.0425 c 0,-0.3666 1.2,-1.8666 2.6667,-3.3333 3.4537,-3.4537 4,-3.3626 4,0.6667 0,2.6666 -0.6667,3.3333 -3.3333,3.3333 -1.8334,0 -3.3334,-0.3 -3.3334,-0.6667 z M 4.7081751,1288.6962 v -7.6994 l 14.9999999,-8.9051 c 28.4146,-16.869 58.1255,-30.1582 119.666605,-53.5247 20.1667,-7.6571 44.1667,-17.0937 53.3334,-20.9704 64.3628,-27.2195 110.2449,-58.546 165.3333,-112.8832 26.3212,-25.9624 46.0881,-48.4175 67.1815,-76.3179 8.5935,-11.36662 16.3463,-21.56662 17.2284,-22.66662 2.1489,-2.67966 18.4191,-25.13633 21.2525,-29.33333 1.2376,-1.83333 4.1694,-6.03333 6.515,-9.33333 7.8654,-11.06574 32.5788,-48.48578 44.4691,-67.33334 6.4769,-10.26666 13.7662,-21.74602 16.1986,-25.50967 3.9753,-6.15115 24.7501,-40.08738 33.6648,-54.99236 1.9195,-3.20946 8.1401,-13.58891 13.8234,-23.06544 5.6834,-9.47654 10.3334,-17.51347 10.3334,-17.85987 0,-0.34641 1.4147,-2.86696 3.1438,-5.60124 4.5485,-7.19249 18.1105,-30.31962 36.1453,-61.63808 8.657,-15.03333 18.1992,-31.53333 21.2049,-36.66666 3.0056,-5.13334 6.1107,-10.53334 6.9002,-12 0.7895,-1.46667 3.7988,-6.77582 6.6873,-11.7981 2.8885,-5.02228 6.6758,-11.62228 8.4162,-14.66666 13.0046,-22.74827 39.8882,-68.87684 49.4612,-84.86857 6.3653,-10.63334 13.8234,-23.23334 16.5736,-28 2.7502,-4.76667 7.6388,-12.86667 10.8634,-18 3.2247,-5.13334 7.0861,-11.43333 8.5809,-14 1.4948,-2.56667 3.3176,-5.56667 4.0508,-6.66667 0.7331,-1.1 5.0873,-8.3 9.676,-16 31.1255,-52.23013 83.3518,-128.29815 117.633,-171.33333 36.8611,-46.27402 94.9699,-103.77578 127.33002,-125.9999 2.5667,-1.76272 4.9667,-3.59677 5.3334,-4.07568 1.614,-2.10811 35.2346,-23.60082 49.2526,-31.4859 13.4085,-7.54218 72.1876,-36.937683 87.414,-43.715843 20.4799,-9.116768 79.7852,-38.375547 82.8066,-40.853338 0.8104,-0.664509 4.3111,-2.717061 7.7795,-4.561228 3.4684,-1.844166 12.0179,-6.942921 18.9989,-11.330566 11.5873,-7.2827366 13.3419,-7.9775356 20.1463,-7.9775356 h 7.4535 l -4.5924,3.4284246 c -6.4285,4.799194 -36.6195,23.533313 -48.2393,29.933429 -12.7441,7.019381 -51.9743,26.314226 -69.2871,34.077916 -7.5529,3.387012 -16.4326,7.372916 -19.7326,8.857565 -24.4275,10.989787 -64.7254,31.149756 -83.3334,41.689506 -54.7612,31.01734 -114.74122,83.50558 -165.99992,145.26585 -30.5541,36.81381 -79.7147,106.35589 -110.8077,156.7473 -3.8461,6.23333 -9.8878,15.69491 -13.426,21.02572 -3.5382,5.33083 -6.433,9.91904 -6.433,10.19605 0,0.27702 -5.7852,10.01544 -12.856,21.64095 -23.8328,39.18486 -44.6872,74.41128 -65.7942,111.13728 -17.1758,29.88575 -27.548,47.79473 -29.3441,50.66666 -0.6879,1.1 -3.2641,5.6 -5.7247,10 -4.5235,8.08848 -24.4382,42.72468 -37.9479,66 -11.5723,19.93728 -28.9052,49.2808 -44.1049,74.66666 -7.6839,12.83334 -17.5029,29.33334 -21.8201,36.66667 -32.3251,54.90901 -85.9819,135.34953 -119.1773,178.66658 -39.7498,51.8701 -68.0646,82.5048 -107.2308,116.0163 -7.7,6.5883 -14.3,12.2928 -14.6667,12.6768 -4.738,4.9615 -35.6164,26.7394 -51.8021,36.535 -30.7015,18.5805 -53.4105,28.9246 -133.5312,60.8239 -51.471105,20.4927 -84.815905,37.0728 -112.884605,56.13 -5.2532,3.5667 -9.9031999,6.4848 -10.3332999,6.4848 -0.4302,0 -0.7821,-3.4647 -0.7821,-7.6994 z m 0.2702,-51.2237 0.3965,-8.2212 13.3332999,-5.5557 c 17.1087,-7.1289 57.5613,-21.4957 80.6666,-28.6489 65.849105,-20.3863 104.981805,-36.0231 141.333405,-56.4744 11.818,-6.6488 38.1418,-23.901 45.2752,-29.6727 47.5438,-38.4678 76.185,-66.8352 112.2441,-111.17072 31.3916,-38.5967 78.7327,-106.43681 114.4447,-163.99999 7.5068,-12.1 14.9898,-24.1 16.6288,-26.66667 6.175,-9.66965 8.0713,-12.74771 9.567,-15.52921 2.181,-4.05571 18.9741,-32.21624 22.5439,-37.80412 1.6397,-2.56667 6.7525,-11.26667 11.3618,-19.33333 4.6093,-8.06667 9.0938,-15.56667 9.9657,-16.66667 0.8719,-1.1 3.7034,-5.9 6.2923,-10.66667 2.5888,-4.76666 9.0832,-16.16666 14.4318,-25.33333 5.3486,-9.16667 14.9319,-25.66667 21.2961,-36.66667 6.3643,-11 15.7653,-27.2 20.8913,-36 5.1259,-8.79999 9.5608,-16.60215 9.8552,-17.33814 0.2945,-0.73597 4.8003,-8.53597 10.0129,-17.33333 12.249,-20.67255 20.7162,-35.18842 22.8366,-39.15011 2.844,-5.31384 40.4937,-68.6261 42.9221,-72.17841 1.2532,-1.83333 5.8378,-9.25828 10.1879,-16.49989 4.3501,-7.24162 8.5165,-14.14162 9.2587,-15.33334 0.7422,-1.19172 3.9283,-6.36677 7.0803,-11.5001 3.152,-5.13334 7.9447,-12.71828 10.6506,-16.85543 2.7058,-4.13716 7.2776,-11.33716 10.1596,-16 5.7967,-9.37864 28.5994,-43.74364 35.2638,-53.14457 2.3394,-3.3 6.9552,-9.9 10.2574,-14.66667 9.7484,-14.07166 13.9307,-19.77398 27.2602,-37.16728 6.9549,-9.07533 13.8453,-18.11933 15.312,-20.09776 14.6864,-19.81098 65.1661,-74.00797 90.721,-97.40162 23.8272,-21.81205 53.32312,-43.68152 85.71542,-63.55282 7.5734,-4.645949 13.9183,-8.44718 14.0999,-8.44718 0.1816,0 6.5852,-3.484693 14.2303,-7.743764 12.3217,-6.86449 70.988,-36.256235 72.3678,-36.256235 1.98,0 79.3351,-38.104721 81.4656,-40.1294856 0.6966,-0.662115 4.8966,-1.19323 9.3333,-1.180255 l 8.0667,0.02359 -9.3334,5.4845526 c -8.3506,4.907108 -57.4102,29.334249 -87.3333,43.483932 -48.2903,22.834954 -92.7604,46.201645 -103.5777,54.424575 -2.3344,1.77453 -4.6173,3.22642 -5.0732,3.22642 -3.3008,0 -49.97432,34.27546 -65.29752,47.95239 -16.7069,14.91191 -60.9334,59.01676 -68.2354,68.04761 -2.0753,2.56667 -4.1361,4.96667 -4.5796,5.33333 -2.637,2.18032 -29.2686,34.71471 -43.2348,52.81754 -3.5038,4.54148 -13.4285,18.26552 -19.3351,26.7369 -1.1,1.57763 -5.5766,7.87327 -9.9481,13.99032 -16.3558,22.88717 -54.0519,80.16851 -54.0519,82.13491 0,0.42736 -0.8446,1.72426 -1.8768,2.88201 -1.7965,2.01491 -13.8572,21.13676 -17.7266,28.10499 -1.018,1.83333 -4.8511,8.13333 -8.5179,14 -3.6668,5.86666 -11.8371,19.36666 -18.1562,29.99999 -6.319,10.63334 -14.7914,24.73334 -18.8275,31.33334 -4.0362,6.6 -9.1383,15.3 -11.3381,19.33333 -2.1999,4.03333 -6.5154,11.53333 -9.5901,16.66667 -3.0747,5.13333 -7.1129,12.03333 -8.9737,15.33333 -1.8609,3.3 -8.6175,15 -15.0147,26 -6.3973,11 -17.3376,29.9 -24.3118,42 -6.9743,12.1 -14.6064,25.3 -16.9603,29.33333 -15.7426,26.97441 -20.8647,35.78295 -29.0747,50 -5.0818,8.8 -10.3044,17.8 -11.6059,20 -1.3014,2.2 -4.4509,7.6 -6.9989,12 -5.9116,10.20856 -15.9973,27.08921 -20.0829,33.61302 -1.7406,2.77951 -5.4549,8.95364 -8.2538,13.72031 -17.3549,29.55579 -64.7799,103.57121 -85.3568,133.21512 -20.9414,30.16904 -51.7531,71.0259 -69.4698,92.11816 -34.4904,41.0621 -81.8702,84.9023 -119.8635,110.9091 -29.2474,20.0201 -69.8345,40.2358 -109.3334,54.457 -21.4232,7.7133 -50.5154,17.8068 -58,20.1231 -4.766605,1.4751 -10.557305,3.5436 -12.868105,4.5965 -2.3109,1.0529 -4.5843,1.9144 -5.0522,1.9144 -3.344,0 -50.932,19.2229 -67.2726,27.1744 -14.6855999,7.1461 -13.6571999,7.3094 -13.2034999,-2.0975 z m -0.2702,-51.0254 v -8.2969 l 18.9999999,-4.8821 c 10.45,-2.6852 31.3,-7.8046 46.3333,-11.3763 15.0333,-3.5718 35.629805,-8.681 45.769905,-11.3539 91.1856,-24.0359 148.1102,-56.601 216.6981,-123.9677 16.2295,-15.9404 48.0813,-51.9196 60.9441,-68.84132 3.6234,-4.76666 6.9176,-8.96666 7.3206,-9.33333 0.9918,-0.90249 23.8647,-31.53415 27.3393,-36.61311 1.5252,-2.22945 5.3212,-7.65356 8.4355,-12.05356 29.9778,-42.35335 97.5736,-149.26558 124.7651,-197.33332 1.6594,-2.93334 4.3506,-7.68826 5.9804,-10.56651 1.6299,-2.87824 5.0622,-8.51419 7.6275,-12.52432 2.5652,-4.01015 5.2254,-8.55523 5.9114,-10.10017 0.6861,-1.54495 4.8367,-8.809 9.2237,-16.14234 4.387,-7.33333 12.0281,-20.3955 16.9803,-29.02706 15.5576,-27.11629 18.2512,-31.77145 31.0364,-53.6396 6.8599,-11.73333 13.429,-23.13333 14.598,-25.33333 1.169,-2.2 9.2511,-16 17.9602,-30.66667 8.7092,-14.66667 18.4624,-31.16667 21.6739,-36.66667 3.2114,-5.49999 6.4095,-10.89999 7.1067,-11.99999 0.6972,-1.1 2.4882,-4.1 3.98,-6.66667 1.4918,-2.56667 4.0481,-6.80159 5.6806,-9.41092 1.6326,-2.60935 4.7216,-7.70935 6.8646,-11.33333 5.086,-8.60114 12.132,-20.0162 18.7704,-30.40967 2.9333,-4.59261 6.0322,-9.51177 6.8863,-10.93148 6.312,-10.49103 34.5629,-54.45461 36.7874,-57.24793 0.584,-0.73333 7.7963,-11.14459 16.0274,-23.13612 20.1063,-29.29224 21.4136,-31.12959 33.1797,-46.63305 45.0902,-59.41291 107.2177,-124.65976 141.6285,-148.73972 3.0199,-2.11322 5.7907,-4.21663 6.1573,-4.67425 1.0789,-1.34645 10.6444,-8.4004 19.2979,-14.23093 28.44532,-19.165728 36.07962,-23.937417 52.70212,-32.940498 4.0334,-2.184534 8.7528,-4.857745 10.4876,-5.940468 4.0084,-2.501629 44.5124,-22.724065 56.8458,-28.381336 48.5412,-22.265744 62.7651,-27.9883166 69.3181,-27.8880606 l 6.6819,0.102227 -7.3939,3.5644386 c -4.0667,1.960442 -12.4667,5.902223 -18.6667,8.759515 -6.2,2.857291 -18.0976,8.40729 -26.439,12.333333 -8.3414,3.926041 -15.3798,7.138257 -15.6408,7.138257 -0.261,0 -9.0361,4.284652 -19.5004,9.521448 -10.4642,5.236797 -23.1225,11.55177 -28.1295,14.033274 -26.4406,13.104188 -67.2716,38.75124 -93.97952,59.03103 -53.7965,40.84875 -113.5764,104.87196 -163.7882,175.41424 -17.3181,24.32999 -33.7954,48.44913 -33.7954,49.46893 0,0.4477 -1.7068,3.00034 -3.793,5.67254 -5.6524,7.24042 -50.9866,79.48485 -74.1667,118.19186 -15.468,25.82909 -18.0403,30.27148 -18.0403,31.15611 0,0.53748 -0.75,1.72233 -1.6666,2.63301 -0.9167,0.91068 -3.4667,4.90891 -5.6667,8.88496 -2.2,3.97604 -6.7667,11.90093 -10.1482,17.61088 -12.5686,21.22289 -45.2749,77.57994 -57.4817,99.04837 -1.4594,2.56667 -5.8037,10.06667 -9.6539,16.66667 -3.8502,6.6 -8.5015,14.7 -10.3362,18 -1.8348,3.3 -6.9165,12 -11.2928,19.33333 -4.3763,7.33333 -13.239,22.33333 -19.695,33.33333 -12.7936,21.79824 -18.1697,30.73585 -34.8881,58 -6.0707,9.9 -13.5645,22.2 -16.6531,27.33333 -6.1848,10.27967 -15.5964,25.16356 -20.9613,33.14939 -1.9027,2.83216 -4.0812,6.22451 -4.8412,7.53856 -3.3586,5.80712 -19.0445,29.75167 -27.1631,41.46448 -4.887,7.0505 -11.2707,16.3505 -14.1861,20.66666 -7.7951,11.54031 -54.2939,73.21158 -62.214,82.51424 -22.2901,26.18112 -54.4095,59.39672 -70.2917,72.69042 -3.9269,3.287 -8.4269,7.1101 -10,8.4959 -17.2113,15.1617 -51.6236,39.7167 -65.6063,46.8137 -2.8897,1.4667 -5.554,3.0573 -5.9206,3.5346 -0.5686,0.7402 -11.2104,5.9024 -35.3334,17.1395 -21.7894,10.15 -62.8003,23.0871 -130.666605,41.2193 -13.9333,3.7227 -32.6833,9.0979 -41.6667,11.945 l -16.3332999,5.1766 z m 0,-51.3848 c 0,-4.4 0.1942,-8 0.4315,-8 1.4668,0 52.5244999,-6.9985 66.9017999,-9.1703 41.876505,-6.3257 89.020905,-18.4702 112.272505,-28.9217 30.5706,-13.7413 47.0279,-22.6192 65.0608,-35.097 9.9215,-6.8651 27.1448,-19.7867 28.6667,-21.5069 0.3667,-0.4145 6.0667,-5.2073 12.6667,-10.6507 24.1662,-19.9313 62.9727,-60.9094 87.1122,-91.98682 5.981,-7.7 11.5732,-14.82716 12.4272,-15.83813 0.854,-1.01097 4.9411,-6.41097 9.0824,-12 37.9319,-51.19209 71.8213,-102.32994 116.3019,-175.49519 18.7657,-30.8672 43.7429,-72.76492 43.7429,-73.37582 0,-0.31482 2.0109,-3.73405 4.4686,-7.59829 2.4577,-3.86424 9.4222,-15.72589 15.4767,-26.35923 6.0544,-10.63333 15.0727,-26.23333 20.0406,-34.66666 18.8556,-32.00892 31.8279,-54.16485 34.3493,-58.66667 1.4376,-2.56666 5.4431,-9.46666 8.9012,-15.33333 3.458,-5.86667 6.8027,-11.56667 7.4326,-12.66667 11.3471,-19.81724 54.905,-92.00115 66.1588,-109.63807 1.7448,-2.73428 3.1722,-5.53428 3.1722,-6.22223 0,-0.68795 0.45,-1.4508 1,-1.69525 1.2106,-0.53804 9.6667,-12.53668 9.6667,-13.7164 0,-0.45982 1.138,-2.46172 2.529,-4.4487 1.3909,-1.98697 8.2405,-12.31268 15.2212,-22.94601 35.4804,-54.0449 67.4989,-97.60409 95.0674,-129.33333 1.5929,-1.83333 8.2928,-9.63333 14.8886,-17.33333 35.742,-41.72553 82.1298,-83.20493 125.6252,-112.332578 13.833,-9.2636 30.46742,-19.66742 31.44572,-19.66742 0.2774,0 3.7337,-2.065723 7.6806,-4.590495 11.4021,-7.293895 52.9312,-27.633804 76.209,-37.325339 11.7333,-4.885082 22.3752,-9.4524616 23.6485,-10.1497326 1.2734,-0.697271 5.7734,-1.235047 10,-1.195057 l 7.6848,0.07271 -6.6667,2.698715 c -24.1927,9.7933846 -52.2727,22.8044696 -84.6666,39.2309576 -12.2554,6.214502 -41.1347,23.490846 -57.33342,34.298227 -47.8148,31.901032 -93.3106,73.002772 -133.9855,121.045062 -5.8587,6.91989 -12.6035,14.68161 -14.9884,17.24828 -2.385,2.56667 -4.3415,5.0086 -4.3478,5.42652 -0.01,0.41792 -1.8519,2.81792 -4.1011,5.33333 -2.2492,2.51542 -6.5992,7.87348 -9.6666,11.90682 -3.0675,4.03333 -6.1772,8.05865 -6.9106,8.94514 -1.8444,2.22971 -8.1075,10.59443 -20.2572,27.05486 -11.3432,15.36781 -52.9757,77.60539 -67.7428,101.27055 -25.3976,40.70126 -33.5632,53.93498 -42.1047,68.23818 -4.3424,7.27152 -7.8953,13.4951 -7.8953,13.83021 0,0.33509 -2.0179,3.77092 -4.4842,7.63516 -4.3189,6.76693 -31.452,52.69156 -38.4184,65.02589 -1.8638,3.3 -7.4553,12.9 -12.4256,21.33333 -4.9702,8.43334 -10.5404,18.03334 -12.3782,21.33334 -1.8378,3.3 -4.3855,7.5 -5.6615,9.33333 -1.2761,1.83333 -4.1335,6.63333 -6.3499,10.66667 -6.0037,10.92546 -22.1383,38.76899 -26.1264,45.08653 -1.919,3.03993 -3.4891,5.85193 -3.4891,6.24889 0,0.39696 -1.4181,2.95888 -3.1513,5.69316 -1.7332,2.73428 -14.1832,23.41511 -27.6666,45.95741 -13.4835,22.5423 -26.1557,43.54229 -28.1605,46.66667 -2.0048,3.12436 -4.0753,6.58066 -4.6012,7.68066 -1.3797,2.88596 -12.0712,20.16488 -20.6253,33.33334 -8.1261,12.50942 -21.0466,32.68096 -23.1284,36.1081 -0.7334,1.20722 -5.5108,8.42675 -10.6165,16.04342 -5.1058,7.61666 -9.9058,14.85564 -10.6667,16.08662 -6.4251,10.39407 -61.7835,85.55179 -64.6422,87.76185 -0.4743,0.36667 -6.8099,7.86667 -14.0791,16.66667 -17.0265,20.61183 -55.8736,59.45825 -74.6622,74.66085 -8.0667,6.527 -15.5667,12.6453 -16.6667,13.5962 -12.0012,10.3742 -41.0483,28.8474 -61.7842,39.293 -34.8154,17.5382 -82.5317,32.227 -135.549105,41.7269 -33.2004,5.949 -65.1937999,11.3211 -67.6665999,11.3621 -1.1513,0.019 -1.6667,-2.4465 -1.6667,-7.9723 z m 0,-51.1394 v -8.8606 l 23.6666999,-0.039 c 39.2701,-0.064 69.6544,-3.0941 100.211705,-9.992 14.02,-3.1648 30.2905,-7.704 35.4549,-9.8911 1.4667,-0.6211 5.6667,-2.1736 9.3333,-3.45 13.123,-4.568 32.1825,-13.5237 45.3334,-21.3011 10.1289,-5.9903 26.9538,-16.8537 31.3141,-20.2186 35.3264,-27.26254 72.0252,-61.55919 93.5965,-87.47016 5.6342,-6.76766 11.3342,-13.5257 12.6667,-15.01786 1.3325,-1.49216 4.2726,-5.09216 6.5336,-8 2.261,-2.90784 9.5034,-12.18697 16.0942,-20.6203 6.5908,-8.43333 15.1243,-19.83333 18.9634,-25.33333 7.5457,-10.81022 23.5118,-33.16767 25.2325,-35.33334 0.5826,-0.73333 9.7809,-14.53333 20.4405,-30.66666 26.4075,-39.96756 68.757,-108.21589 94.319,-152 5.9939,-10.26667 11.4268,-19.56667 12.0732,-20.66667 0.6464,-1.1 6.562,-10.99999 13.1457,-21.99999 6.5838,-11 16.4675,-27.8 21.9639,-37.33334 12.3162,-21.36214 23.7358,-40.9327 28.0086,-48 1.7734,-2.93333 9.413,-15.83333 16.9768,-28.66666 25.8495,-43.85823 69.4416,-114.87047 87.7574,-142.95829 22.5284,-34.54799 56.5498,-83.12285 69.3679,-99.04171 2.9525,-3.66666 12.9984,-16.26666 22.3244,-28 9.3259,-11.73333 17.316,-21.63333 17.7556,-21.99999 0.4396,-0.36667 5.294,-5.76667 10.7874,-12 21.2699,-24.13442 64.5539,-65.98587 80.6786,-78.008329 2.9333,-2.187077 5.6333,-4.303262 6,-4.702635 0.6636,-0.722811 13.7758,-10.689082 22.6666,-17.228319 2.5667,-1.8878 7.3667,-5.222055 10.6667,-7.409457 3.3,-2.187403 6.3,-4.305855 6.6667,-4.707673 1.0276,-1.126112 23.4135,-14.76183 35.33332,-21.522278 14.8801,-8.439368 40.9634,-20.887552 59.3333,-28.316705 4.7667,-1.927726 9.7086,-4.0898766 10.9819,-4.8047796 1.2734,-0.714904 5.7734,-1.27853 10,-1.252503 l 7.6848,0.04736 -16,6.6692236 C 998.54468,44.461523 936.87298,85.948824 878.30348,144.15602 c -28.1828,28.00851 -35.366,36.03669 -64.5948,72.19343 -8.6164,10.65869 -17.3801,21.48624 -19.4748,24.06123 -13.5327,16.63517 -65.4617,92.27936 -87.4026,127.31821 -2.7553,4.4 -8.2558,13.1 -12.2235,19.33333 -3.9676,6.23333 -7.2182,12.03333 -7.2234,12.88889 0,0.85555 -0.5112,1.75555 -1.1243,2 -1.2571,0.50122 -62.8853,102.75413 -62.8853,104.33868 0,0.25648 -3.9,6.83636 -8.6666,14.62195 -4.7667,7.78558 -8.6667,14.44389 -8.6667,14.79622 0,0.35235 -2.5032,4.70119 -5.5627,9.66411 -4.9126,7.96895 -23.4394,39.53509 -30.7293,52.35681 -5.0201,8.82955 -25.4129,43.33947 -28.3645,48 -3.2898,5.19451 -21.3607,35.84379 -23.8275,40.41252 -0.8673,1.60645 -3.8685,6.52081 -6.6694,10.92081 -2.8008,4.4 -14.3734,23 -25.7169,41.33334 -22.3864,36.18103 -59.7252,92.82737 -73.8254,111.99999 -4.8539,6.6 -12.083,16.50707 -16.0648,22.01571 -23.8892,33.05013 -53.2826,67.94456 -7ÐcäV  ÐcäV                  °¬äV          €ªäV  8däV          ðcäV   @      ðcäV          487 -109.000005,14.2432 l -18.3332999,0.9033 z m 8.9999999,-41.7613 -8.9999999,-0.5546 v -8.7503 c 0,-8.4075 0.1175,-8.7209 3,-8.0011 8.0524999,2.011 47.7744999,3.8066 67.6665999,3.0589 63.447905,-2.385 109.000905,-17.9416 165.333405,-56.46234 4.8581,-3.32201 27.7825,-21.50478 34,-26.96744 11.419,-10.03277 48.6828,-48.0908 59.4878,-60.75584 20.3732,-23.88011 47.2793,-58.2203 58.5026,-74.66666 2.5022,-3.66667 5.178,-7.35224 5.9462,-8.19015 0.7682,-0.83792 5.8967,-8.25234 11.3967,-16.47652 5.5,-8.22417 10.6,-15.64565 11.3333,-16.4922 3.2322,-3.7311 37.5626,-56.83431 55.2795,-85.50779 9.0623,-14.66667 17.7977,-28.76667 19.412,-31.33334 1.6142,-2.56666 4.3161,-7.06666 6.0042,-10 1.688,-2.93333 7.0841,-11.93333 11.9912,-20 8.5183,-14.00295 27.465,-45.95037 57.3292,-96.66666 7.5568,-12.83333 17.0169,-28.69376 21.0224,-35.2454 4.0055,-6.55164 8.4752,-14.05164 9.9327,-16.66666 1.4575,-2.61503 7.2352,-12.41915 12.8394,-21.78695 5.6042,-9.36779 11.1508,-18.66779 12.3257,-20.66667 26.3713,-44.86393 75.8766,-122.58429 97.86,-153.63431 2.8556,-4.03334 7.9181,-11.23334 11.2499,-16 3.3319,-4.76667 6.7749,-9.56667 7.6512,-10.66667 0.8763,-1.1 6.5346,-8.6 12.574,-16.66667 52.7537,-70.46163 96.5892,-116.90149 148.9113,-157.758353 32.3508,-25.26189 63.1277,-44.029331 98.69452,-60.18285 14.6484,-6.6529616 18.9514,-8.0453886 24.6666,-7.9819796 l 6.9229,0.07681 -7.3333,3.3172216 c -4.0334,1.824472 -9.6642,4.339908 -12.513,5.589859 -10.0122,4.392968 -38.34872,19.087394 -46.89482,24.318175 -4.7516,2.908287 -9.1786,5.287794 -9.8379,5.287794 -0.6594,0 -1.3988,0.481328 -1.6432,1.069618 -0.2445,0.588291 -5.5445,4.378259 -11.7778,8.422153 -10.2159,6.627564 -28.402,19.71724 -35.3333,25.431508 -1.4667,1.209141 -6.5667,5.374201 -11.3334,9.25569 -15.8977,12.945454 -35.4924,31.266524 -56.1366,52.487694 -27.4232,28.18956 -49.2603,54.31989 -80.2274,96 -9.2623,12.46666 -17.9803,24.16666 -19.3732,26 -5.6227,7.40028 -35.2441,51.45097 -46.272,68.81206 -6.4707,10.18669 -13.3846,20.92127 -15.3641,23.8546 -1.9796,2.93333 -6.3634,9.83333 -9.7418,15.33333 -3.3783,5.5 -6.6302,10.6 -7.2264,11.33334 -0.5962,0.73333 -3.5189,5.53333 -6.4948,10.66666 -2.976,5.13334 -12.1052,20.316 -20.2873,33.73926 -8.182,13.42325 -14.8764,24.59033 -14.8764,24.81572 0,0.32214 -16.7186,28.46819 -22.6382,38.11169 -0.6752,1.1 -4.9369,8.3 -9.4704,16 -4.5335,7.7 -13.3654,22.7 -19.6264,33.33333 -6.2609,10.63333 -15.8643,26.83333 -21.3408,36 -5.4765,9.16667 -11.4677,19.36667 -13.3137,22.66667 -1.8461,3.3 -7.5645,12.89999 -12.7077,21.33333 -5.1432,8.43333 -10.9003,17.94282 -12.7937,21.13221 -1.8933,3.18939 -4.4037,7.38939 -5.5787,9.33333 -1.1749,1.94395 -5.7275,9.53446 -10.1169,16.86779 -18.0833,30.21184 -29.9322,48.76527 -63.4379,99.33333 -28.1943,42.55187 -55.0557,80.26841 -68.8921,96.7324 -1.8792,2.23616 -5.4213,6.55717 -7.8712,9.60227 -2.4499,3.04507 -5.4499,6.69151 -6.6667,8.10318 -1.2167,1.41167 -4.6122,5.46848 -7.5456,9.01513 -22.0839,26.70136 -52.7234,57.36884 -76.6666,76.73656 -24.4069,19.74282 -42.6231,31.90095 -63.3334,42.27084 -31.6907,15.8681 -52.257,22.6257 -90,29.5717 -12.711705,2.3394 -21.602305,2.8902 -52.000005,3.2219 -20.1666,0.22 -40.7166,0.1505 -45.6666,-0.1546 z m 27.6667,-46.66313 c -9.9609,-1.23895 -32.2250999,-4.65648 -34.3333999,-5.27012 -1.8907,-0.55032 -2.3333,-2.2114 -2.3333,-8.75599 v -8.07681 l 4.3333,0.88993 c 35.1811999,7.2252 72.5158999,9.3089 100.3333049,5.59975 40.0676,-5.34256 78.4423,-19.81307 112.7679,-42.52303 28.1433,-18.61972 70.1345,-56.30657 94.6709,-84.96665 4.7087,-5.5 8.8937,-10.3 9.3001,-10.66666 1.1024,-0.99462 30.8069,-37.63762 34.1476,-42.12378 1.5875,-2.13192 7.8211,-10.47622 13.8524,-18.54289 15.7091,-21.01036 24.0499,-33.07119 48.8699,-70.66666 12.1035,-18.33334 23.7429,-35.83142 25.8654,-38.88464 2.1226,-3.05322 3.8592,-5.91 3.8592,-6.34842 0,-0.4384 2.3484,-4.24032 5.2187,-8.44869 7.1364,-10.46316 69.4479,-112.91854 69.4479,-114.18929 0,-0.36407 1.7333,-3.24203 3.8517,-6.39545 2.1184,-3.15343 5.0506,-7.83351 6.516,-10.40018 6.443,-11.28513 54.6699,-91.86521 69.3678,-115.90331 6.9825,-11.41984 13.9485,-22.93696 15.48,-25.59359 10.4807,-18.1806 74.2445,-116.56909 76.7998,-118.50309 0.4844,-0.36667 3.0586,-3.96667 5.7203,-8 16.5403,-25.06368 47.7645,-65.68232 79.5552,-103.491 23.0812,-27.4506 76.1158,-77.810036 102.0426,-96.895341 3.6666,-2.699123 7.2808,-5.366383 8.0315,-5.927243 14.3145,-10.695141 38.4751,-25.31552 57.8509,-35.007472 16.7618,-8.3843726 19.4772,-9.3420066 26.4005,-9.3106226 l 7.7171,0.03498 -10,4.4144496 c -65.2336,28.797032 -133.0493,84.639085 -199.0229,163.882999 -7.5041,9.01348 -15.1438,18.40399 -16.9771,20.86779 -1.8334,2.46381 -7.5462,9.9438 -12.6952,16.62221 -13.122,17.01957 -31.7195,42.63823 -44.6274,61.47591 -12.9707,18.92917 -35.9792,53.54333 -38.1103,57.33333 -0.8247,1.46667 -6.4687,10.46666 -12.5422,20 -18.7705,29.46337 -29.3583,46.9089 -29.3583,48.37405 0,0.77204 -0.5043,1.60372 -1.1207,1.84817 -0.6164,0.24444 -8.7984,13.34444 -18.1823,29.11111 -9.3839,15.76667 -18.4062,30.76667 -20.0496,33.33333 -1.6433,2.56667 -7.8744,13.06667 -13.8469,23.33333 -12.8385,22.06951 -10.7208,18.48539 -23.6346,40 -5.7223,9.53334 -19.361,32.33334 -30.3083,50.66667 -27.7128,46.41045 -55.2058,90.83284 -70.3894,113.7335 -2.0908,3.15343 -3.8015,5.97136 -3.8015,6.26206 0,0.9931 -44.2436,66.64563 -52.1183,77.33777 -29.7634,40.41204 -35.8934,48.37853 -54.0916,70.29734 -35.8747,43.20915 -68.9967,74.69443 -106.3121,101.05869 -34.9551,24.69664 -77.8765,41.90262 -118.1447,47.3609 -12.731505,1.72573 -58.995105,2.42145 -69.999905,1.05265 z m 5.3333,-47.71073 c -6.6,-0.91198 -18.75,-3.34026 -27,-5.39618 L 4.7081751,938.65354 v -8.39856 -8.39855 l 6.3332999,1.94372 c 22.6394,6.94811 50.0802,11.26207 71.6373,11.26207 14.7777,0 40.989805,-3.02076 53.055805,-6.11432 39.3981,-10.10108 77.9822,-31.15223 115.6402,-63.09227 10.8756,-9.22418 50.7458,-49.00086 58.9317,-58.79341 8.2122,-9.82401 21.7442,-26.24204 26.3748,-32 2.0642,-2.56667 6.5213,-8.11633 9.9047,-12.3326 7.6007,-9.47161 34.0204,-45.51437 39.0564,-53.28216 2.0391,-3.14521 4.0617,-6.01857 4.4946,-6.38524 0.4329,-0.36666 3.1699,-4.28061 6.0823,-8.69766 2.9124,-4.41704 6.5524,-9.81704 8.0888,-12 5.4198,-7.70048 29.3749,-44.10336 35.9533,-54.63567 3.6643,-5.86667 13.2577,-21.16666 21.3188,-34 8.061,-12.83333 21.1747,-34.13333 29.1415,-47.33333 7.9668,-13.2 21.8729,-36.13943 30.9025,-50.97651 9.0295,-14.83708 16.4173,-27.23446 16.4173,-27.54974 0,-0.31527 6.0628,-10.37584 13.4729,-22.35681 7.4101,-11.98099 14.7772,-24.1836 16.3713,-27.11694 1.5941,-2.93333 5.0481,-8.63333 7.6757,-12.66666 4.2644,-6.5461 23.7353,-38.33587 27.1468,-44.32211 8.2581,-14.49097 62.8656,-97.6798 81.6232,-124.34456 18.7009,-26.5841 56.6108,-75.5931 71.1648,-91.99999 26.8788,-30.30091 42.6342,-46.790561 61.212,-64.064624 30.2411,-28.119033 65.8532,-54.254339 94.1629,-69.105024 8.0088,-4.2013126 10.5663,-4.9174866 16.3287,-4.5726096 l 6.8325,0.408924 -10.3287,5.2879956 c -28.0318,14.3514 -63.64,39.71871 -92.3288,65.775107 -21.1318,19.192841 -48.9048,47.653121 -64.0193,65.603561 -4.0136,4.76667 -7.6483,8.96667 -8.0772,9.33333 -1.8298,1.56424 -34.527,42.8989 -41.1498,52.02004 -3.9855,5.48897 -11.2361,15.37996 -16.1126,21.97996 -18.2223,24.66299 -50.3708,72.34613 -71.9157,106.66667 -3.2224,5.13333 -7.7612,12.33333 -10.0861,15.99999 -11.6224,18.33027 -18.7384,29.82972 -30.528,49.33334 -7.0926,11.73333 -13.4232,22.23333 -14.0678,23.33333 -0.6447,1.1 -7.6682,12.76232 -15.6078,25.91627 -7.9396,13.15396 -15.0357,25.00918 -15.769,26.34495 -6.5432,11.91859 -84.0276,138.7798 -98,160.45051 -2.5667,3.9808 -9.9624,15.49917 -16.4349,25.59638 -10.815,16.8714 -31.4454,47.39471 -47.5547,70.35855 -63.335,90.28398 -127.5799,155.82479 -183.1433,186.83774 -24.7519,13.81537 -54.0552,24.29623 -79.5338,28.44671 -19.315,3.14645 -52.909105,3.50445 -72.666605,0.7744 z m 19.3333,-46.22238 c -18.5031,-1.86528 -39.1523,-6.55261 -55.6666,-12.6362 l -5.6666999,-2.0875 v -7.88972 c 0,-4.33935 0.2245,-7.88972 0.499,-7.88972 0.2745,0 3.1245,0.95635 6.3332999,2.12521 45.282,16.49451 88.792405,17.96261 133.931405,4.51903 15.4843,-4.61164 40.8172,-16.42048 56.2425,-26.21719 9.5856,-6.08796 37.6666,-27.16537 45.6604,-34.27256 12.5545,-11.16186 47.8129,-47.32221 57.354,-58.82116 5.4763,-6.6 11.162,-13.45744 12.6348,-15.23874 1.4729,-1.78131 4.5261,-5.38131 6.785,-8 11.3456,-13.15253 50.1284,-66.19804 70.9256,-97.00905 26.592,-39.39607 65.1211,-100.9288 111.1323,-177.48341 1.1907,-1.98116 10.1088,-16.50212 19.818,-32.26879 9.7092,-15.76666 18.6956,-30.46666 19.9698,-32.66666 3.5304,-6.09575 13.153,-21.1281 14.6868,-22.94372 0.7482,-0.88572 1.3604,-1.90435 1.3604,-2.26362 0,-0.83153 14.3853,-23.78854 22.8622,-36.48505 3.5591,-5.33082 6.4711,-9.96198 6.4711,-10.29148 0,-0.32949 2.3119,-4.06792 5.1376,-8.30761 2.8257,-4.23968 11.0477,-16.70852 18.2712,-27.70852 31.2697,-47.61799 79.6842,-115.24724 98.4067,-137.46269 3.7682,-4.47115 8.6315,-10.40123 10.8073,-13.17795 21.465,-27.39225 69.209,-76.424644 91.3772,-93.843079 7.7,-6.050196 14.9,-11.72586 16,-12.612585 3.0086,-2.42523 19.5852,-13.168748 28.8411,-18.692241 6.919,-4.1289106 9.3733,-4.8781156 15.9803,-4.8781156 h 7.8058 l -5.3136,2.794274 c -21.9716,11.5542946 -50.6911,32.4742486 -73.9216,53.8463426 -17.677,16.262859 -44.9241,44.634854 -60.207,62.692714 -2.4826,2.93333 -4.8303,5.63333 -5.2172,6 -0.3868,0.36667 -2.7723,3.36667 -5.3011,6.66667 -2.5288,3.3 -5.0003,6.3 -5.4924,6.66666 -0.492,0.36667 -5.1387,6.06667 -10.3258,12.66667 -5.1872,6.6 -9.9198,12.6 -10.517,13.33333 -0.5971,0.73334 -3.3071,4.33334 -6.0221,8 -2.7151,3.66667 -5.5351,7.38034 -6.2668,8.2526 -0.7316,0.87226 -2.9905,3.9678 -5.0197,6.87899 -2.0293,2.91119 -9.7135,13.59752 -17.0762,23.74741 -15.8332,21.827 -11.4904,15.49928 -42.0795,61.31231 -29.003,43.43761 -42.6461,64.61935 -65.1453,101.14202 -9.0352,14.66667 -18.8423,30.45963 -21.7936,35.09548 -5.3958,8.47576 -7.4016,11.85283 -13.6044,22.90452 -1.8521,3.3 -7.3168,12.3 -12.1438,20 -4.827,7.7 -16.9357,27.5 -26.9082,44 -17.751,29.37009 -42.5755,70.32848 -50.3568,83.08474 -11.2085,18.37459 -68.5376,103.37317 -76.158,112.91525 -0.8785,1.1 -6.2625,8.3 -11.9644,16 -5.702,7.7 -10.6879,14.3 -11.0799,14.66667 -0.392,0.36667 -4.602,5.76667 -9.3554,12 -4.7535,6.23333 -10.2159,13.13333 -12.1386,15.33333 -1.9228,2.2 -7.6062,8.8 -12.6298,14.66667 -34.6642,40.48138 -70.8334,73.22049 -103.9223,94.06682 -13.4447,8.47027 -32.9299,18.63452 -42,21.90885 -23.8508,8.6102 -37.493,11.88838 -57.8982,13.91271 -16.247205,1.61184 -21.671205,1.60445 -38.101805,-0.0519 z m -3.7056,-49.26234 c -14.074,-1.82848 -39.5649,-8.85651 -55.2943999,-15.24508 -1.8791,-0.76323 -2.3333,-2.60243 -2.3333,-9.44892 v -8.50124 l 4.3333,2.41571 c 8.0027999,4.46136 26.0048999,10.67744 39.8917999,13.77453 17.9095,3.99423 49.0864,4.32024 66.441505,0.69477 40.9198,-8.54808 81.9979,-30.62182 123.3334,-66.27442 20.0391,-17.28408 59.9909,-59.49996 79.4851,-83.98948 20.1004,-25.25119 43.7873,-57.79276 61.6283,-84.66666 4.8685,-7.33334 9.3265,-13.93334 9.9067,-14.66667 0.5803,-0.73333 5.5381,-8.40545 11.0174,-17.04915 30.9417,-48.81068 40.2453,-63.54941 43.5241,-68.95085 7.2341,-11.91729 61.4743,-98.9814 88.8801,-142.66666 29.1795,-46.5126 41.5472,-65.72609 63.9408,-99.33333 12.6825,-19.03332 18.5757,-27.68068 35.4385,-52 15.7843,-22.76392 52.8989,-71.88594 64.978,-86 1.569,-1.83333 8.463,-9.93333 15.32,-18 27.3443,-32.168418 67.71,-69.711257 96.6204,-89.863559 7.3958,-5.1553476 8.672,-5.5926526 15.2187,-5.2151546 l 7.1459,0.41205 -11.2187,7.4798916 c -25.815,17.211766 -67.4006,54.847988 -90.7654,82.145377 -4.8841,5.706105 -10.464,12.174725 -12.3999,14.374725 -14.0127,15.92474 -52.0581,64.86067 -69.5106,89.40824 -29.8218,41.94523 -77.3145,114.43892 -117.874,179.92509 -6.813,11 -16.7661,26.96636 -22.1179,35.4808 -5.3519,8.51443 -10.8152,17.30545 -12.1408,19.5356 -10.6796,17.96773 -32.6876,54.10416 -46.4791,76.31693 -4.3254,6.96667 -8.3294,12.86667 -8.8977,13.11111 -0.5683,0.24445 -1.0333,0.96306 -1.0333,1.59694 0,1.06978 -9.9419,17.41031 -21.0668,34.62528 -123.172,190.60044 -209.9298,273.5476 -302.7035,289.40805 -15.836605,2.7074 -37.718005,3.1864 -53.268605,1.16608 z m -4.2944,-49.31491 c -17.3838,-3.23124 -21.6499,-4.63261 -49.6665999,-16.31494 -3.4506,-1.4388 -3.6667,-2.02435 -3.6667,-9.9341 v -8.40517 l 8.3332999,4.45879 c 17.8498,9.55065 39.7292,15.8826 61,17.65356 12.4661,1.0379 36.285805,-1.99103 52.666705,-6.69715 14.6405,-4.20612 43.4074,-17.96916 57.5572,-27.53727 27.8609,-18.83963 58.4696,-45.67666 83.6261,-73.32165 3.5842,-3.93872 9.5877,-10.46129 13.3411,-14.49462 3.7534,-4.03334 9.2209,-10.30091 12.15,-13.92794 2.929,-3.62704 7.1467,-8.72704 9.3725,-11.33333 10.9901,-12.86867 39.8986,-50.7326 52.481,-68.73873 33.5623,-48.03003 68.0053,-100.15103 100.5422,-152.14602 12.8747,-20.57408 16.9141,-26.9481 23.3766,-36.88658 3.9123,-6.01674 9.202,-14.5458 11.7549,-18.95346 2.5528,-4.40767 7.8955,-13.11394 11.8726,-19.34727 3.9771,-6.23333 8.2196,-13.13333 9.4279,-15.33333 1.2082,-2.2 5.1145,-8.36157 8.6806,-13.69239 3.5662,-5.33082 6.4839,-9.91418 6.4839,-10.18525 0,-0.27108 3.15,-5.34567 7,-11.27688 3.85,-5.9312 11.8,-18.33592 17.6667,-27.56605 35.2591,-55.47379 77.1665,-116.2034 102.5525,-148.61276 33.3244,-42.544205 68.1174,-79.430169 94.1142,-99.775841 7.7,-6.026186 14.7565,-11.5716266 15.6811,-12.3232016 0.9247,-0.751575 5.0141,-1.186752 9.0877,-0.967061 l 7.4065,0.39944 -8.1681,6.2440746 c -14.2597,10.900766 -24.1678,19.783664 -43.525,39.021274 -22.7851,22.644276 -35.1886,36.593979 -60.9298,68.525035 -12.04,14.93526 -19.3345,24.53768 -41.6868,54.87628 -10.5641,14.33855 -66.5892,97.55021 -82.5958,122.67598 -9.0882,14.26594 -24.2461,38.37823 -27.2698,43.37929 -7.7447,12.80923 -92.7759,148.56999 -100.5959,160.61139 -3.0956,4.76666 -9.7779,15.14937 -14.8496,23.07268 -34.9198,54.55408 -74.5004,110.86349 -76.8895,109.38691 -0.5855,-0.3618 -0.8996,-0.0609 -0.6981,0.66858 0.4349,1.57426 -17.9798,25.21996 -32.846,42.17656 -65.4318,74.63254 -126.1872,115.6223 -184.7876,124.6703 -10.206205,1.57587 -39.418505,1.54596 -48.000005,-0.0492 z m 0.8183,-49.30372 c -12.4331,-1.96173 -28.8786,-7.45392 -42.0239,-14.03446 L 4.7081751,733.57876 v -7.92494 c 0,-4.3587 0.315,-7.92493 0.6999,-7.92493 0.385,0 4.8917999,2.11096 10.0150999,4.69103 23.4332,11.80076 35.4519,14.56628 63.285,14.562 19.2106,-0.003 24.467805,-0.46547 34.479605,-3.03347 18.4992,-4.74503 33.0226,-10.98817 56.8537,-24.43973 5.9953,-3.38408 37.5992,-26.3187 40,-29.0276 0.3667,-0.41374 5.1667,-4.63688 10.6667,-9.38479 11.419,-9.85756 35.4454,-33.93539 46.5118,-46.61148 4.1185,-4.71755 8.9139,-10.11755 10.6565,-12 7.1053,-7.67554 40.4948,-50.05633 54.1691,-68.75596 8.0439,-11 15.0836,-20.2 15.6439,-20.44444 0.5603,-0.24445 1.0187,-0.93121 1.0187,-1.52616 0,-0.59494 6.5859,-10.59494 14.6353,-22.22222 18.9235,-27.33467 23.9428,-34.71404 32.9707,-48.47384 14.9577,-22.79761 41.3403,-64.16195 62.0801,-97.33333 20.0645,-32.09133 23.948,-38.25612 40.3139,-63.99636 3.6666,-5.76693 10.7921,-16.97695 15.8342,-24.91115 13.5932,-21.38969 15.5464,-24.37348 43.4825,-66.42582 14.1278,-21.26667 26.075,-38.96667 26.5492,-39.33333 0.4743,-0.36667 1.9856,-2.46667 3.3585,-4.66667 1.3729,-2.2 5.6021,-8.2 9.3983,-13.33333 45.9311,-62.110304 72.2807,-92.890793 105.9163,-123.726958 l 11.2056,-10.2730426 h 7.8408 7.8407 l -5.0464,4.3311736 c -24.3689,20.915119 -50.0754,47.534756 -75.7381,78.428408 -6.4836,7.805104 -36.8958,47.777509 -44.0989,57.961599 -27.4919,38.86895 -54.5605,79.84009 -95.1014,143.94548 -13.913,22 -25.929,40.72468 -26.7022,41.61039 -0.7732,0.88572 -1.4058,1.87921 -1.4058,2.20776 0,0.32854 -4.4768,7.70387 -9.9484,16.38961 -5.4716,8.68573 -11.5774,18.49224 -13.5683,21.79224 -20.5724,34.09809 -90.2257,140.13175 -92.6957,141.1111 -0.6165,0.24445 -1.1209,1.01372 -1.1209,1.70949 0,1.03963 -12.5012,19.76504 -16.3649,24.51274 -0.5967,0.73333 -7.2088,9.74106 -14.6934,20.01717 -38.4505,52.79116 -77.0896,96.71776 -113.3868,128.90306 -9.1477,8.11135 -35.4069,28.11774 -42.91,32.69232 -24.6772,15.0454 -44.9021,23.95275 -65.9783,29.05776 -10.4044,2.52016 -41.571505,3.67855 -52.515005,1.95185 z m -9.249,-54.12467 c -11.2317,-2.40964 -28.6918,-8.69939 -37.5693,-13.53374 l -6.6665999,-3.63042 -0.3969,-8.32839 -0.3968,-8.3284 9.0634999,4.54157 c 31.8962,15.98268 70.1434,18.64206 104.875405,7.29214 38.2264,-12.49179 76.1073,-38.84266 118.891,-82.70339 23.031,-23.61078 28.8749,-30.19217 47.7775,-53.80686 4.109,-5.13334 8.3023,-10.23334 9.3185,-11.33334 4.4742,-4.84332 39.2925,-52.20268 51.5344,-70.09638 1.1,-1.60783 4.4455,-6.44391 7.4345,-10.74681 2.9889,-4.30291 7.4644,-10.82347 9.9455,-14.49014 2.4811,-3.66666 4.9855,-6.86666 5.5655,-7.1111 0.58,-0.24446 1.0545,-0.99367 1.0545,-1.66492 0,-0.67127 4.7181,-8.27127 10.4847,-16.8889 12.6612,-18.92097 27.0388,-41.00428 40.1499,-61.66841 5.3508,-8.43333 12.2556,-19.23333 15.3438,-24 3.0883,-4.76666 10.1191,-15.86666 15.624,-24.66666 5.5049,-8.8 11.4464,-18.20539 13.2032,-20.90086 1.7569,-2.69546 5.553,-8.69546 8.4356,-13.33333 4.9234,-7.92123 8.9599,-14.19231 30.9594,-48.09915 16.3808,-25.2471 42.5486,-64.18086 55.7851,-82.99999 11.4601,-16.2936 43.9692,-60.144163 45.9643,-62.000002 0.3941,-0.366666 4.6019,-5.466666 9.3505,-11.333333 8.5599,-10.575282 13.2556,-15.898426 28.6995,-32.534907 17.4321,-18.7781116 19.2,-20.0840746 27.2222,-20.1091676 3.9722,-0.01243 6.9722,0.259367 6.6667,0.603981 -0.3056,0.344615 -5.9556,6.2011296 -12.5556,13.0144766 -11.9584,12.344954 -23.0384,24.277911 -30.7018,33.065287 -14.5694,16.706097 -48.7014,61.154855 -66.8349,87.036405 -9.9912,14.26018 -56.5405,84.23724 -71.1299,106.92877 -5.5,8.55442 -10.9,16.93822 -12,18.63068 -1.1,1.69248 -3.9682,6.29186 -6.3738,10.22086 -2.4056,3.92898 -10.6623,17.04361 -18.3483,29.14361 -15.2397,23.99171 -36.1008,56.99925 -39.2779,62.1476 -8.8194,14.29121 -32.7732,50.6085 -33.6141,50.9635 -0.5789,0.24446 -1.0526,1.05518 -1.0526,1.8016 0,3.00102 -78.8615,115.07452 -84.7351,120.42063 -0.8057,0.73333 -4.7122,5.53333 -8.6811,10.66666 -3.9689,5.13334 -7.8239,9.99454 -8.5667,10.80267 -0.7427,0.80812 -3.7504,4.39831 -6.6838,7.97819 -27.3098,33.32921 -61.8982,67.14625 -90,87.9927 -27.5882,20.46557 -45.7826,29.77251 -76.6666,39.21715 -13.998505,4.28086 -45.323405,5.2243 -61.097405,1.84012 z m 0.9755,-52.56262 c -9.739,-1.27142 -26.1033,-6.59328 -37.5448,-12.21002 l -8.3332999,-4.09092 v -7.81698 c 0,-4.29932 0.3239,-7.81696 0.7198,-7.81696 0.3958,0 3.1875,1.25895 6.2035999,2.79767 24.1412,12.31591 55.8598,16.01493 84.9156,9.90285 48.676705,-10.23945 101.611905,-48.45787 157.980705,-114.05966 22.4054,-26.07532 43.9649,-53.68357 62.2628,-79.7313 3.2546,-4.63308 7.1745,-10.03308 8.7109,-12 9.1017,-11.65251 64.8355,-95.35568 87.1661,-130.90955 3.915,-6.23333 8.7403,-13.73333 10.7229,-16.66666 1.9826,-2.93334 8.8931,-13.73334 15.3568,-24 6.4637,-10.26667 16.6286,-26.16667 22.5888,-35.33334 5.9602,-9.16666 15.0071,-23.15637 20.1043,-31.08822 20.4286,-31.78936 62.1892,-91.802254 80.4265,-115.578438 18.4989,-24.11721 22.4729,-29.085919 33.4764,-41.854659 6.2506,-7.253394 12.5657,-14.637784 14.0335,-16.409754 2.3462,-2.8323246 3.5894,-3.1722326 10.2846,-2.8120076 l 7.6159,0.409755 -6.026,6.6666656 c -3.3143,3.666667 -10.3096,11.766667 -15.545,18 -5.2354,6.233333 -12.2893,14.633333 -15.6753,18.666666 -8.4718,10.09153 -39.569,51.491382 -50.5769,67.333332 -3.9425,5.67392 -36.1405,53.3728 -40.0515,59.33333 -0.7218,1.1 -2.9331,4.4 -4.9141,7.33334 -6.8777,10.1843 -48.3921,74.78219 -61.2667,95.33333 -7.1208,11.36666 -13.4495,20.86666 -14.0637,21.1111 -0.6142,0.24446 -1.1167,1.02439 -1.1167,1.7332 0,0.70882 -3.9769,7.40882 -8.8375,14.8889 -4.8606,7.48006 -10.7809,16.60013 -13.1562,20.2668 -20.3902,31.47559 -57.9885,87.50217 -61.7869,92.07086 -0.6421,0.77232 -2.9026,4.07232 -5.0232,7.33333 -3.8213,5.87618 -42.9922,58.64757 -44.4839,59.92913 -0.4269,0.36667 -4.0604,4.86667 -8.0746,10 -25.6921,32.85486 -65.6716,73.76503 -91.3558,93.48251 -48.9005,37.54034 -90.254105,51.59292 -134.737105,45.7857 z m -0.5448,-53.3553 c -11.0912,-1.38504 -32.4403,-7.55057 -39.3333,-11.35931 -5.2178999,-2.88312 -5.3418999,-3.12206 -5.7290999,-11.03782 l -0.3958,-8.09092 7.4545999,3.29676 c 15.8472,7.00838 26.5314,9.04885 48.0036,9.16769 12.6008,0.0697 22.9597,-0.56784 28,-1.72339 41.380005,-9.48677 79.970505,-34.18634 124.689605,-79.80664 18.2559,-18.62378 25.2557,-26.22299 35.3338,-38.35927 3.6538,-4.4 6.9446,-8.3 7.313,-8.66667 2.2444,-2.23433 22.3159,-27.93161 33.8466,-43.33333 2.7451,-3.66667 5.7019,-7.56682 6.5707,-8.667 1.4812,-1.87571 7.6113,-10.48692 22.567,-31.70076 3.4764,-4.93107 6.7969,-9.56558 7.3788,-10.29891 3.3333,-4.2002 64.011,-96.46966 74.968,-114 3.896,-6.23333 11.9999,-18.83333 18.0085,-28 6.0086,-9.16666 13.0226,-19.96666 15.5866,-23.99999 2.564,-4.03334 12.4038,-19.03334 21.8663,-33.33334 9.4624,-14.3 17.8044,-27.01034 18.5378,-28.24521 1.2568,-2.11634 15.5108,-22.92373 25.938,-37.863074 2.6007,-3.726226 7.3642,-10.569283 10.5854,-15.206795 3.2213,-4.637511 6.6372,-9.388781 7.5909,-10.558377 0.9538,-1.169596 6.4183,-8.426538 12.1433,-16.126539 5.725,-7.7 11.009,-14.667545 11.7424,-15.483433 0.7333,-0.815888 4.9333,-6.339031 9.3333,-12.273649 l 8,-10.7902156 8.4012,-0.05968 8.4012,-0.05968 -3.727,4.9999996 c -2.0498,2.75 -4.1006,5.3 -4.5574,5.666666 -3.7683,3.024932 -28.2024,34.999021 -49.4171,64.666665 -15.4895,21.661142 -47.1036,68.016492 -49.1037,72.000002 -0.3682,0.73333 -5.4682,8.54628 -11.3333,17.36211 -5.8651,8.81584 -15.7639,23.99333 -21.9972,33.72776 -6.2334,9.73444 -16.7334,26.07414 -23.3334,36.31048 -6.6,10.23633 -14.9631,23.25884 -18.5847,28.9389 -9.6088,15.07024 -66.8691,101.17723 -72.48,108.99407 -48.3175,67.31397 -73.8882,98.92419 -108.2884,133.86466 -47.0957,47.83528 -94.9073,75.61789 -137.937205,80.15316 -13.4321,1.41571 -13.8806,1.41389 -26.043,-0.10492 z m -6.6666,-53.27488 c -9.1146,-1.03419 -22.1636,-4.79604 -32.5064,-9.37113 l -6.1602999,-2.72502 v -8.08025 c 0,-7.16707 0.2637,-7.97332 2.3333,-7.13403 68.0507999,27.59678 134.4550049,-2.50806 219.0931049,-99.32759 18.6552,-21.34015 62.1176,-77.74779 79.3496,-102.98384 15.644,-22.91045 73.8874,-110.0084 85.8289,-128.34949 21.0082,-32.26687 28.5933,-43.9625 30.0617,-46.35252 0.7334,-1.1936 4.084,-6.25257 7.4459,-11.24216 3.3619,-4.98959 13.3233,-19.87199 22.1365,-33.071986 22.9932,-34.438365 26.9775,-40.263198 43.5485,-63.665627 l 14.8691,-20.9989596 8.6667,0.01938 c 4.7667,0.01066 8.0271,0.460191 7.2453,0.998961 -0.7817,0.538771 -3.3145,3.6795826 -5.6284,6.9795826 -9.7549,13.912197 -24.1856,34.097538 -25.26,35.333332 -1.906,2.192104 -37.0026,53.757417 -42.3569,62.232307 -2.5441,4.02694 -19.711,29.80464 -24.5095,36.80334 -2.6531,3.86962 -5.7238,8.49638 -6.8238,10.28167 -11.4262,18.54471 -43.1706,66.61033 -44.3334,67.12712 -0.55,0.24445 -1,0.9828 -1,1.64078 0,0.65798 -2.1097,4.35798 -4.6882,8.22222 -2.5786,3.86424 -9.3286,14.04512 -15,22.62417 -12.3923,18.74551 -38.5971,57.29309 -46.4997,68.40172 -12.7357,17.90238 -24.9921,34.83209 -27.5325,38.03058 -0.8871,1.11683 -4.3129,5.6147 -7.6129,9.99527 -13.3054,17.66221 -37.3625,47.4564 -50.5789,62.64081 -10.4727,12.0322 -45.6297,46.01257 -57.4367,55.51444 -34.51,27.77241 -65.8857,43.05085 -95.337105,46.4246 -13.0261,1.49217 -14.4333,1.49384 -27.3139,0.0323 z m -14.6667,-56.09129 c -3.3,-0.6386 -10.05,-2.4823 -15,-4.09708 l -8.9999999,-2.936 v -8.50217 c 0,-4.67622 0.5144,-8.18428 1.1431,-7.79572 0.6287,0.38857 7.0786999,2.2185 14.3332999,4.06653 33.935,8.64452 70.332,-0.2358 109.326405,-26.67405 11.7,-7.93256 17.6876,-12.53563 31.1432,-23.94158 14.8451,-12.58373 52.3466,-52.51094 68.9207,-73.37856 16.3679,-20.60798 22.3175,-28.32187 31.1333,-40.36571 5.5,-7.51392 13.6343,-18.59532 18.0763,-24.62536 11.3966,-15.47096 23.0507,-32.48054 49.534,-72.29703 12.682,-19.06666 23.5129,-35.26666 24.0688,-36 0.5558,-0.73333 6.0568,-9.13333 12.2242,-18.66666 6.1675,-9.53334 16.1036,-24.83334 22.0802,-34 5.9767,-9.16667 13.1763,-20.26667 15.9992,-24.66667 2.8228,-4.4 8.0315,-12.361575 11.5749,-17.692391 3.5433,-5.330815 6.4424,-10.230815 6.4424,-10.888888 0,-0.658074 0.5018,-1.396496 1.1151,-1.640942 1.4197,-0.565833 20.2182,-28.816737 20.2182,-30.384493 0,-0.644084 0.5583,-1.371062 1.2406,-1.615507 0.6824,-0.244444 4.2703,-5.094444 7.9731,-10.777777 l 6.7325,-10.3333326 h 8.1056 c 6.1234,0 7.8636,0.407572 7.1159,1.666667 -0.5443,0.916667 -4.955,7.3666656 -9.8014,14.3333326 -4.8465,6.966666 -16.5865,24.366666 -26.089,38.666666 -9.5025,14.299999 -17.7273,26.199999 -18.2773,26.444443 -0.55,0.244445 -1,0.96653 -1,1.604636 0,0.638105 -6.15,10.479426 -13.6667,21.869606 -7.5166,11.39018 -19.0289,28.9681 -25.5828,39.06203 -114.6676,176.60459 -174.5025,252.21268 -236.4238,298.74758 -6.0537,4.54944 -11.3455,8.2717 -11.7598,8.2717 -0.4142,0 -3.2612,1.72144 -6.3267,3.82542 -14.4717,9.93271 -39.858005,20.0982 -56.906905,22.7874 -10.2166,1.61151 -30.1738,1.5774 -38.6666,-0.0661 z m -6.6667,-54.05015 c -1.8333,-0.35177 -6.4833,-1.52417 -10.3333,-2.60533 L 4.7081751,425.6544 v -8.11818 -8.11819 l 3.6667,0.80809 c 28.9364999,6.37735 54.9514999,2.80795 84.3023999,-11.5668 6.2503,-3.06112 11.664205,-5.8737 12.030905,-6.25018 0.3666,-0.37647 2.2425,-1.49526 4.1686,-2.48618 4.9782,-2.56121 26.813,-19.04921 37.8314,-28.56748 14.2944,-12.34825 39.4466,-38.44375 54.2251,-56.25874 7.3158,-8.81897 15.7552,-18.95876 18.7543,-22.53284 7.4291,-8.85364 32.5679,-42.183 39.8844,-52.87933 3.2771,-4.79104 8.5155,-12.17248 11.641,-16.40319 7.8992,-10.69277 59.6961,-88.56682 83.5095,-125.552476 10.8598,-16.866666 24.0379,-37.266666 29.2847,-45.333333 5.2469,-8.066666 12.5011,-19.307127 16.1204,-24.978801 l 6.5806,-10.3121356 7.6666,-0.0212 c 4.2167,-0.01166 7.6667,0.310973 7.6667,0.71696 0,0.594538 -14.3078,22.9517106 -20.0065,31.2618406 -0.7543,1.1 -6.4235,9.8 -12.5983,19.333334 -6.1747,9.533333 -11.8646,18.058008 -12.6443,18.943724 -0.7796,0.885715 -1.4176,1.936019 -1.4176,2.334007 0,0.397988 -6.2005,10.173311 -13.779,21.72294 -7.5784,11.54963 -17.8716,27.29933 -22.8737,34.99933 -16.213,24.95747 -60.3006,90.71867 -63.0195,93.99999 -0.6076,0.73333 -3.1227,4.27624 -5.589,7.87312 -4.5221,6.5949 -20.0789,27.7544 -23.13,31.46021 -0.9057,1.1 -3.122,4.1 -4.925,6.66667 -1.803,2.56666 -3.7585,5.26666 -4.3456,6 -0.5871,0.73333 -6.2774,7.93333 -12.6451,16 -6.3677,8.06666 -12.2036,15.31144 -12.9687,16.09949 -0.765,0.78805 -4.391,4.97857 -8.0577,9.31227 -47.3121,55.91893 -93.5823,91.22929 -135.339705,103.28227 -9.7998,2.82864 -38.2845,4.743 -46.6603,3.13588 z m -12.9999999,-54.79445 -4.3333,-0.53776 v -8.24885 -8.24886 l 18.9964999,-0.0653 c 21.2708,-0.0732 32.0728,-2.34695 49.5831,-10.4372 9.7604,-4.5096 30.507005,-16.36004 34.939905,-19.95766 1.3604,-1.10406 7.2735,-5.79502 13.1401,-10.42434 11.8377,-9.34098 44.1667,-41.05313 55.4158,-54.35848 3.988,-4.71698 9.4122,-11.01698 12.0539,-14 9.1596,-10.34334 34.2561,-43.23325 52.0897,-68.26553 22.3104,-31.31628 32.3999,-46.2304 63.4735,-93.824783 8.3787,-12.833333 16.3739,-24.959036 17.7672,-26.946008 1.3933,-1.986973 2.5333,-4.236973 2.5333,-5 0,-0.763028 0.6,-1.387324 1.3333,-1.387324 0.7333,0 1.3333,-0.642623 1.3333,-1.428054 0,-0.785431 3.9789,-7.535432 8.842,-15.000001 4.8631,-7.464569 11.2771,-17.321945 14.2534,-21.905278 l 5.4114,-8.3333626 h 7.8783 7.8783 l -2.617,4.3333326 c -1.4394,2.383334 -6.0749,9.733333 -10.3012,16.333333 -4.2262,6.6 -8.6578,13.708176 -9.848,15.795948 -1.1901,2.08777 -4.0843,6.363126 -6.4316,9.50079 -2.3472,3.137662 -5.3472,7.599669 -6.6666,9.91557 -1.3194,2.3159 -7.7478,12.440544 -14.2854,22.499209 -24.4402,37.603848 -36.2783,55.718668 -38.5274,58.955148 -1.274,1.83333 -4.5004,6.63333 -7.1699,10.66667 -2.6694,4.03333 -5.2652,7.63333 -5.7683,8 -0.5031,0.36666 -1.1547,1.3036 -1.448,2.08206 -1.5866,4.21114 -42.7077,60.39333 -62.3975,85.25127 -58.2763,73.57273 -113.892905,117.16635 -158.911705,124.5589 -8.3553,1.37204 -28.9402,1.62868 -38.2240999,0.47656 z m 0,-52.02128 -4.3333,-0.51648 v -7.79582 -7.79583 l 11.6666999,-0.94964 c 35.5212,-2.89135 67.6816,-19.63924 106.170905,-55.28975 39.1884,-36.29801 80.8111,-88.99801 134.2669,-169.999993 10.6469,-16.133332 21.1289,-32.168438 23.2934,-35.633566 2.1645,-3.465128 8.4354,-13.492125 13.9354,-22.282215 l 10,-15.9819816 8.2944,-0.05112 8.2944,-0.05112 -3.6277,5.9514916 c -10.6723,17.508578 -62.3831,96.419674 -79.1052,120.715164 -27.6761,40.2106 -62.6105,85.00129 -82.5904,105.89241 -4.9661,5.19251 -10.2675,11.0167 -11.781,12.94264 -6.7861,8.63536 -40.9842,37.08452 -56.817805,47.26636 -25.2321,16.22558 -57.4077,25.99403 -77.6666999,23.57944 z m -4.3333,-59.49332 v -8.51065 l 6.7985999,-0.90187 c 22.1003,-2.9317 51.8658,-17.67586 76.5347,-37.91094 21.189105,-17.38073 48.391105,-45.71791 69.305205,-72.1974 4.344,-5.5 9.9003,-12.52889 12.3473,-15.61975 9.3662,-11.83056 25.5543,-34.097989 34.2023,-47.046916 2.204,-3.3 4.3983,-6.3 4.8763,-6.666667 0.478,-0.366666 1.109,-1.334689 1.4023,-2.151162 0.2933,-0.816472 5.1979,-8.316471 10.8991,-16.666666 5.7011,-8.350194 14.0256,-20.882171 18.4988,-27.848837 15.2394,-23.7343026 12.7973,-21.3139246 21.5156,-21.3242216 7.2022,-0.0085 7.6225,0.1611 6.3396,2.558279 -4.7443,8.8648306 -53.5041,82.8998046 -64.1848,97.4556406 -1.874,2.554 -6.2579,8.54363 -9.7418,13.3103 -27.9084,38.18349 -45.2543,58.95431 -70.1266,83.97293 -19.5182,19.63316 -22.9107,22.72521 -36.000005,32.81177 -25.4153,19.58508 -50.2588,30.70074 -76.9999,34.45191 l -5.6666999,0.79491 z m 0.2697,-51.58217 0.397,-8.06129 10.6665999,-3.73428 c 35.628,-12.47291 69.2543,-40.01451 113.314305,-92.80979 19.1755,-22.977198 50.6662,-66.319211 65.6047,-90.294514 l 6.4143,-10.2945176 8.3168,-0.03881 8.3168,-0.03881 -4.8787,7.6666666 c -7.862,12.354832 -35.4219,52.934375 -40.0169,58.921306 -0.8775,1.14328 -7.4134,9.878692 -14.5243,19.412025 -22.8607,30.648534 -33.5789,43.147884 -57.1667,66.666664 -18.975505,18.91996 -22.407805,21.97403 -35.468005,31.55908 -17.4715,12.82264 -30.0998,19.62273 -48.2206,25.96591 -13.1696999,4.61006 -13.2234999,4.58932 -12.7552999,-4.91963 z m -0.2534,-51.60536 0.016,-7.66666 12.3169999,-6.38492 c 18.3053,-9.48921 33.9294,-21.78094 57.0607,-44.89067 24.9371,-24.91379 44.249805,-48.546014 71.922905,-88.009553 l 4.6667,-6.6549366 7.7754,-0.02996 7.7754,-0.02996 -3.0686,4.9999996 c -5.3737,8.755856 -40.0194,56.858603 -42.4944,58.999999 -0.4238,0.366666 -5.2003,6.066666 -10.6145,12.666666 -12.455705,15.183565 -40.565505,43.978155 -52.529805,53.809335 -16.1423,13.26425 -45.2989,30.85733 -51.1391999,30.85733 -1.1878,0 -1.6994,-2.32345 -1.688,-7.66667 z m -0.016,-50.7599 v -7.85372 l 8.3332999,-5.754657 c 25.2124,-17.410644 54.9121,-47.425053 78.0936,-78.921101 l 7.5731,-10.2893816 8.385805,-0.04395 8.3858,-0.04395 -7.5995,10.3333326 c -20.273305,27.566106 -53.997605,64.375712 -73.838805,80.59395 -7.3893,6.040017 -20.78,15.320507 -26.3332999,18.250417 -2.9507,1.55678 -3,1.45375 -3,-6.27094 z m 0.08,-51.859849 0.08,-7.71358 11.0737999,-9.999999 c 6.0906,-5.5 15.8048,-15.236569 21.5871,-21.63682 l 10.5132,-11.6368186 7.8299,-0.02985 c 8.668,-0.03304 8.5709,-0.826169 1.0574,8.6368196 -11.2694,14.193559 -42.7177,45.00803 -49.8046999,48.800887 -2.2065,1.180851 -2.409,0.624246 -2.3363,-6.420642 z m -0.08,-47.046912 c 0,-3.6077356 0.4167,-3.9999996 4.2494,-3.9999996 H 13.207375 L 9.3751751,11.062239 c -2.1078,2.2 -4.02,4 -4.2495,4 -0.2295,0 -0.4172,-1.8 -0.4172,-4 z"
       id="path171" />
  </g>
</svg>
