<?xml version="1.0" encoding="UTF-8" standalone="no"?>
<!-- Created with Inkscape (http://www.inkscape.org/) -->

<svg
   version="1.1"
   id="svg9"
   width="616"
   height="798.66669"
   viewBox="0 0 616 798.66669"
   sodipodi:docname="calculator.svg"
   inkscape:version="1.1.1 (3bf5ae0d25, 2021-09-20)"
   xmlns:inkscape="http://www.inkscape.org/namespaces/inkscape"
   xmlns:sodipodi="http://sodipodi.sourceforge.net/DTD/sodipodi-0.dtd"
   xmlns="http://www.w3.org/2000/svg"
   xmlns:svg="http://www.w3.org/2000/svg">
  <defs
     id="defs13" />
  <sodipodi:namedview
     id="namedview11"
     pagecolor="#ffffff"
     bordercolor="#666666"
     borderopacity="1.0"
     inkscape:pageshadow="2"
     inkscape:pageopacity="0.0"
     inkscape:pagecheckerboard="0"
     showgrid="false"
     inkscape:zoom="1.0029215"
     inkscape:cx="308.09988"
     inkscape:cy="399.33334"
     inkscape:window-width="1920"
     inkscape:window-height="1009"
     inkscape:window-x="-8"
     inkscape:window-y="-8"
     inkscape:window-maximized="1"
     inkscape:current-layer="g15" />
  <g
     inkscape:groupmode="layer"
     inkscape:label="Image"
     id="g15">
    <path
       style="fill:#000000;stroke-width:1.33333"
       d="M 120.10654,792.68147 C 57.284124,792.30667 5.6088444,791.70002 5.2725744,791.33335 4.3917744,790.37292 3.0438444,40.723276 3.9150044,36.325716 4.5777344,32.980359 10.194194,25.91538 24.578254,10.33333 l 5.231,-5.666667 H 319.68893 c 285.23093,0 289.90181,0.04136 291.25993,2.579012 1.51779,2.836011 2.01452,746.248905 0.5024,751.897585 -0.59213,2.21196 -7.91792,7.84125 -24.72602,19 l -23.8846,15.85676 -164.25576,-0.31855 c -90.34068,-0.1752 -215.65594,-0.6252 -278.47834,-1 z m 453.95951,-18.63252 c 7.84468,-5.10641 14.26305,-9.60641 14.26305,-10 0,-0.39357 -124.4868,-0.7156 -276.63734,-0.7156 H 35.054424 l -7.42492,9 -7.42493,9 41.06227,0.69569 c 22.58424,0.38264 143.993886,0.83264 269.799206,1 L 559.803,783.33335 Z M 27.048514,754.00002 c 1.01358,-3.29148 1.27243,-75.98005 0.8784,-246.66668 -0.30726,-133.1 -0.604,-296.30001 -0.65942,-362.66668 l -0.10077,-120.666663 -4.8659,4.666667 c -2.67625,2.566667 -5.71471,6.286871 -6.75214,8.26712 -1.61296,3.078815 -1.88227,56.58832 -1.85882,369.333346 l 0.0274,365.73289 5.94709,-6.66667 c 3.2709,-3.66667 6.59376,-8.76667 7.38414,-11.33333 z m 574.284226,-240.33335 -0.33697,-239 H 319.88374 38.771714 l -0.22131,239.00004 -0.2213,239.00004 281.670306,-3e-5 281.67031,-4e-5 z M 463.27526,728.94523 c -10.26325,-0.36038 -11.14056,-0.61626 -12.26654,-3.57783 -0.71807,-1.88867 -0.83207,-38.98369 -0.2795,-90.9452 l 0.93322,-87.75552 57.84616,-0.34763 c 41.59796,-0.24999 58.3575,0.0768 59.66666,1.16325 1.50526,1.24926 1.81698,16.77911 1.8001,89.68097 -0.0107,48.49354 -0.48287,88.89778 -1.04808,89.78721 -0.76607,1.20548 -13.06439,1.7146 -48.31292,2 -26.0069,0.21057 -52.25948,0.20821 -58.3391,-0.005 z m 97.05384,-91.64375 v -80.6348 h -50 -50 v 80.44444 c 0,44.24445 0.24952,80.69445 0.5545,81 0.30497,0.30556 22.80497,0.39121 50,0.19036 l 49.4455,-0.36521 z M 64.934194,726.987 c -0.3545,-0.92381 -0.48567,-20.27381 -0.29149,-43 l 0.35307,-41.32032 41.173196,-0.35285 c 29.26953,-0.25084 41.70135,0.0855 43,1.16326 2.49493,2.07062 2.70939,81.107 0.2268,83.58959 -2.36501,2.36501 -83.552846,2.28843 -84.461576,-0.0797 z M 140.3291,685.33335 V 652.66668 H 107.66244 74.995774 v 32.66667 32.66666 h 32.666666 32.66666 z m 20.314,42.23302 c -1.31296,-0.84178 -1.60797,-10.35397 -1.33333,-42.99033 l 0.35267,-41.90936 41.48785,-0.35208 c 34.02787,-0.28877 41.76325,-0.0203 43.01952,1.49347 1.09779,1.32277 1.43172,13.50861 1.17881,43.01874 l -0.35285,41.1732 -41.33333,0.32367 c -22.73334,0.17801 -42.09204,-0.16277 -43.01934,-0.75731 z m 74.35267,-42.23302 V 652.66668 H 202.3291 169.66244 v 32.66667 32.66666 h 32.66666 32.66667 z m 18.7126,40.33333 c -1.47533,-3.68385 -1.13607,-79.67905 0.36609,-82 1.52274,-2.35276 82.30494,-2.41637 84.65464,-0.0667 2.28628,2.28628 2.28628,81.18039 0,83.46667 -1.17525,1.17525 -12.51325,1.6 -42.70962,1.6 h -41.10964 z m 75.95407,-40.33333 V 652.66668 H 296.3291 262.99577 v 32.66667 32.66666 h 33.33333 33.33334 z M 348.9342,726.987 c -0.35451,-0.92381 -0.48568,-20.27381 -0.2915,-43 l 0.35307,-41.32032 41.1732,-0.35285 c 29.26953,-0.25084 41.70135,0.0855 43,1.16326 2.49493,2.07062 2.70939,81.107 0.2268,83.58959 -2.36501,2.36501 -83.55285,2.28843 -84.46157,-0.0797 z m 75.3949,-41.65365 v -32.66667 h -33.33333 -33.33333 v 31.77777 c 0,17.47779 0.4,32.17779 0.88889,32.66667 0.48888,0.48889 15.48888,0.88889 33.33333,0.88889 H 424.3291 Z M 65.217994,631.77779 c -0.48889,-0.48888 -0.88889,-19.6247 -0.88889,-42.52402 0,-36.7358 0.24818,-41.73036 2.10905,-42.44444 1.15998,-0.44513 19.93998,-0.80932 41.733336,-0.80932 29.04111,0 40.05163,0.42735 41.22428,1.6 2.28628,2.28628 2.28628,81.18039 0,83.46667 -1.1748,1.1748 -12.45432,1.6 -42.44444,1.6 -22.464446,0 -41.244446,-0.4 -41.733336,-0.88889 z M 140.3291,589.33334 V 556.66668 H 107.66244 74.995774 v 32.66666 32.66667 h 32.666666 32.66666 z m 19.57396,42.46286 c -0.49901,-0.49901 -0.90729,-19.64311 -0.90729,-42.54243 0,-36.7358 0.24817,-41.73036 2.10905,-42.44444 1.15998,-0.44513 19.98651,-0.80932 41.83674,-0.80932 32.01289,0 40.0221,0.35475 41.2438,1.8268 1.07778,1.29865 1.4141,13.73047 1.16326,43 l -0.35285,41.1732 -42.09271,0.35174 c -23.15098,0.19345 -42.50098,-0.0565 -43,-0.55555 z m 75.09271,-42.46286 V 556.66668 H 202.3291 169.66244 v 32.66666 32.66667 h 32.66666 32.66667 z m 18.95816,41.00001 c -0.52699,-1.28334 -0.95816,-19.73334 -0.95816,-41.00001 0,-21.26666 0.43117,-39.71666 0.95816,-41 0.88329,-2.15105 4.1696,-2.33333 42.06667,-2.33333 30.1955,0 41.53325,0.42475 42.7085,1.6 2.28628,2.28628 2.28628,81.18039 0,83.46667 -1.17525,1.17525 -12.513,1.6 -42.7085,1.6 -37.89707,0 -41.18338,-0.18228 -42.06667,-2.33333 z m 75.70851,-41.00001 V 556.66668 H 296.3291 262.99577 v 32.66666 32.66667 h 33.33333 33.33334 z M 348.9342,630.987 c -0.35451,-0.92381 -0.48568,-20.27382 -0.2915,-43 l 0.35307,-41.32032 41.1732,-0.35286 c 29.26953,-0.25084 41.70135,0.0855 43,1.16327 1.47205,1.22169 1.8268,9.23091 1.8268,41.2438 0,21.85023 -0.36419,40.67676 -0.80932,41.83674 -0.71423,1.86126 -5.73192,2.10905 -42.70851,2.10905 -32.46245,0 -42.04437,-0.37831 -42.54374,-1.67968 z m 75.3949,-41.65366 v -32.66666 h -33.33333 -33.33333 v 32.66666 32.66667 h 33.33333 33.33333 z M 65.806184,536.17321 c -1.07779,-1.29865 -1.4141,-13.73047 -1.16326,-43 l 0.35285,-41.1732 41.173196,-0.35286 c 29.26953,-0.25084 41.70135,0.0855 43,1.16327 2.49493,2.07061 2.70939,81.107 0.2268,83.58959 -2.48259,2.48259 -81.518976,2.26813 -83.589586,-0.2268 z M 140.3291,494.66667 V 462.00001 H 107.66244 74.995774 v 32.66666 32.66667 h 32.666666 32.66666 z m 20.14375,41.50654 c -1.07779,-1.29865 -1.41411,-13.73047 -1.16327,-43 l 0.35286,-41.1732 40,-0.37334 c 22,-0.20533 41.35,-0.0439 43,0.35874 l 3,0.73206 v 41.04127 c 0,30.14322 -0.42487,41.46614 -1.6,42.64127 -2.48259,2.48259 -81.51898,2.26813 -83.58959,-0.2268 z m 74.52292,-41.50654 V 462.00001 H 202.3291 169.66244 v 32.66666 32.66667 h 32.66666 32.66667 z m 18.64135,39.93342 c -1.54734,-4.0698 -1.14491,-79.15538 0.43734,-81.60008 1.52274,-2.35276 82.30494,-2.41638 84.65464,-0.0667 2.28628,2.28628 2.28628,81.18039 0,83.46667 -1.17524,1.17524 -12.51104,1.6 -42.69966,1.6 h -41.09967 z m 76.02532,-39.93342 V 462.00001 H 296.3291 262.99577 v 32.66666 32.66667 h 33.33333 33.33334 z m 19.27176,41.65366 c -0.35451,-0.92381 -0.48568,-20.27381 -0.2915,-43 l 0.35307,-41.32032 41.1732,-0.35286 c 29.26953,-0.25084 41.70135,0.0855 43,1.16327 2.49493,2.07061 2.70939,81.107 0.2268,83.58959 -2.36501,2.36501 -83.55285,2.28843 -84.46157,-0.0797 z m 75.3949,-41.67695 v -32.68996 l -33,0.35663 -33,0.35662 -0.29838,32.33334 -0.29839,32.33333 h 33.29839 33.29838 z m 27.56926,42.48144 c -0.49643,-0.49642 -0.90259,-19.6384 -0.90259,-42.53772 0,-36.7358 0.24817,-41.73036 2.10905,-42.44444 1.15998,-0.44513 27.48651,-0.80932 58.5034,-0.80932 46.12543,0 56.67043,0.33264 57.91047,1.8268 1.07779,1.29865 1.41411,13.73047 1.16327,43 l -0.35286,41.1732 -58.76408,0.34704 c -32.32024,0.19087 -59.17024,-0.0592 -59.66666,-0.55556 z M 560.3291,494.66667 V 462.00001 H 511.218 c -27.01112,0 -49.36112,0.24905 -49.66667,0.55345 -0.30556,0.30439 -0.38479,15.00439 -0.17605,32.66667 l 0.37949,32.11321 h 49.28717 49.28716 z m -107.23809,-50.7619 c -1.8112,-1.81119 -2.09524,-7.49207 -2.09524,-41.90476 0,-34.4127 0.28404,-40.09358 2.09524,-41.90477 1.8388,-1.83881 9.00721,-2.09524 58.57143,-2.09524 49.56421,0 56.73262,0.25643 58.57142,2.09524 1.8112,1.81119 2.09524,7.49207 2.09524,41.90477 0,34.41269 -0.28404,40.09357 -2.09524,41.90476 -1.8388,1.83881 -9.00721,2.09524 -58.57142,2.09524 -49.56422,0 -56.73263,-0.25643 -58.57143,-2.09524 z m 108.26139,-42.2381 0.35662,-33 h -50.02329 -50.02329 v 33.34956 33.34956 l 49.66666,-0.34956 49.66667,-0.34956 z M 65.145534,442.57615 c -0.44904,-1.17017 -0.81643,-20.00504 -0.81643,-41.85526 0,-32.0129 0.35475,-40.02211 1.82681,-41.24381 1.29865,-1.07778 13.73045,-1.4141 42.999996,-1.16326 l 41.17319,0.35285 v 42.66667 42.66667 l -42.18357,0.35185 c -37.597406,0.31361 -42.272326,0.12053 -42.999996,-1.77571 z m 76.206866,-40.90948 0.35662,-33 H 108.3524 74.995774 v 32.44444 c 0,17.84446 0.41042,32.85487 0.91204,33.35648 0.50162,0.50163 15.35162,0.75163 32.999996,0.55556 l 32.08796,-0.35648 z m 18.45269,40.89095 c -1.43731,-3.74557 -0.91176,-79.20818 0.57092,-81.9786 1.31824,-2.46315 3.19011,-2.5781 41.66667,-2.5586 23.02556,0.012 41.14333,0.56154 42.28642,1.28338 1.68918,1.06667 2.06064,7.38083 2.39014,40.62776 0.2608,26.31349 -0.0863,40.25506 -1.04691,42.04995 -1.39344,2.60368 -2.70571,2.68516 -43.24748,2.68516 -36.89567,0 -41.90557,-0.24792 -42.61976,-2.10905 z m 76.21397,-40.89095 0.35663,-33 h -33.35663 -33.35662 v 32.44444 c 0,17.84446 0.41041,32.85487 0.91204,33.35648 0.50161,0.50163 15.35161,0.75163 33,0.55556 l 32.08796,-0.35648 z m 18.55067,42.12952 c -0.49901,-0.49901 -0.90729,-19.28729 -0.90729,-41.75174 0,-29.99013 0.4252,-41.26965 1.6,-42.44445 2.48258,-2.48258 81.51897,-2.26813 83.58958,0.2268 1.07779,1.29866 1.41411,13.73047 1.16327,43.00001 l -0.35285,41.1732 -42.09271,0.35173 c -23.15099,0.19345 -42.50099,-0.0565 -43,-0.55555 z m 75.09271,-41.79618 V 368.66667 H 296.99577 264.3291 v 33.33334 33.33333 h 32.66667 32.66667 z m 19.57396,41.79618 c -0.49902,-0.49901 -0.9073,-19.28729 -0.9073,-41.75174 0,-29.99013 0.4252,-41.26965 1.6,-42.44445 1.85426,-1.85425 80.54188,-2.31546 83.41934,-0.48894 1.31313,0.83353 1.60801,10.33882 1.33333,42.97959 l -0.35267,41.90936 -42.0927,0.35173 c -23.15099,0.19345 -42.50099,-0.0565 -43,-0.55555 z m 75.16633,-11.46285 c 0.0405,-1.65 0.36741,-12.3 0.72648,-23.66667 0.35907,-11.36667 0.27475,-25.01667 -0.18739,-30.33333 l -0.84024,-9.66667 h -32.5529 -32.55291 v 32.44444 c 0,17.84446 0.4,32.84446 0.88889,33.33334 0.48888,0.48889 15.18888,0.88889 32.66667,0.88889 h 31.77777 l 0.0736,-3 z M 67.995774,349.8932 c -2.07074,-1.20609 -2.33333,-3.79742 -2.33333,-23.02612 0,-15.0744 0.48683,-22.15392 1.6,-23.26708 2.28627,-2.28628 81.180376,-2.28628 83.466656,0 2.24288,2.24288 2.24288,43.89046 0,46.13334 -2.06614,2.06614 -79.204536,2.2152 -82.733326,0.15986 z m 73.666666,-23.22653 v -14 H 108.99577 76.329104 v 14 14 h 32.666666 32.66667 z m 20.0469,22.08765 c -0.77104,-1.44069 -1.38024,-11.18964 -1.38024,-22.08765 0,-10.89801 0.6092,-20.64696 1.38024,-22.08765 1.31794,-2.46259 3.20203,-2.57902 41.73334,-2.57902 29.60796,0 40.77913,0.42604 41.95309,1.6 2.24288,2.24288 2.24288,43.89046 0,46.13334 -1.17396,1.17396 -12.34513,1.6 -41.95309,1.6 -38.53131,0 -40.4154,-0.1164 -41.73334,-2.57902 z m 75.6664,-22.42098 0.37999,-13.66667 h -33.37999 -33.37997 v 14.02329 14.0233 l 33,-0.35663 33,-0.35663 z m 19.22003,23.4 c -1.11193,-1.11194 -1.6,-8.14815 -1.6,-23.06667 0,-14.91852 0.48807,-21.95473 1.6,-23.06667 2.28628,-2.28628 81.18039,-2.28628 83.46667,0 1.11328,1.11328 1.6,8.19699 1.6,23.28643 0,20.07612 -0.19151,21.78891 -2.57902,23.06667 -3.86705,2.06958 -80.40221,1.86568 -82.48765,-0.21976 z m 74.4,-23.06667 v -14 h -32.57204 -32.57204 l -0.42796,11.84992 c -0.23537,6.51747 -0.23396,12.81747 0.003,14 0.38245,1.90744 4.10662,2.15008 33,2.15008 h 32.56904 z m 20.26667,23.06667 c -2.24288,-2.24288 -2.24288,-43.89046 0,-46.13334 2.28628,-2.28628 81.18038,-2.28628 83.46666,0 2.24288,2.24288 2.24288,43.89046 0,46.13334 -2.28628,2.28628 -81.18038,2.28628 -83.46666,0 z m 74.4,-23.06667 v -14 H 392.99577 360.3291 v 14 14 h 32.66667 32.66667 z m 27.66666,23.22653 c -2.07074,-1.20609 -2.33333,-3.79742 -2.33333,-23.02612 0,-15.0744 0.48684,-22.15392 1.6,-23.26708 1.19452,-1.19452 16.03809,-1.6 58.57143,-1.6 51.0015,0 57.20033,0.22891 59.15588,2.18446 1.87885,1.87884 2.12533,5.15029 1.7619,23.38445 -0.34014,17.06612 -0.81253,21.44604 -2.42254,22.4618 -2.79802,1.76525 -113.29071,1.63467 -116.33334,-0.13751 z m 108.33334,-23.22653 v -14 h -50 -50 v 14 14 h 50 50 z m 40,-187.33334 v -124 H 320.3291 38.995774 l -0.0385,22.333334 c -0.0913,52.90756 -0.12829,223.754336 -0.0487,224.666666 0.048,0.55 126.687216,1 281.420546,1 H 601.66247 Z M 66.424344,219.90476 c -1.83743,-1.83744 -2.09524,-8.90263 -2.09524,-57.42099 0,-35.58765 0.49242,-56.24584 1.38025,-57.90476 C 67.066594,102.04298 71.350954,102 322.77601,102 c 197.08944,0 256.05311,0.36668 257.28643,1.6 1.19462,1.19463 1.6,16.06659 1.6,58.69966 v 57.09967 l -3.42014,1.30034 C 576.06368,221.52799 482.92841,222 321.67088,222 93.311114,222 68.314394,221.79481 66.424344,219.90476 Z M 570.99577,162 v -49.33334 h -248 H 74.995774 V 162 211.33333 h 247.999996 248 z m -203.329,-78.453646 c -2.19761,-0.2495 -4.43843,-1.1495 -4.97959,-2 -1.73592,-2.72823 -1.21413,-46.823642 0.57526,-48.613023 2.31724,-2.317246 214.48276,-2.317246 216.8,0 2.31582,2.31583 2.25425,48.485843 -0.0667,49.987983 -1.56331,1.01179 -203.68189,1.60678 -212.329,0.62504 z m 203.329,-25.546356 v -16 H 471.66244 372.3291 v 16 15.999996 h 99.33334 99.33333 z"
       id="path99" />
  </g>
</svg>
