<?xml version="1.0" encoding="UTF-8" standalone="no"?>
<!-- Created with Inkscape (http://www.inkscape.org/) -->

<svg
   version="1.1"
   id="svg9"
   width="451"
   height="451"
   viewBox="0 0 451 451"
   sodipodi:docname="Logo.svg"
   inkscape:version="1.1.1 (3bf5ae0d25, 2021-09-20)"
   xmlns:inkscape="http://www.inkscape.org/namespaces/inkscape"
   xmlns:sodipodi="http://sodipodi.sourceforge.net/DTD/sodipodi-0.dtd"
   xmlns="http://www.w3.org/2000/svg"
   xmlns:svg="http://www.w3.org/2000/svg">
  <defs
     id="defs13" />
  <sodipodi:namedview
     id="namedview11"
     pagecolor="#ffffff"
     bordercolor="#666666"
     borderopacity="1.0"
     inkscape:pageshadow="2"
     inkscape:pageopacity="0.0"
     inkscape:pagecheckerboard="0"
     showgrid="false"
     inkscape:zoom="1.7760532"
     inkscape:cx="225.21848"
     inkscape:cy="225.5"
     inkscape:window-width="1920"
     inkscape:window-height="1009"
     inkscape:window-x="-8"
     inkscape:window-y="-8"
     inkscape:window-maximized="1"
     inkscape:current-layer="g15" />
  <g
     inkscape:groupmode="layer"
     inkscape:label="Image"
     id="g15">
    <path
       style="fill:#000000"
       d="M 2.5,225.5 V 3.499998 H 224 445.5 v 72 V 147.5 h -3 -3 v -68.500002 -68.5 H 224.5 9.5 V 226.00229 441.50458 L 224.25,441.25229 439,441 l 0.25781,-60.25 0.2578,-60.25 h 2.9922 H 445.5 V 384 447.5 H 224 2.5 Z m 193,16.5 v -27.5 h 5.5 c 5.17136,0 5.5,0.14652 5.5,2.45212 v 2.45212 l 5.20822,-2.70212 C 216.25303,214.34419 218.07814,214 226.03664,214 c 8.39333,0 9.50523,0.2391 13.95124,3 6.36736,3.95404 8.90093,8.82664 8.8243,16.97111 -0.0886,9.42167 -4.51785,15.79152 -12.90526,18.55961 -5.81065,1.91769 -20.24582,0.8519 -24.7921,-1.83047 C 209.06379,249.49011 207.1864,248.5 206.94284,248.5 206.69928,248.5 206.5,253.225 206.5,259 v 10.5 h -5.5 -5.5 z m 36.00894,0.87975 C 236.18896,241.00717 237.5,239.064 237.5,234 c 0,-7.66177 -4.42417,-10.72222 -15.5,-10.72222 -10.92809,0 -15.5,3.07762 -15.5,10.43397 0,4.1775 2.32599,7.58767 6.3783,9.35133 4.28657,1.86562 13.74236,1.77257 18.63064,-0.18333 z M 253.5,234 v -19.5 h 5.5 c 5.4142,0 5.5,0.0457 5.5,2.92756 v 2.92755 l 5.83048,-3.00701 c 6.45743,-3.33035 15.39373,-4.6557 21.16952,-3.13965 3.336,0.87564 3.5,1.12656 3.5,5.35512 0,3.4282 -0.34089,4.35903 -1.5,4.09584 -0.825,-0.18732 -4.45477,-0.36202 -8.06617,-0.38822 -7.06557,-0.0513 -12.51612,1.31467 -17.68383,4.43165 l -3.25,1.96028 V 241.58156 253.5 h -5.5 -5.5 z m 46.71159,18.87825 C 299.82021,252.48688 299.5,243.69167 299.5,233.33333 V 214.5 h 6 c 5.73333,0 6,0.11111 6,2.5 0,1.375 0.23996,2.5 0.53324,2.5 0.29329,0 2.80337,-1.15036 5.57796,-2.55635 9.31226,-4.71888 19.47302,-4.50363 25.21065,0.53407 l 3.27908,2.87908 6.07719,-3.01213 c 12.04162,-5.96839 24.7689,-4.6872 29.53203,2.97282 2.06424,3.31969 2.32352,5.13577 2.63157,18.43251 l 0.34171,14.75 h -5.47099 -5.471 l -0.41503,-12.4666 c -0.38134,-11.45441 -0.60827,-12.6723 -2.79504,-15 -3.17915,-3.38406 -9.59312,-3.41627 -16.75011,-0.0841 l -5.21873,2.42974 -0.28127,12.31049 L 348,253 l -5.10248,0.29714 -5.10247,0.29715 -0.54519,-12.62376 c -0.49004,-11.34702 -0.77543,-12.86885 -2.82183,-15.04714 -3.64718,-3.88224 -13.23412,-3.03743 -20.14669,1.77534 -2.66343,1.85437 -2.72438,2.1306 -3,13.59705 L 311,253 l -5.03841,0.29492 c -2.77113,0.16221 -5.35863,-0.0253 -5.75,-0.41667 z m 90,0 C 389.82021,252.48688 389.5,240.54167 389.5,226.33333 V 200.5 h 5.97461 5.9746 l 0.2754,15.44813 0.27539,15.44814 13.71152,-8.48617 13.71151,-8.48617 9.19372,0.28803 9.19372,0.28804 -12.15191,7.62058 -12.15191,7.62057 12.49667,11.26185 c 6.87318,6.19401 12.49668,11.42725 12.49668,11.62942 0,0.20217 -3.36699,0.36758 -7.4822,0.36758 h -7.48221 l -9.50568,-8.60165 -9.50569,-8.60164 -6.46467,3.78167 c -6.32751,3.70143 -6.47098,3.87864 -6.76211,8.35165 L 401,253 l -5.03841,0.29492 c -2.77113,0.16221 -5.35863,-0.0253 -5.75,-0.41667 z"
       id="path99" />
  </g>
</svg>
