<svg width="24" height="43" viewBox="0 0 24 43" fill="none" xmlns="http://www.w3.org/2000/svg">
<path d="M20.6428 0H3.37233C1.62041 0 0.200195 1.42021 0.200195 3.17213V39.8279C0.200195 41.5798 1.62041 43 3.37233 43H20.6428C22.3947 43 23.815 41.5798 23.815 39.8279V3.17213C23.815 1.42021 22.3947 0 20.6428 0Z" fill="#888888"/>
<path d="M22.0088 2.99585H2.00656C1.30098 2.99585 0.729004 3.56783 0.729004 4.2734V37.581C0.729004 38.2866 1.30098 38.8586 2.00656 38.8586H22.0088C22.7144 38.8586 23.2864 38.2866 23.2864 37.581V4.2734C23.2864 3.56783 22.7144 2.99585 22.0088 2.99585Z" fill="black"/>
<path d="M12.0078 42.2951C12.8595 42.2951 13.5498 41.6047 13.5498 40.7531C13.5498 39.9014 12.8595 39.2111 12.0078 39.2111C11.1562 39.2111 10.4658 39.9014 10.4658 40.7531C10.4658 41.6047 11.1562 42.2951 12.0078 42.2951Z" fill="black"/>
<path d="M14.2661 1.21753H9.74889C9.55102 1.21753 9.39062 1.37793 9.39062 1.57579C9.39062 1.77365 9.55102 1.93405 9.74889 1.93405H14.2661C14.464 1.93405 14.6244 1.77365 14.6244 1.57579C14.6244 1.37793 14.464 1.21753 14.2661 1.21753Z" fill="black"/>
</svg>
