<?xml version="1.0" encoding="UTF-8" standalone="no"?>
<!-- Created with Inkscape (http://www.inkscape.org/) -->

<svg
   version="1.1"
   id="svg9"
   width="362"
   height="651"
   viewBox="0 0 362 651"
   sodipodi:docname="mobiledevice.svg"
   inkscape:version="1.1.1 (3bf5ae0d25, 2021-09-20)"
   xmlns:inkscape="http://www.inkscape.org/namespaces/inkscape"
   xmlns:sodipodi="http://sodipodi.sourceforge.net/DTD/sodipodi-0.dtd"
   xmlns="http://www.w3.org/2000/svg"
   xmlns:svg="http://www.w3.org/2000/svg">
  <defs
     id="defs13" />
  <sodipodi:namedview
     id="namedview11"
     pagecolor="#ffffff"
     bordercolor="#666666"
     borderopacity="1.0"
     inkscape:pageshadow="2"
     inkscape:pageopacity="0.0"
     inkscape:pagecheckerboard="0"
     showgrid="false"
     inkscape:zoom="1.2304147"
     inkscape:cx="181.2397"
     inkscape:cy="325.5"
     inkscape:window-width="1920"
     inkscape:window-height="1009"
     inkscape:window-x="-8"
     inkscape:window-y="-8"
     inkscape:window-maximized="1"
     inkscape:current-layer="g15" />
  <g
     inkscape:groupmode="layer"
     inkscape:label="Image"
     id="g15">
    <path
       style="fill:red"
       d="M 40.69848,646.90447 C 28.277594,643.98142 15.161068,633.33678 9.514676,621.59745 7.5565539,617.52635 5.6345149,611.49355 5.0207001,607.49198 4.2715281,602.608 4.0313587,516.23407 4.2240871,321 L 4.5,41.5 6.7543779,35.580725 C 12.881421,19.493069 24.714503,8.6536152 40.693298,4.491668 45.632536,3.2051599 64.952057,3 181.16088,3 c 96.02027,0 136.26351,0.3233663 140.0399,1.1252617 17.57859,3.7327218 32.5636,18.8311543 36.32994,36.6049313 2.2222,10.486823 2.15416,560.738857 -0.0705,570.176737 -4.12638,17.50566 -17.20566,31.18705 -33.99518,35.56016 -5.1579,1.34346 -22.75982,1.5205 -142.42514,1.43246 -76.40033,-0.0562 -138.214295,-0.49449 -140.34142,-0.99508 z m 147.10453,-10.08509 c 6.85261,-1.7255 14.45338,-9.55121 16.15141,-16.62938 3.54985,-14.79744 -7.25827,-28.52993 -22.45442,-28.52993 -13.19165,0 -22.7632,9.79575 -22.80573,23.33993 -0.0321,10.23056 6.72465,18.84901 17.29926,22.06566 3.71177,1.12907 6.58548,1.06914 11.80948,-0.24628 z m 154.85427,-54.4254 c 2.1135,-1.70832 4.74272,-4.63332 5.84272,-6.5 1.98395,-3.36674 2.00207,-5.42716 2.25771,-256.75849 C 350.93526,144.57696 350.68889,64.558359 349.96563,61.872359 348.67592,57.082731 343.63137,51.16175 339.29774,49.351044 336.62928,48.236092 309.05318,48 181.49228,48 29.132672,48 26.864472,48.028493 23.018094,49.990769 18.305978,52.394711 14.579909,57.09602 13.103779,62.5 c -1.492515,5.463961 -1.514612,502.00482 -0.02263,508.47995 1.356562,5.88742 5.211791,10.79384 10.302761,13.11198 3.974845,1.80992 9.457449,1.86623 159.77337,1.64115 L 338.81457,585.5 Z M 219.17126,30.345012 c 2.48636,-2.250128 2.30182,-5.900247 -0.39377,-7.788308 C 216.86792,21.219184 211.58791,21 181.27749,21 147.33333,21 145.92441,21.075591 144,23 c -1.1,1.1 -2,2.675 -2,3.5 0,0.825 0.9,2.4 2,3.5 1.92524,1.925243 3.33333,2 37.67126,2 31.78916,0 35.87028,-0.180112 37.5,-1.654988 z"
       id="path99" />
  </g>
</svg>
