<?xml version="1.0" encoding="UTF-8" standalone="no"?>
<!-- Created with Inkscape (http://www.inkscape.org/) -->

<svg
   version="1.1"
   id="svg9"
   width="1157"
   height="423"
   viewBox="0 0 1157 423"
   sodipodi:docname="next.svg"
   inkscape:version="1.1.1 (3bf5ae0d25, 2021-09-20)"
   xmlns:inkscape="http://www.inkscape.org/namespaces/inkscape"
   xmlns:sodipodi="http://sodipodi.sourceforge.net/DTD/sodipodi-0.dtd"
   xmlns="http://www.w3.org/2000/svg"
   xmlns:svg="http://www.w3.org/2000/svg">
  <defs
     id="defs13" />
  <sodipodi:namedview
     id="namedview11"
     pagecolor="#ffffff"
     bordercolor="#666666"
     borderopacity="1.0"
     inkscape:pageshadow="2"
     inkscape:pageopacity="0.0"
     inkscape:pagecheckerboard="0"
     showgrid="false"
     inkscape:zoom="0.51598963"
     inkscape:cx="498.07203"
     inkscape:cy="233.53183"
     inkscape:window-width="1920"
     inkscape:window-height="1009"
     inkscape:window-x="-8"
     inkscape:window-y="-8"
     inkscape:window-maximized="1"
     inkscape:current-layer="g15" />
  <g
     inkscape:groupmode="layer"
     inkscape:label="Image"
     id="g15">
    <path
       style="fill:#000000"
       d="M 514.5,337.93029 C 497.49441,335.6179 480.81414,329.32444 468.61079,320.61631 459.42581,314.06205 446.2717,299.66343 440.37844,289.71292 427.29971,267.63003 421.05289,233.55975 423.92949,200 c 4.45988,-52.03115 25.00783,-87.82088 60.77392,-105.854019 19.32559,-9.743888 48.59574,-12.440535 71.60905,-6.597312 22.32706,5.668982 41.72774,22.609361 50.52973,44.121791 5.60827,13.70682 9.14105,31.88029 9.15191,47.07954 L 616,187 H 543.47525 470.9505 l -1.02167,2.68718 c -1.73339,4.55916 -1.38447,42.39067 0.49592,53.76999 5.84488,35.37073 23.86221,61.04982 50.79646,72.39734 5.78061,2.4354 7.3896,2.64529 20.27879,2.64539 12.75017,9e-5 14.79051,-0.25899 22.85486,-2.90211 16.83767,-5.51861 29.24585,-16.02935 39.62723,-33.56753 C 606.922,277.06362 609.64876,273 610.04156,273 c 1.21031,0 7.95844,2.99595 7.95844,3.53329 0,2.17313 -5.8139,13.90279 -10.25419,20.68801 -13.15458,20.10158 -32.82292,34.17575 -54.86907,39.26293 -8.79082,2.0285 -28.60326,2.77504 -38.37674,1.44606 z m 57.20623,-160.60711 c 1.21095,-3.15569 -1.59966,-30.6466 -4.1686,-40.77369 -3.24274,-12.78326 -10.08891,-26.87532 -16.02254,-32.98057 -10.88652,-11.201409 -27.53221,-13.455261 -43.25483,-5.856776 -8.69442,4.201876 -18.84393,14.937616 -24.52995,25.946806 -2.54287,4.92346 -5.78685,12.51589 -7.20885,16.87207 -3.37215,10.3303 -7.30039,32.70295 -6.62278,37.71898 0.0557,0.4125 22.84044,0.75 50.6327,0.75 46.36252,0 50.58448,-0.13834 51.17485,-1.67682 z M 967.62214,337.3976 C 949.06758,334.04622 934.26255,321.56267 927.48375,303.55306 922.41029,290.07413 922,281.38721 922,187.44878 V 101 H 899.44521 876.89042 L 877.19521,96.25 877.5,91.5 899.75,91.230868 922,90.961737 V 55.526182 20.090626 l 3.25,-0.460665 c 1.7875,-0.253366 7.975,-0.931576 13.75,-1.507132 5.775,-0.575557 13.7625,-1.883925 17.75,-2.907486 L 964,13.354325 V 52.177162 91 h 34.5 34.5 v 5 5 h -34.52819 -34.52819 l 0.28796,98.25 c 0.26396,90.05675 0.43227,98.67416 2.01834,103.33635 2.50235,7.35558 6.64292,12.49244 12.82719,15.91365 4.90066,2.7111 6.2896,2.99951 14.42289,2.99495 10.9665,-0.006 16.158,-2.05772 23.3131,-9.21282 6.3664,-6.36636 11.2463,-15.28862 15.7421,-28.78213 2.0157,-6.05 3.795,-11.14208 3.9539,-11.31572 0.159,-0.17365 2.1344,0.18119 4.39,0.78854 4.9093,1.32196 4.921,1.42656 1.5676,14.02718 -10.6945,40.18518 -36.2212,57.37388 -74.84456,50.3976 z M 136,327.66707 c 0,-4.88234 1.04373,-5.62602 7.9344,-5.65342 7.03862,-0.028 15.28458,-3.17999 19.59462,-7.49004 C 170.76467,307.28797 170.5,311.14249 170.5,213 v -87.5 l -2.3811,-6 C 163.55763,108.00628 152.97833,101 140.1844,101 H 136 V 96.25 91.5 l 27.25,-0.03019 c 24.04224,-0.02664 28.3683,-0.279807 36.75,-2.150682 5.225,-1.16627 10.2875,-2.438329 11.25,-2.826798 1.64052,-0.662118 1.75,0.95829 1.75,25.90068 0,14.63385 0.3375,26.59489 0.75,26.58011 0.4125,-0.0148 2.0593,-2.95749 3.65955,-6.53934 6.98441,-15.63321 18.07928,-28.49238 31.36491,-36.352555 24.32436,-14.39101 61.09941,-15.526781 82.72554,-2.554919 13.76611,8.257234 21.09563,19.283744 25.2418,37.973694 1.30029,5.86138 1.66046,20.25675 2.2143,88.5 0.69441,85.56401 0.66873,85.11816 5.30539,92.11763 2.66754,4.02689 11.07337,8.55697 17.31795,9.33301 2.43131,0.30215 6.44556,0.80193 8.92056,1.11063 l 4.5,0.56128 v 4.48916 4.48916 l -24.25,-0.80044 c -30.06541,-0.99238 -34.84196,-0.993 -62.5,-0.008 l -22.25,0.7923 v -4.42567 c 0,-4.84018 1.06128,-5.617 7.71249,-5.64528 5.41598,-0.023 14.04958,-3.83515 16.77336,-7.40622 6.29306,-8.25062 6.01415,-3.79352 6.01415,-96.10743 0,-76.73721 -0.1513,-84.58896 -1.74994,-90.8118 C 309.41768,106.93144 300.2106,99.587516 279.5,99.5714 c -17.38538,-0.01353 -29.22237,5.0201 -42.02728,17.87192 -6.65031,6.67466 -8.92699,9.85782 -13.27228,18.55668 -10.58028,21.18077 -11.45566,29.71481 -10.97556,107 0.39677,63.86984 0.49153,64.94422 6.34128,71.89626 C 222.50138,318.38457 231.35175,322 236.95573,322 243.1623,322 244,322.67181 244,327.64929 v 4.43531 l -22.25,-0.7923 c -27.61111,-0.9832 -31.48189,-0.98269 -61.5,0.008 L 136,332.10074 v -4.4338 z m 506.00044,-0.33761 c -4.1e-4,-3.89456 0.21463,-4.21705 3.24956,-4.87322 14.82295,-3.20479 29.78243,-19.93239 88.97811,-99.4947 l 2.72811,-3.66673 -12.59007,-18.39741 C 717.44162,190.77883 701.83149,167.875 689.67698,150 664.21312,112.55165 657.00531,104.19337 648.25,101.9607 L 643,100.6219 v -4.815358 -4.815358 l 11.75,0.754408 c 14.83359,0.952389 33.54824,0.958496 57.5,0.01876 L 731,91.028706 v 4.985646 C 731,100.73334 730.85912,101 728.36602,101 c -4.39663,0 -10.28756,2.19427 -12.89732,4.80403 -4.0285,4.0285 -3.25592,6.88698 5.23532,19.37013 28.16795,41.41031 43.52245,63.32584 44.36745,63.32584 1.69152,0 37.707,-51.61187 41.96307,-60.13504 4.3899,-8.79118 5.30081,-14.50131 2.99934,-18.80165 -1.81975,-3.40023 -9.86947,-7.19704 -18.28388,-8.62396 L 785,99.79469 784.99981,95.647345 784.99961,91.5 h 37.49981 37.49981 l 3.9e-4,4.235602 c 3.8e-4,4.192002 -0.0464,4.247387 -4.54654,5.380528 -6.52499,1.64301 -15.87487,8.01886 -23.95308,16.33402 -7.22522,7.43715 -60.22513,80.01277 -59.716,81.77233 0.30169,1.04265 57.34537,84.4051 67.59199,98.77752 3.33297,4.675 8.32436,10.92698 11.09198,13.89329 4.79009,5.13398 13.00392,10.07585 16.78203,10.09694 1.43322,0.008 1.75,0.91946 1.75,5.03515 v 5.02538 l -13.75,-0.77538 c -17.18444,-0.96905 -23.17737,-0.96769 -51.5563,0.0117 l -22.80631,0.78706 0.30631,-4.77933 0.3063,-4.77932 4.62832,-0.65743 c 2.54558,-0.36159 5.54818,-1.14973 6.67245,-1.75142 2.966,-1.58735 6.19923,-6.03698 6.19923,-8.53148 0,-1.64966 -51.27188,-78.06976 -54.93367,-81.87795 -0.69078,-0.7184 -30.77708,37.58242 -38.94988,49.58445 -8.13049,11.93989 -10.58686,21.60582 -7.35013,28.923 3.38038,7.6419 10.68153,11.68906 25.05741,13.88975 l 8.17627,1.25165 6e-5,4.07698 7e-5,4.07698 H 686.5005 642.00088 l -4.4e-4,-4.17054 z M 1085,114.1446 c 0,-2.78413 0.1615,-2.87047 6.4718,-3.45974 7.8081,-0.72913 11.9534,-2.71179 14.6008,-6.98341 1.8746,-3.02464 1.9688,-4.750443 1.7058,-31.248133 -0.2501,-25.196519 -0.4641,-28.329888 -2.1062,-30.833526 -2.3882,-3.641357 -7.3359,-5.624128 -15.8062,-6.334246 -6.7386,-0.56494 -6.866,-0.628232 -6.866,-3.41153 0,-3.339372 0.5238,-3.50583 13.5,-4.290317 10.1433,-0.613221 18.5392,-2.554182 26.219,-6.061299 l 5.219,-2.383346 0.281,42.350802 0.281,42.350805 2.3322,2.48166 c 2.4946,2.65435 8.8144,4.67768 14.6106,4.67768 3.2858,0 3.5572,0.22891 3.5572,3 v 3 h -32 -32 z"
       id="path99" />
  </g>
</svg>
