<?xml version="1.0" encoding="UTF-8" standalone="no"?>
<!-- Created with Inkscape (http://www.inkscape.org/) -->

<svg
   version="1.1"
   id="svg204"
   width="480"
   height="611"
   viewBox="0 0 480 611"
   sodipodi:docname="todo.svg"
   inkscape:version="1.1.1 (3bf5ae0d25, 2021-09-20)"
   xmlns:inkscape="http://www.inkscape.org/namespaces/inkscape"
   xmlns:sodipodi="http://sodipodi.sourceforge.net/DTD/sodipodi-0.dtd"
   xmlns="http://www.w3.org/2000/svg"
   xmlns:svg="http://www.w3.org/2000/svg">
  <defs
     id="defs208" />
  <sodipodi:namedview
     id="namedview206"
     pagecolor="#ffffff"
     bordercolor="#666666"
     borderopacity="1.0"
     inkscape:pageshadow="2"
     inkscape:pageopacity="0.0"
     inkscape:pagecheckerboard="0"
     showgrid="false"
     inkscape:zoom="1.3486088"
     inkscape:cx="240.24757"
     inkscape:cy="305.87075"
     inkscape:window-width="1920"
     inkscape:window-height="1009"
     inkscape:window-x="-8"
     inkscape:window-y="-8"
     inkscape:window-maximized="1"
     inkscape:current-layer="g210" />
  <g
     inkscape:groupmode="layer"
     inkscape:label="Image"
     id="g210">
    <path
       style="fill:#000000"
       d="m 72.863873,608.03289 -6.5,-0.5774 -0.6511,-5.5 c -0.35811,-3.025 -0.69561,-14.5773 -0.75,-25.67178 l -0.0989,-20.17178 -29.91798,-0.32822 c -16.45489,-0.18052 -30.2918395,-0.70266 -30.7487595,-1.16032 -1.67955,-1.6822 -2.452,-142.42244 -1.86702,-340.1679 0.33029,-111.65 0.85309,-204.8634761 1.16179,-207.1410615 L 4.0531735,3.173364 27.208523,2.4795918 C 39.943963,2.0980171 134.82898,1.9364961 238.06411,2.1206563 c 149.47,0.266638 187.95736,0.5920008 188.96261,1.5974439 0.87362,0.8737906 1.38766,6.1858841 1.66923,17.2499998 l 0.40687,15.987393 h 22.3091 c 17.84111,0 22.59087,0.281776 23.71603,1.406935 2.1326,2.132605 2.73343,65.976982 2.73477,290.597422 l 10e-4,194.50436 -42.75431,42.74564 -42.75431,42.74564 -156.49569,-0.1726 c -86.07263,-0.0949 -159.420687,-0.43243 -162.995687,-0.75 z m 313.660537,-28.8274 c -0.3607,-10.3125 -0.93437,-19.7625 -1.27481,-21 l -0.61899,-2.25 H 230.24724 75.863873 v 21 21 H 231.52205 387.18024 Z m 69.33946,-51.21698 c 0,-1.21019 -14.18927,-1.34055 -40.83969,-0.37521 l -18.16031,0.6578 v 17.1852 c 0,9.45185 0.29851,22.73682 0.66335,29.52215 l 0.66336,12.33697 28.83664,-29.14695 c 15.86016,-16.03082 28.83665,-29.6118 28.83665,-30.17996 z m -70,5.15811 c 0,-16.30987 -0.76434,-15.60624 17.4183,-16.03489 l 14.5817,-0.34377 -3.1e-4,-74.65623 c -1.7e-4,-41.06093 -0.29975,-154.64374 -0.66573,-252.40624 L 416.5324,11.955493 H 215.19814 13.863873 v 95.333987 c 0,52.43369 -0.29956,172.35869 -0.66569,266.5 l -0.6657,171.16601 H 199.19817 385.86387 Z M 54.352503,458.5121 c -4.57994,-4.85614 -11.48863,-15.43939 -11.48863,-17.59913 0,-2.31925 2.62102,-4.95748 4.92514,-4.95748 0.98026,0 4.52088,2.96839 7.86804,6.59643 4.13658,4.48368 6.50551,6.34278 7.39629,5.8045 0.72079,-0.43556 9.99732,-6.55396 20.6145,-13.59643 10.61718,-7.04248 19.876227,-12.8045 20.575677,-12.8045 0.69945,0 2.28872,1.08254 3.53171,2.40565 1.77411,1.88845 2.04114,2.81459 1.24204,4.30771 -1.66278,3.10694 -34.285857,25.74244 -44.919277,31.1672 -5.4556,2.78324 -5.9331,2.71837 -9.74549,-1.32395 z m 83.842787,2.70897 c -6.16765,-0.4349 -8.14814,-2.17765 -6.52446,-5.74125 0.74908,-1.64406 2.31434,-2.67341 4.89702,-3.22038 5.65489,-1.19763 218.95863,-0.95821 223.70309,0.25109 4.91708,1.25331 6.40217,3.37346 4.81027,6.8673 l -1.17446,2.57766 -110.27144,-0.18498 c -60.64929,-0.10174 -112.5973,-0.34899 -115.44002,-0.54944 z m 4.7227,-29.01324 c -5.19523,-0.18292 -10.03273,-0.81962 -10.75,-1.4149 -1.92198,-1.5951 -1.58898,-4.26967 0.80087,-6.43245 2.02514,-1.83273 4.60337,-1.90499 67.97222,-1.90499 h 65.86723 l 2.18523,2.18523 c 2.04454,2.04453 2.08354,2.34042 0.60578,4.59577 -1.38927,2.1203 -2.58214,2.48858 -9.90745,3.05877 -8.16167,0.6353 -98.16081,0.56791 -116.77388,-0.0874 z M 53.113743,376.70549 c -9.73361,-12.79663 -11.835,-17.8313 -8.24451,-19.75287 3.50882,-1.87786 6.45489,-0.39377 10.89655,5.48917 2.28959,3.03254 4.73452,5.5137 5.4332,5.5137 0.69867,0 6.1966,-3.21854 12.2176,-7.15232 17.25053,-11.27048 29.744787,-18.84768 31.078467,-18.84768 1.97933,0 4.36882,2.95933 4.36882,5.41069 0,2.4615 -5.15344,6.45029 -27.499997,21.28512 -14.87339,9.87375 -20.7307,13.30419 -22.71625,13.30419 -0.84729,0 -3.33754,-2.3625 -5.53388,-5.25 z m 84.579797,4.55964 c -2.56868,-0.22699 -5.20643,-1.05868 -5.86166,-1.84819 -1.72275,-2.07579 -0.3782,-6.11842 2.27105,-6.8283 3.11609,-0.83499 211.2886,-0.63824 221.47389,0.20931 4.51712,0.37589 8.72432,1.19481 9.34933,1.81982 1.6152,1.6152 0.27124,4.98493 -2.3454,5.88068 -2.27572,0.77904 -216.48349,1.50932 -224.88721,0.76668 z m 1.70492,-29.02384 c -6.67828,-0.44608 -8.53459,-1.48701 -8.53459,-4.7858 0,-5.11335 -1.581,-5 69.74101,-5 h 66.4346 l 1.86206,2.29887 c 1.02413,1.26437 1.60668,2.96438 1.29454,3.77778 -1.46606,3.82051 -3.0831,3.92066 -64.83221,4.01548 -33,0.0507 -62.68444,-0.0872 -65.96541,-0.30633 z M 55.407743,299.57068 c -1.86265,-1.97499 -5.49516,-6.97388 -8.07225,-11.10864 -5.24228,-8.4109 -5.48633,-11.96279 -0.90102,-13.11362 2.87934,-0.72267 5.614,1.37995 9.97011,7.66581 1.4453,2.08557 3.33095,4.06177 4.19032,4.39154 0.98072,0.37634 7.1859,-3.09061 16.66573,-9.31147 19.98667,-13.11566 26.053627,-16.44802 28.520247,-15.66515 2.49164,0.79082 3.51535,3.84995 2.14512,6.41025 -1.29394,2.41775 -30.361337,22.94823 -45.346877,32.02878 l -3.78474,2.29338 z m 77.754157,1.15933 c -1.882,-2.42886 -2.15426,-4.58888 -0.81013,-6.42732 1.29776,-1.77502 5.85402,-1.85777 116.60958,-2.11777 92.34612,-0.21679 115.41937,-0.018 116.06548,1 1.52219,2.39833 0.85656,5.68905 -1.41296,6.98539 -3.30626,1.88851 -228.99762,2.43665 -230.45197,0.5597 z m 9.44949,-28.50006 c -7.93239,-0.31938 -8.89946,-0.57671 -10.32107,-2.74637 -1.17851,-1.79863 -1.30792,-2.88105 -0.52038,-4.35259 0.95617,-1.78661 2.56515,-2.01633 18.32108,-2.61579 9.50007,-0.36145 39.92165,-0.29775 67.60352,0.14156 48.36275,0.7675 50.38676,0.87544 51.76526,2.76074 1.29112,1.76577 1.18083,2.21585 -1.10269,4.5 l -2.53729,2.53799 -57.22797,0.0634 c -31.47539,0.0349 -61.1666,-0.0951 -65.98046,-0.28897 z M 54.293213,217.20549 c -1.90778,-2.0625 -5.30975,-6.55799 -7.55994,-9.98997 -4.65042,-7.09283 -4.74255,-10.75179 -0.2988,-11.8671 2.94843,-0.74001 5.60439,1.37907 11.11175,8.86563 l 3.50055,4.75855 11.15855,-7.67496 c 16.52056,-11.363 29.787887,-19.34215 32.161157,-19.34215 2.71194,0 4.49739,1.82831 4.49739,4.60534 0,2.45855 -5.42336,6.73458 -25.499997,20.10535 -13.42145,8.9385 -22.55152,14.28931 -24.38184,14.28931 -0.67107,0 -2.78104,-1.6875 -4.68882,-3.75 z m 81.870567,3.02023 c -3.04735,-0.27596 -4.36622,-0.90378 -4.8054,-2.28752 -0.97159,-3.06122 1.20721,-5.8282 5.26764,-6.68968 6.09378,-1.29287 222.24318,-0.79064 225.45992,0.52387 3.13883,1.28267 4.6354,5.44498 2.76715,7.69609 -1.08031,1.30169 -15.14566,1.46524 -112.86166,1.3123 -61.39516,-0.0961 -113.5176,-0.34586 -115.82765,-0.55506 z m 3.73844,-29.01612 c -3.55391,-0.19829 -7.04141,-0.84169 -7.75,-1.42977 -1.90726,-1.58288 -1.56633,-4.2628 0.81664,-6.41935 2.02514,-1.83273 4.60337,-1.90499 67.97222,-1.90499 h 65.86723 l 2.18523,2.18523 c 2.04572,2.04571 2.08423,2.33937 0.60324,4.59965 -1.2902,1.96909 -2.72969,2.53439 -7.80415,3.06478 -6.27247,0.6556 -109.88349,0.57438 -121.89041,-0.0956 z M 51.053333,133.13002 c -8.79548,-11.86246 -9.87676,-15.66596 -5.16974,-18.18508 1.89511,-1.01423 2.72109,-0.54806 7.41441,4.18458 2.90494,2.92928 5.50031,6.00097 5.76749,6.82597 0.76261,2.35479 4.54444,0.50277 21.80607,-10.6788 8.52077,-5.5195 17.36917,-11.10174 19.663107,-12.40499 4.0945,-2.3262 4.20883,-2.33512 6.25,-0.48789 3.94542,3.57056 2.75593,5.95054 -6.1708,12.34684 -19.600257,14.04422 -39.070437,26.22484 -41.919247,26.22484 -1.13444,0 -4.06215,-2.99828 -7.64129,-7.82547 z m 84.560157,7.14023 c -3.13172,-0.50975 -5.1476,-3.48549 -4.25863,-6.28637 0.44908,-1.41494 1.92222,-2.0598 5.8054,-2.5413 2.86199,-0.35488 54.47861,-0.49715 114.70361,-0.31616 115.73364,0.3478 114,0.27437 114,4.82907 0,4.56978 1.93754,4.49242 -116,4.63122 -61.325,0.0722 -112.73767,-0.0702 -114.25038,-0.31646 z m 4.79207,-29.02083 c -7.63513,-0.43321 -9.54169,-1.3911 -9.54169,-4.79393 0,-5.10794 -1.47672,-5 68.40354,-5 35.80305,0 66.30397,0.33855 67.77981,0.75232 4.24424,1.18995 4.87869,6.55948 0.98933,8.37296 -1.70426,0.79464 -114.95376,1.38795 -127.63099,0.66865 z m 326.21042,170.45607 0.2521,-233.749997 h -19.0021 -19.00211 V 281.97756 515.99962 l 18.75,-0.27206 18.75,-0.27207 z"
       id="path214" />
  </g>
</svg>
