<?xml version="1.0" encoding="UTF-8" standalone="no"?>
<!-- Created with Inkscape (http://www.inkscape.org/) -->

<svg
   version="1.1"
   id="svg126"
   width="880"
   height="993"
   viewBox="0 0 880 993"
   sodipodi:docname="activity.svg"
   inkscape:version="1.1.1 (3bf5ae0d25, 2021-09-20)"
   xmlns:inkscape="http://www.inkscape.org/namespaces/inkscape"
   xmlns:sodipodi="http://sodipodi.sourceforge.net/DTD/sodipodi-0.dtd"
   xmlns="http://www.w3.org/2000/svg"
   xmlns:svg="http://www.w3.org/2000/svg">
  <defs
     id="defs130" />
  <sodipodi:namedview
     id="namedview128"
     pagecolor="#ffffff"
     bordercolor="#666666"
     borderopacity="1.0"
     inkscape:pageshadow="2"
     inkscape:pageopacity="0.0"
     inkscape:pagecheckerboard="0"
     showgrid="false"
     inkscape:zoom="0.58676333"
     inkscape:cx="327.21881"
     inkscape:cy="338.29653"
     inkscape:window-width="1920"
     inkscape:window-height="1009"
     inkscape:window-x="-8"
     inkscape:window-y="-8"
     inkscape:window-maximized="1"
     inkscape:current-layer="g132" />
  <g
     inkscape:groupmode="layer"
     inkscape:label="Image"
     id="g132">
    <path
       style="fill:#000000"
       d="m 437.73049,915.90296 c -18.28762,-5.1271 -31.98018,-20.7392 -35.28309,-40.2292 -1.8464,-10.8953 -0.19325,-18.4596 8.13729,-37.2336 7.67203,-17.28989 7.44014,-16.77445 40.49636,-90.01642 13.03212,-28.875 27.10023,-60.0483 31.26246,-69.274 4.16223,-9.22569 7.39099,-16.9116 7.17502,-17.0798 -2.68208,-2.08875 -124.45609,-91.54549 -132.89267,-97.62464 -15.05157,-10.84572 -17.17103,-12.92902 -23.42108,-23.02156 -7.76785,-12.54347 -9.76013,-18.52505 -10.33413,-31.02703 -0.57384,-12.49866 0.97759,-21.26064 6.31916,-35.6886 5.92181,-15.99525 12.60971,-27.42485 44.63687,-76.28437 16.76428,-25.575 41.35221,-63.07886 54.63984,-83.34192 13.28764,-20.26306 24.15934,-37.20241 24.15934,-37.64301 0,-0.4406 -0.7875,-1.12059 -1.75,-1.51108 -3.97861,-1.61416 -80.67644,-28.50399 -81.30189,-28.50399 -0.37412,0 -28.75299,14.42819 -63.06416,32.06265 -34.31117,17.63446 -67.53465,34.62196 -73.82995,37.75 l -11.44601,5.68735 h -13.05399 c -12.19213,0 -13.38542,-0.17497 -18.0738,-2.6502 -10.74127,-5.67083 -20.78229,-20.83785 -22.08873,-33.36516 -1.18013,-11.31606 3.27977,-23.01929 12.07759,-31.69284 5.16442,-5.09147 0.94517,-2.74023 97.4372,-54.29838 65.80079,-35.15905 73.0036,-38.77311 78.95408,-39.6158 13.06847,-1.85072 10.20789,-2.71155 148.29546,44.62625 18.30969,6.27675 23.71519,8.85634 29.8442,14.24215 2.475,2.17488 17.55,12.65899 33.5,23.29802 15.95,10.63903 31.03434,21.43054 33.52076,23.98113 2.48642,2.55059 5.97715,7.3699 7.75718,10.70959 1.78004,3.33968 9.12271,24.2281 16.31705,46.41869 7.19434,22.1906 16.44489,50.7178 20.55678,63.39376 l 7.47617,23.04721 40.18603,9.81068 c 110.35965,26.94226 103.4693,25.11166 109.04223,28.96983 6.50907,4.50627 10.38026,9.39704 13.44628,16.98773 3.29721,8.16317 3.80121,15.5329 1.75885,25.7226 -2.18073,10.88029 -5.32559,17.67932 -10.96731,23.71077 -8.11985,8.68078 -19.66711,12.99711 -31.3472,11.71749 -3.16075,-0.34628 -17.22182,-3.52723 -31.24682,-7.06879 -23.60236,-5.96002 -39.3517,-9.98117 -109.4129,-27.93552 -14.2521,-3.65234 -28.13719,-7.76775 -30.85577,-9.14535 -6.10399,-3.09313 -13.11746,-10.17421 -16.11407,-16.2694 -1.24234,-2.52695 -8.0693,-22.52331 -15.17103,-44.43635 -11.79611,-36.39795 -13.03276,-39.66039 -14.30646,-37.74209 -0.76682,1.15489 -20.4475,33.03214 -43.73484,70.83833 -32.80345,53.25525 -42.06631,68.99803 -41.12278,69.89063 0.66982,0.63366 24.84285,18.31828 53.71785,39.29914 32.88606,23.89534 54.74159,40.46603 58.5,44.35423 13.45121,13.91573 17.76096,32.82017 11.10279,48.70165 -1.2682,3.025 -13.41656,30.925 -26.99634,62 -13.57979,31.075 -36.16898,82.825 -50.19822,115 -14.78131,33.89982 -26.96871,60.50582 -28.98204,63.26982 -4.55393,6.2519 -13.81761,12.983 -21.64903,15.7304 -8.25926,2.8975 -23.99251,3.6322 -31.67253,1.479 z M 61.280898,705.34293 c -13.9965,-2.08569 -29.82202,-13.59883 -35.89916,-26.11681 -9.79465,-20.17548 -6.89256,-39.49683 8.24412,-54.88712 7.8211,-7.95215 19.82993,-14.31344 30,-15.89154 3.99252,-0.61952 39.704092,-1.01153 92.573162,-1.01617 l 86.07315,-0.008 22.92685,-31.94288 c 12.60976,-17.56858 23.2032,-31.96858 23.54098,-32 0.33778,-0.0314 1.37367,1.93167 2.30198,4.3624 5.0212,13.14783 31.02824,37.97102 59.58388,56.8716 5.775,3.82239 10.37052,7.39654 10.21227,7.94254 -0.72108,2.48785 -51.67921,76.00633 -55.19018,79.62414 -4.884,5.03263 -10.59563,8.69493 -17.91594,11.48772 -5.59203,2.13343 -5.87684,2.1392 -113.10615,2.29173 -59.125,0.0841 -110.130232,-0.23902 -113.344962,-0.71806 z M 604.35969,230.9111 c -14.89092,-2.82808 -29.84902,-9.95428 -42.09265,-20.05339 -22.4719,-18.53587 -34.94679,-49.70396 -31.67185,-79.13104 4.19636,-37.706541 30.84473,-68.423211 68.03117,-78.417211 11.80154,-3.17171 31.70279,-3.24622 43.9995,-0.16474 16.18989,4.05709 28.86318,11.08958 40.85914,22.67298 12.49093,12.06134 19.78248,23.90016 24.82667,40.309451 2.47407,8.04842 2.70406,10.19996 2.70406,25.29659 0,15.09314 -0.23036,17.24933 -2.70166,25.28832 -9.61682,31.28286 -33.79657,54.77521 -64.68821,62.84917 -10.14895,2.65258 -28.99549,3.30047 -39.26617,1.34987 z"
       id="path154" />
  </g>
</svg>
