<?xml version="1.0" encoding="UTF-8" standalone="no"?>
<!-- Created with Inkscape (http://www.inkscape.org/) -->

<svg
   version="1.1"
   id="svg1161"
   width="546.1333"
   height="546.1333"
   viewBox="0 0 546.1333 546.1333"
   sodipodi:docname="github.svg"
   inkscape:version="1.1.1 (3bf5ae0d25, 2021-09-20)"
   xmlns:inkscape="http://www.inkscape.org/namespaces/inkscape"
   xmlns:sodipodi="http://sodipodi.sourceforge.net/DTD/sodipodi-0.dtd"
   xmlns="http://www.w3.org/2000/svg"
   xmlns:svg="http://www.w3.org/2000/svg">
  <defs
     id="defs1165" />
  <sodipodi:namedview
     id="namedview1163"
     pagecolor="#ffffff"
     bordercolor="#666666"
     borderopacity="1.0"
     inkscape:pageshadow="2"
     inkscape:pageopacity="0.0"
     inkscape:pagecheckerboard="0"
     showgrid="false"
     inkscape:zoom="0.37719729"
     inkscape:cx="660.132"
     inkscape:cy="157.74239"
     inkscape:window-width="1920"
     inkscape:window-height="1009"
     inkscape:window-x="-8"
     inkscape:window-y="-8"
     inkscape:window-maximized="1"
     inkscape:current-layer="g1167" />
  <g
     inkscape:groupmode="layer"
     inkscape:label="Image"
     id="g1167">
    <path
       style="fill:#000000;stroke-width:1.06667"
       d="m 186.96687,535.96419 c -5.61103,-1.46411 -19.94126,-7.16787 -30.4,-12.09988 C 79.492071,487.51822 23.017181,415.55456 5.733411,331.66337 -4.956289,279.77815 -0.4960389,225.23663 18.385711,176.9466 43.002661,113.98878 89.564281,62.231856 148.56687,32.239924 189.76461,11.298477 227.87361,2.2230858 273.9002,2.3926668 c 35.78511,0.131848 67.23133,6.026836 98.41472,18.4490752 124.20597,49.478778 194.68841,180.190218 167.60177,310.821628 -16.06935,77.49808 -64.27263,143.7384 -133.31131,183.19466 -14.73146,8.41918 -38.27403,18.70084 -48.43852,21.15439 -4.91587,1.18661 -10.67643,-0.42038 -13.93614,-3.88771 l -2.59719,-2.76261 -0.61511,-48.71604 c -0.58261,-46.1419 -0.73919,-49.12965 -2.96327,-56.54392 -3.00441,-10.0155 -6.70635,-17.2862 -11.50696,-22.5999 -4.38521,-4.85391 -4.63842,-4.65714 8.152,-6.33479 73.93916,-9.69825 111.87761,-53.8425 111.98045,-130.29769 0.0229,-17.01397 -1.85114,-29.15449 -6.47132,-41.92297 -3.31914,-9.17289 -12.18884,-24.51281 -18.00139,-31.13294 l -3.11148,-3.54378 2.12135,-7.23668 c 2.70422,-9.22509 3.74665,-28.09946 2.13758,-38.70335 -0.66767,-4.4 -2.47112,-12.15837 -4.00766,-17.24084 -2.6736,-8.84355 -2.94477,-9.26917 -6.30707,-9.89994 -4.39209,-0.82397 -14.96234,0.8218 -23.98543,3.73447 -9.11493,2.94232 -28.20794,12.31376 -39.13247,19.20745 l -8.77743,5.53879 -8.82257,-2.18709 c -20.06598,-4.97432 -30.93177,-6.08592 -59.48922,-6.08592 -28.53541,0 -39.42542,1.11237 -59.42662,6.07022 l -8.75996,2.17139 -10.50905,-6.49496 c -23.80864,-14.71455 -50.29112,-24.18753 -61.67503,-22.06161 -3.10518,0.57989 -3.47425,1.17757 -6.13332,9.93253 -5.65865,18.6311 -6.40975,41.28337 -1.84741,55.71551 l 2.19178,6.93333 -2.15105,2.66667 c -5.5882,6.92772 -14.16188,20.84046 -17.10507,27.75684 -5.77814,13.57841 -7.551513,22.42076 -8.166333,40.71867 -1.657276,49.32251 13.123153,87.67692 42.498213,110.28051 16.47556,12.67766 41.521,22.32794 67.61719,26.05365 14.54074,2.07596 13.96578,1.69838 9.72841,6.38863 -4.5503,5.03665 -9.73803,15.78394 -11.72007,24.28017 -0.83276,3.56969 -1.82446,6.99252 -2.20381,7.60631 -1.281,2.0727 -17.7039,6.50545 -26.51793,7.15751 -21.24454,1.57168 -37.23076,-6.99982 -50.86077,-27.27056 -10.3134,-15.33823 -19.1383,-23.10347 -31.492479,-27.71105 -6.91125,-2.5776 -16.19366,-3.12645 -21.06667,-1.24565 -6.11927,2.36181 -3.15871,7.42488 9.86667,16.87372 11.30978,8.20429 17.284879,16.42926 27.730649,38.17235 5.65676,11.77465 7.66877,14.82568 13.8591,21.01599 13.73036,13.73038 32.1802,19.86446 56.0057,18.62042 7.04249,-0.36772 14.71106,-1.12858 17.04126,-1.69078 2.33018,-0.5622 4.35265,-0.90626 4.49435,-0.76455 0.14171,0.14171 0.31917,11.65231 0.39436,25.57911 0.11666,21.60839 -0.11442,25.70475 -1.57588,27.93522 -3.33162,5.08468 -9.90926,7.48854 -16.08289,5.87764 z"
       id="path1171" />
  </g>
</svg>
