<svg xmlns:inkscape="http://www.inkscape.org/namespaces/inkscape" xmlns:sodipodi="http://sodipodi.sourceforge.net/DTD/sodipodi-0.dtd" xmlns="http://www.w3.org/2000/svg" xmlns:svg="http://www.w3.org/2000/svg" version="1.1" id="svg5" inkscape:version="1.1.1 (3bf5ae0d25, 2021-09-20)" sodipodi:docname="health.svg" viewBox="41.29 92.61 127.42 111.78">
  <sodipodi:namedview id="namedview7" pagecolor="#ffffff" bordercolor="#666666" borderopacity="1.0" inkscape:pageshadow="2" inkscape:pageopacity="0.0" inkscape:pagecheckerboard="0" inkscape:document-units="mm" showgrid="false" inkscape:zoom="0.5190608" inkscape:cx="282.24054" inkscape:cy="544.25224" inkscape:window-width="1920" inkscape:window-height="1009" inkscape:window-x="-8" inkscape:window-y="-8" inkscape:window-maximized="1" inkscape:current-layer="layer1" height="210mm"/>
  <defs id="defs2"/>
  <g inkscape:label="Layer 1" inkscape:groupmode="layer" id="layer1">
    <path style="fill:#000000;stroke-width:0.569329" d="m 102.10873,203.64861 c -1.89989,-0.8273 -51.090316,-51.12825 -54.254406,-55.47923 -4.59117,-6.31342 -6.63152,-13.06353 -6.56282,-21.71184 0.0392,-4.92736 0.31972,-6.77842 1.5964,-10.5326 3.69963,-10.87893 11.95896,-18.98749 22.79286,-22.376723 1.89697,-0.593445 4.922265,-0.891081 8.858715,-0.871586 10.37348,0.05143 18.26735,3.537427 26.379501,11.649579 2.15204,2.15203 3.97784,3.91279 4.05735,3.91279 0.0794,0 2.06032,-1.88494 4.4018,-4.18876 7.87347,-7.746775 16.18449,-11.392308 26.07967,-11.43954 9.31049,-0.04454 16.50474,2.943617 23.08107,9.58654 6.87573,6.94532 10.10396,14.7364 10.17019,24.54496 0.0566,8.374 -2.04128,15.217 -6.56612,21.41831 -3.42039,4.68769 -52.41273,54.69037 -54.39805,55.51989 -2.28363,0.95417 -3.38619,0.94795 -5.63616,-0.0318 z" id="path21"/>
  </g>
</svg>