<svg xmlns:inkscape="http://www.inkscape.org/namespaces/inkscape" xmlns:sodipodi="http://sodipodi.sourceforge.net/DTD/sodipodi-0.dtd" xmlns="http://www.w3.org/2000/svg" xmlns:svg="http://www.w3.org/2000/svg" version="1.1" id="svg5" inkscape:version="1.1.1 (3bf5ae0d25, 2021-09-20)" sodipodi:docname="Mozilla.svg" viewBox="48.02 101.52 113.95 93.95">
  <sodipodi:namedview id="namedview7" pagecolor="#ffffff" bordercolor="#666666" borderopacity="1.0" inkscape:pageshadow="2" inkscape:pageopacity="0.0" inkscape:pagecheckerboard="0" inkscape:document-units="mm" showgrid="false" inkscape:zoom="0.51906082" inkscape:cx="289.94675" inkscape:cy="600.12235" inkscape:window-width="1920" inkscape:window-height="1009" inkscape:window-x="-8" inkscape:window-y="-8" inkscape:window-maximized="1" inkscape:current-layer="layer1"/>
  <defs id="defs2"/>
  <g inkscape:label="Layer 1" inkscape:groupmode="layer" id="layer1">
    <path style="fill:#000000;stroke-width:0.392877" d="M 106.75147,194.07263 C 95.76495,190.11099 85.24455,183.62949 76.878848,175.66843 l -3.466569,-3.29889 0.614894,-1.45499 c 1.37406,-3.25133 4.044251,-10.49143 4.044251,-10.96579 0,-0.39657 -1.589665,-0.50758 -7.268233,-0.50758 -3.997536,0 -7.268248,-0.11345 -7.268248,-0.25218 0,-0.13869 2.298345,-2.68375 5.107419,-5.6557 2.809073,-2.97194 5.107404,-5.50718 5.107404,-5.63389 0,-0.12666 -4.18098,-0.27775 -9.291072,-0.33567 l -9.291085,-0.10528 5.380177,-5.6967 5.380179,-5.69673 -8.951663,-0.19643 -8.951668,-0.19646 3.711621,-3.92877 c 2.041392,-2.16081 6.459383,-6.83809 9.817768,-10.39393 9.860186,-10.43992 11.936228,-12.16686 18.678231,-15.5374 6.540456,-3.26978 10.258296,-4.23448 16.500826,-4.28164 5.022,-0.0379 5.20953,-0.007 11.21235,1.82525 6.55646,2.00168 7.86688,2.15926 13.95617,1.67821 4.48617,-0.35439 6.04066,-0.0223 8.67419,1.85333 1.73471,1.23544 3.67462,4.321 3.68096,5.85481 0.006,1.48118 1.73585,4.79533 3.10338,5.94603 1.62692,1.36896 5.25411,3.05886 14.01975,6.53183 9.53581,3.7781 9.7426,4.00667 10.40645,11.5032 0.51681,5.83635 0.052,8.43362 -2.372,13.25477 -1.70706,3.39519 -2.70298,4.35599 -4.51517,4.35599 -0.73533,0 -2.52411,0.81318 -4.74648,2.15778 -4.58284,2.77271 -6.0669,3.01034 -10.25632,1.64222 -4.66058,-1.522 -7.53224,-1.94359 -11.99967,-1.76172 -3.23126,0.13156 -4.40219,0.34602 -5.76383,1.0557 -3.94888,2.05815 -6.60606,5.81733 -7.52058,10.63953 -0.67703,3.57001 -1.54809,12.97074 -1.80356,19.46464 -0.314,7.98173 -0.29309,7.84139 -1.18351,7.9429 -0.41168,0.0469 -2.60487,-0.58405 -4.87374,-1.40219 z" id="path21"/>
  </g>
</svg>