<svg xmlns:inkscape="http://www.inkscape.org/namespaces/inkscape" xmlns:sodipodi="http://sodipodi.sourceforge.net/DTD/sodipodi-0.dtd" xmlns="http://www.w3.org/2000/svg" xmlns:svg="http://www.w3.org/2000/svg" version="1.1" id="svg5" inkscape:version="1.1.1 (3bf5ae0d25, 2021-09-20)" sodipodi:docname="thinker.svg" viewBox="59.92 78.11 90.17 140.79">
  <sodipodi:namedview id="namedview7" pagecolor="#ffffff" bordercolor="#666666" borderopacity="1.0" inkscape:pageshadow="2" inkscape:pageopacity="0.0" inkscape:pagecheckerboard="0" inkscape:document-units="mm" showgrid="false" inkscape:zoom="0.51906082" inkscape:cx="618.42464" inkscape:cy="548.10533" inkscape:window-width="1920" inkscape:window-height="1009" inkscape:window-x="-8" inkscape:window-y="-8" inkscape:window-maximized="1" inkscape:current-layer="layer1"/>
  <defs id="defs2"/>
  <g inkscape:label="Layer 1" inkscape:groupmode="layer" id="layer1">
    <path style="fill:#000000;stroke-width:0.431465" d="m 76.102909,218.65281 c -13.200273,-0.1004 -15.674197,-0.2176 -16.126827,-0.76298 -0.831776,-1.00224 7.172625,-42.67755 8.491277,-44.21024 l 0.934257,-1.08586 h 8.625507 c 4.744005,0 8.400924,-0.14269 8.126451,-0.31698 -0.274677,-0.17428 -0.807722,-0.32003 -1.185135,-0.3236 -1.45069,-0.0153 -5.993504,-2.70589 -7.711328,-4.56951 -2.369965,-2.57111 -4.202908,-6.52859 -4.553312,-9.83093 -0.839318,-7.90941 2.868408,-24.15604 8.016938,-35.12884 4.748337,-10.12002 13.255866,-20.35644 19.387933,-23.327942 6.58685,-3.191904 12.88774,-2.674248 18.38454,1.510472 l 1.34168,1.02139 -1.11364,-2.27018 c -0.94276,-1.921818 -1.11552,-2.86749 -1.12597,-6.162437 -0.0102,-3.541341 0.11568,-4.151999 1.40585,-6.772892 1.56897,-3.187013 4.13115,-5.739314 7.35685,-7.328361 1.71298,-0.843853 2.68423,-0.990517 6.54204,-0.987919 4.11479,0.0028 4.73947,0.113133 6.81029,1.201239 3.16001,1.6608 5.5498,4.198016 7.12544,7.565123 1.14885,2.455068 1.33776,3.349015 1.33572,6.321485 -0.002,2.819078 -0.2125,3.920333 -1.13478,5.929242 -1.35127,2.94403 -4.48763,6.42809 -6.82967,7.58683 l -1.69091,0.83662 1.52427,0.24716 c 2.33073,0.37812 4.35044,1.85292 5.34147,3.90005 0.85619,1.76863 0.89313,2.53039 0.88406,18.21315 -0.0102,14.94602 -0.078,16.51871 -0.8015,18.11102 -0.7822,1.7219 -3.09315,4.05273 -4.07607,4.11113 -0.27825,0.0153 0.43724,0.32003 1.59063,0.67405 2.79538,0.85858 6.06255,4.08804 6.76585,6.68779 0.28029,1.03648 0.41431,3.1466 0.2971,4.68912 -0.20486,2.69953 -0.69255,3.7008 -13.03373,26.7508 -7.05165,13.17046 -13.23921,24.40203 -13.75019,24.95908 -2.53242,2.76078 -7.20641,3.48324 -10.67697,1.65035 -2.74584,-1.45018 -4.47972,-4.39406 -4.46413,-7.57955 0.0102,-2.30723 0.42196,-3.19251 8.92745,-19.2456 4.90356,-9.25492 9.04165,-17.16693 9.19575,-17.5822 0.26245,-0.70682 -0.43112,-0.75508 -10.85466,-0.75508 -8.66042,0 -11.01973,0.11517 -10.61704,0.51775 0.28487,0.28487 0.51775,1.07328 0.51775,1.75228 0,1.35926 -7.030957,38.80252 -7.783137,41.4492 -0.52066,1.83187 -2.40059,2.96477 -4.60763,2.77668 -0.66019,-0.0566 -8.216858,-0.15594 -16.792576,-0.22117 z M 132.8357,151.2486 c -0.88176,-0.72684 -4.80123,-6.23204 -9.05117,-12.71309 -4.12275,-6.28713 -7.67836,-11.43791 -7.90131,-11.44621 -0.86164,-0.0306 -4.54766,4.53726 -7.05216,8.74215 -3.18181,5.34208 -5.27068,10.40698 -5.27068,12.77995 0,0.96902 0.051,1.77664 0.10804,1.79468 0.0591,0.0204 6.70929,0.47801 14.77765,1.02236 8.0684,0.54426 14.95672,1.01488 15.30743,1.04581 0.35061,0.0306 -0.0622,-0.52056 -0.91764,-1.22565 z m -0.42551,-38.95087 c 0.0306,-0.17734 0.73811,-1.0746 1.56876,-1.99403 l 1.51021,-1.67165 -3.35248,-0.19416 c -3.33301,-0.19314 -6.49113,-1.3104 -9.09154,-3.21683 -0.81547,-0.59786 -0.58487,0.0408 1.19747,3.32925 1.21413,2.23833 3.41608,6.33657 4.89317,9.10719 l 2.68571,5.03748 0.26499,-5.03748 c 0.14575,-2.77062 0.2915,-5.18258 0.3236,-5.35987 z" id="path21"/>
  </g>
</svg>