<svg xmlns:inkscape="http://www.inkscape.org/namespaces/inkscape" xmlns:sodipodi="http://sodipodi.sourceforge.net/DTD/sodipodi-0.dtd" xmlns="http://www.w3.org/2000/svg" xmlns:svg="http://www.w3.org/2000/svg" version="1.1" id="svg714" sodipodi:docname="top_logo.svg" inkscape:version="1.1.1 (3bf5ae0d25, 2021-09-20)" viewBox="257.64 386.21 319.38 427.58">
  <defs id="defs718"/>
  <sodipodi:namedview id="namedview716" pagecolor="#ffffff" bordercolor="#666666" borderopacity="1.0" inkscape:pageshadow="2" inkscape:pageopacity="0.0" inkscape:pagecheckerboard="0" showgrid="false" inkscape:zoom="0.68666667" inkscape:cx="73.543689" inkscape:cy="634.2233" inkscape:window-width="1920" inkscape:window-height="1009" inkscape:window-x="-8" inkscape:window-y="-8" inkscape:window-maximized="1" inkscape:current-layer="g720"/>
  <g inkscape:groupmode="layer" inkscape:label="Image" id="g720">
    <path style="fill:#000000;stroke-width:1.33333" d="m 385.33496,797.78636 c -17.25474,-8.97478 -32.15335,-16.83323 -33.10804,-17.46323 -1.03739,-0.68459 -1.42144,-2.39799 -0.9545,-4.25844 0.68444,-2.72707 -1.20256,-4.62496 -15.22202,-15.30988 -8.80182,-6.70831 -16.29011,-12.66096 -16.64064,-13.22813 -0.35054,-0.56718 0.0443,-4.28056 0.87724,-8.25198 l 1.51456,-7.22074 -16.02892,-31.2927 -16.02894,-31.29268 6.99664,-26 c 3.84816,-14.3 10.36494,-38.48789 14.48175,-53.75088 6.61295,-24.51742 7.48509,-29.22344 7.48509,-40.389 V 536.69058 L 304.93217,523.4359 c -15.578,-14.98957 -12.74003,-8.80585 -25.07384,-54.63398 -3.65123,-13.56667 -8.09432,-30.06667 -9.87356,-36.66667 -1.77923,-6.6 -5.28372,-19.63307 -7.78776,-28.96237 l -4.55282,-16.96236 24.86483,12.61197 c 13.67566,6.9366 27.78224,14.26965 31.34798,16.29571 l 6.48316,3.68372 -0.20022,25.5671 c -0.11013,14.0619 0.16986,27.04154 0.62215,28.84364 l 0.82236,3.27654 12.22804,-6.37051 c 16.30903,-8.4966 33.21593,-15.06029 50.22803,-19.4998 11.94847,-3.11809 16.73537,-3.66197 32.66667,-3.71153 30.42182,-0.0947 52.34537,6.59665 96.97421,29.5975 0.53583,0.27615 1.13583,-12.79776 1.33334,-29.05313 l 0.35912,-29.55521 30.6334,-15.8028 c 16.84836,-8.69154 30.79746,-15.63871 30.99801,-15.43816 0.20055,0.20054 -1.37369,6.61552 -3.49831,14.25549 -2.12461,7.63997 -6.99893,25.59087 -10.83182,39.89087 -3.8329,14.3 -9.57424,35.5707 -12.75856,47.26822 l -5.78966,21.26823 -14.0432,14.08688 -14.0432,14.08688 v 12.11189 c 0,12.90814 -1.02789,8.52335 21.36927,91.15703 l 7.76421,28.64581 -16.1335,31.76022 -16.13352,31.76021 1.67693,6.54305 c 0.92232,3.59868 1.32589,7.11107 0.89683,7.80531 -0.42907,0.69424 -7.96016,6.73452 -16.73578,13.42284 -14.61268,11.13703 -15.89856,12.46597 -15.27707,15.78868 0.66118,3.53492 -0.15173,4.05601 -31.66017,20.29475 -17.78632,9.16666 -32.96016,16.80966 -33.71965,16.98444 -0.75948,0.17476 -15.49839,-7.02524 -32.75311,-16 z m 59.90039,-9.17471 c 14.37617,-7.43797 26.39592,-13.74539 26.71053,-14.01647 0.74609,-0.64285 -7.75208,-48.19465 -23.51425,-131.57474 l -3.48744,-18.44815 -13.78516,-6.85583 -13.78518,-6.85582 -14,6.96266 c -7.7,3.82947 -14,7.49818 -14,8.15268 0,1.1605 -10.85719,60.11292 -18.69176,101.4926 -7.19205,37.9861 -8.58568,47.12823 -7.25881,47.61748 0.70614,0.26039 12.6839,6.44059 26.61724,13.73379 13.93333,7.2932 26.171,13.27275 27.19483,13.28788 1.02381,0.0151 13.62381,-6.05809 28,-13.49608 z m -31.8615,-143.40891 c -3.88218,-1.40145 -6.60713,-6.35596 -6.63701,-12.06749 l -0.0297,-5.66667 h 10.66666 10.66667 v 6.5699 c 0,5.50946 -0.56704,7.01593 -3.51315,9.33333 -3.4235,2.69293 -7.09574,3.29576 -11.15352,1.83093 z m -54.86439,91.59918 c 2.20624,-12.1 7.10799,-38.5 10.89278,-58.66667 8.41782,-44.85313 8.68789,-46.66667 6.94922,-46.66667 -1.54481,0 -16.37936,7.59331 -18.07173,9.25031 -1.01876,0.99748 -16.27196,55.90653 -24.55712,88.40165 -3.62307,14.20995 -3.63065,14.33303 -0.99976,16.21696 1.45805,1.04408 6.54195,4.92975 11.29755,8.63483 4.7556,3.70507 9.05856,6.30744 9.56213,5.78304 0.50357,-0.5244 2.72069,-10.85345 4.92693,-22.95345 z m 140.40187,11.15348 6.20414,-4.55134 -1.71233,-6.30106 c -2.4431,-8.99018 -23.26475,-86.70083 -24.74861,-92.36683 -1.08636,-4.14817 -2.39121,-5.28965 -10.56952,-9.24607 -5.13158,-2.48249 -9.70696,-4.13684 -10.16749,-3.6763 -0.46053,0.46053 1.28755,12.42126 3.88461,26.5794 11.85399,64.62302 18.3494,99.21649 18.93716,100.85601 0.46194,1.28859 2.20367,0.60304 6.30311,-2.48093 3.11564,-2.34386 8.45665,-6.30966 11.86893,-8.81288 z m -161.68741,-71.93619 10.43937,-38.55063 -11.76452,-23.55901 c -6.47049,-12.95745 -12.25903,-23.86463 -12.86341,-24.23816 -0.6044,-0.37355 -2.43014,4.22801 -4.0572,10.22568 -13.4862,49.71259 -16.41191,60.84147 -17.09602,65.03027 -0.6695,4.09946 0.46363,7.18289 7.8398,21.33333 4.74235,9.09767 10.29755,19.84123 12.34492,23.87456 2.04736,4.03333 3.9464,6.68111 4.22008,5.88396 0.27368,-0.79716 5.19532,-18.79716 10.93698,-40 z m 185.9962,14.16264 11.13295,-22.0466 -10.76312,-39.77295 c -9.49341,-35.08104 -10.97679,-39.48514 -12.57443,-37.33333 -0.99621,1.34179 -6.72272,12.18185 -12.72555,24.08905 l -10.91424,21.64943 3.50516,13.68391 c 1.92786,7.52613 6.71002,25.56872 10.62704,40.09461 6.16333,22.85605 7.35453,26.09253 8.85055,24.0466 0.95078,-1.30027 6.73851,-12.28509 12.86164,-24.41072 z m -135.61172,-76.01581 29.70635,-14.63588 30.06245,14.63588 c 16.53435,8.04973 30.65028,14.63588 31.36875,14.63588 0.71846,0 5.60989,-8.63144 10.86982,-19.18098 l 9.56352,-19.18098 -3.80804,-7.52647 c -4.54909,-8.99111 -14.37552,-18.56764 -23.04109,-22.45512 -8.10393,-3.63552 -22.21444,-3.87859 -31.87212,-0.54903 -3.80369,1.31136 -10.58465,4.75558 -15.06879,7.65382 l -8.15298,5.26953 -4.3208,-3.29564 c -6.57931,-5.01828 -18.00574,-9.80604 -26.60019,-11.14567 -19.50566,-3.04036 -37.02158,6.34994 -46.79103,25.08472 l -3.82797,7.34087 9.51436,18.99247 c 5.23289,10.44586 10.22918,18.99248 11.10288,18.99248 0.87369,0 14.95638,-6.58615 31.29488,-14.63588 z m -25.49228,-20.32747 c -2.42088,-3.45631 -2.90626,-20.99321 -0.69536,-25.12431 1.24584,-2.32786 2.92452,-2.57901 17.2381,-2.57901 12.63845,0 16.28322,0.42537 17.95309,2.09524 5.00592,5.00592 0.34658,21.09201 -7.49391,25.87223 -3.41136,2.07985 -6.73523,2.69036 -14.66859,2.69421 -9.0916,0.004 -10.49368,-0.33189 -12.33333,-2.95836 z m 90.77365,-5.71121 c -5.03292,-5.03292 -3.01309,-13.06358 3.7101,-14.75098 9.08041,-2.27904 14.70368,10.53295 6.90772,15.73846 -2.50847,1.67494 -8.51391,1.11642 -10.61782,-0.98748 z" id="path724"/>
  </g>
</svg>